<svg width="750" height="450" style="display: block; touch-action: none;" xmlns="http://www.w3.org/2000/svg" xmlns:xlink="http://www.w3.org/1999/xlink"><rect fill="white" x="0" y="0" width="750" height="450" style="pointer-events: none;"></rect><g transform="matrix(0.9433962264150942,0,0,0.9433962264150942,31.188679245283083,22.584905660377387)"><g width="750" height="450"><g transform="translate(375,225)"><g class="groups"><g><path id="arc0" fill="rgb(158, 1, 66)" style="stroke: rgb(111, 1, 46);" d="M1.1327982892113017e-14,-185A185,185,0,0,1,32.96800146906736,-182.03876202373925L23.077601028347154,-127.42713341661748A129.5,129.5,0,0,0,7.929588024479112e-15,-129.5Z"></path><g transform="rotate(-84.86737618671776) translate(185,0)"><text id="text0" x="6" style="font-size: 6pt;">unhappiness</text></g></g><g><path id="arc1" fill="rgb(163, 7, 67)" style="stroke: rgb(114, 5, 47);" d="M38.41351070418809,-180.96795902971118A185,185,0,0,1,39.885977362136686,-180.64913177169473L27.920184153495683,-126.45439224018631A129.5,129.5,0,0,0,26.889457492931662,-126.67757132079784Z"></path><g transform="rotate(-77.78257790562112) translate(185,0)"><text id="text1" x="6" style="font-size: 6pt;">suicide</text></g></g><g><path id="arc2" fill="rgb(168, 12, 68)" style="stroke: rgb(118, 8, 48);" d="M45.28669108707362,-179.37144591708002A185,185,0,0,1,46.74592837918253,-178.996698796286L32.722149865427774,-125.2976891574002A129.5,129.5,0,0,0,31.700683760951534,-125.56001214195602Z"></path><g transform="rotate(-75.59710235538482) translate(185,0)"><text id="text2" x="6" style="font-size: 6pt;">landscape</text></g></g><g><path id="arc3" fill="rgb(173, 18, 70)" style="stroke: rgb(121, 13, 49);" d="M52.09398980402966,-177.51398881862144A185,185,0,0,1,54.978209308132456,-176.64200095467436L38.48474651569272,-123.64940066827205A129.5,129.5,0,0,0,36.46579286282076,-124.25979217303501Z"></path><g transform="rotate(-73.1783257227266) translate(185,0)"><text id="text3" x="6" style="font-size: 6pt;">revolution</text></g></g><g><path id="arc4" fill="rgb(178, 23, 71)" style="stroke: rgb(125, 16, 50);" d="M60.251936144807836,-174.9134191272985A185,185,0,0,1,61.67437255993171,-174.41694805648544L43.1720607919522,-122.09186363953981A129.5,129.5,0,0,0,42.17635530136548,-122.43939338910896Z"></path><g transform="rotate(-70.75954909006836) translate(185,0)"><text id="text4" x="6" style="font-size: 6pt;">romantic relationship</text></g></g><g><path id="arc5" fill="rgb(183, 29, 72)" style="stroke: rgb(128, 20, 50);" d="M66.87834477447437,-172.48851266164522A185,185,0,0,1,72.46068018380016,-170.21882923842776L50.72247612866011,-119.15318046689943A129.5,129.5,0,0,0,46.814841342132056,-120.74195886315164Z"></path><g transform="rotate(-67.8741702925663) translate(185,0)"><text id="text5" x="6" style="font-size: 6pt;">mores</text></g></g><g><path id="arc6" fill="rgb(188, 34, 73)" style="stroke: rgb(132, 24, 51);" d="M77.53387425008184,-167.96874216285747A185,185,0,0,1,80.25925823559693,-166.683686866687L56.18148076491786,-116.6785808066809A129.5,129.5,0,0,0,54.27371197505729,-117.57811951400024Z"></path><g transform="rotate(-64.7554904126423) translate(185,0)"><text id="text6" x="6" style="font-size: 6pt;">affection</text></g></g><g><path id="arc7" fill="rgb(193, 40, 73)" style="stroke: rgb(135, 28, 51);" d="M85.22290484122202,-164.20126823634467A185,185,0,0,1,86.557277165447,-163.50179745098825L60.5900940158129,-114.45125821569177A129.5,129.5,0,0,0,59.65603338885541,-114.94088776544127Z"></path><g transform="rotate(-62.33671377998408) translate(185,0)"><text id="text7" x="6" style="font-size: 6pt;">state of nature</text></g></g><g><path id="arc8" fill="rgb(197, 45, 74)" style="stroke: rgb(138, 31, 52);" d="M91.42264751049255,-160.83189833541178A185,185,0,0,1,92.72937526776268,-160.08205071915603L64.91056268743388,-112.05743550340922A129.5,129.5,0,0,0,63.995853257344784,-112.58232883478824Z"></path><g transform="rotate(-60.151238229747776) translate(185,0)"><text id="text8" x="6" style="font-size: 6pt;">royal court</text></g></g><g><path id="arc9" fill="rgb(202, 50, 74)" style="stroke: rgb(141, 35, 52);" d="M97.48939136317712,-157.22855520431804A185,185,0,0,1,98.76657356670138,-156.42942161209112L69.13660149669097,-109.50059512846379A129.5,129.5,0,0,0,68.24257395422399,-110.05998864302263Z"></path><g transform="rotate(-57.96576267951147) translate(185,0)"><text id="text9" x="6" style="font-size: 6pt;">taste</text></g></g><g><path id="arc10" fill="rgb(206, 56, 75)" style="stroke: rgb(144, 39, 53);" d="M103.41431068950999,-153.39648087428048A185,185,0,0,1,107.1307412298825,-150.8244154092299L74.99151886091775,-105.57709078646094A129.5,129.5,0,0,0,72.39001748265699,-107.37753661199633Z"></path><g transform="rotate(-55.31368496443132) translate(185,0)"><text id="text10" x="6" style="font-size: 6pt;">art criticism</text></g></g><g><path id="arc11" fill="rgb(210, 61, 75)" style="stroke: rgb(147, 43, 53);" d="M111.60658979483195,-147.54310934221263A185,185,0,0,1,113.9947868930547,-145.70582885117204L79.79635082513829,-101.99408019582043A129.5,129.5,0,0,0,78.12461285638237,-103.28017653954883Z"></path><g transform="rotate(-52.42830616692924) translate(185,0)"><text id="text11" x="6" style="font-size: 6pt;">romantic love</text></g></g><g><path id="arc12" fill="rgb(214, 66, 75)" style="stroke: rgb(150, 46, 53);" d="M118.3140123049716,-142.22093549227915A185,185,0,0,1,119.46828709881169,-141.25271104540226L83.62780096916818,-98.87689773178158A129.5,129.5,0,0,0,82.81980861348012,-99.5546548445954Z"></path><g transform="rotate(-50.00952953427102) translate(185,0)"><text id="text12" x="6" style="font-size: 6pt;">sensibility</text></g></g><g><path id="arc13" fill="rgb(217, 70, 75)" style="stroke: rgb(152, 49, 53);" d="M123.65147612431639,-137.60564106270357A185,185,0,0,1,124.767988566112,-136.5941032005648L87.3375919962784,-95.61587224039536A129.5,129.5,0,0,0,86.55603328702146,-96.3239487438925Z"></path><g transform="rotate(-47.8240539840347) translate(185,0)"><text id="text13" x="6" style="font-size: 6pt;">disease</text></g></g><g><path id="arc14" fill="rgb(221, 75, 74)" style="stroke: rgb(155, 53, 52);" d="M128.80905563226278,-132.79016223773743A185,185,0,0,1,129.886181454532,-131.73678251407384L90.92032701817239,-92.2157477598517A129.5,129.5,0,0,0,90.16633894258396,-92.95311356641619Z"></path><g transform="rotate(-45.63857843379839) translate(185,0)"><text id="text14" x="6" style="font-size: 6pt;">violence</text></g></g><g><path id="arc15" fill="rgb(224, 80, 74)" style="stroke: rgb(157, 56, 52);" d="M133.7792477429816,-127.78150442580473A185,185,0,0,1,134.81541997666827,-126.68781526458868L94.3707939836678,-88.68147068521208A129.5,129.5,0,0,0,93.64547342008713,-89.44705309806331Z"></path><g transform="rotate(-43.45310288356208) translate(185,0)"><text id="text15" x="6" style="font-size: 6pt;">incest</text></g></g><g><path id="arc16" fill="rgb(227, 85, 73)" style="stroke: rgb(159, 59, 51);" d="M138.55482197598542,-122.58695406609543A185,185,0,0,1,140.53298959731558,-120.31408410839022L98.37309271812089,-84.21985887587316A129.5,129.5,0,0,0,96.98837538318979,-85.8108678462668Z"></path><g transform="rotate(-41.03432625090385) translate(185,0)"><text id="text16" x="6" style="font-size: 6pt;">correspondence</text></g></g><g><path id="arc17" fill="rgb(230, 89, 73)" style="stroke: rgb(161, 62, 51);" d="M144.07863562907917,-116.04458951309638A185,185,0,0,1,145.01888495927741,-114.86741489721034L101.5132194714942,-80.40719042804723A129.5,129.5,0,0,0,100.85504494035541,-81.23121265916747Z"></path><g transform="rotate(-38.615549618245616) translate(185,0)"><text id="text17" x="6" style="font-size: 6pt;">Alps</text></g></g><g><path id="arc18" fill="rgb(232, 94, 73)" style="stroke: rgb(162, 66, 51);" d="M148.39913692209572,-110.46581444400384A185,185,0,0,1,150.1785846219457,-108.03422013857039L105.125009235362,-75.62395409699927A129.5,129.5,0,0,0,103.879395845467,-77.32607011080269Z"></path><g transform="rotate(-36.196772985587394) translate(185,0)"><text id="text18" x="6" style="font-size: 6pt;">utopia</text></g></g><g><path id="arc19" fill="rgb(235, 99, 73)" style="stroke: rgb(165, 69, 51);" d="M153.351549799284,-103.48092662011548A185,185,0,0,1,156.64048670435471,-98.43148848322302L109.64834069304831,-68.90204193825612A129.5,129.5,0,0,0,107.34608485949879,-72.43664863408084Z"></path><g transform="rotate(-33.0780931056634) translate(185,0)"><text id="text19" x="6" style="font-size: 6pt;">dialogue</text></g></g><g><path id="arc20" fill="rgb(237, 104, 73)" style="stroke: rgb(166, 73, 51);" d="M159.52250550452607,-93.68868788470917A185,185,0,0,1,160.28018398544276,-92.38648505919367L112.19612878980993,-64.67053954143557A129.5,129.5,0,0,0,111.66575385316825,-65.58208151929641Z"></path><g transform="rotate(-30.19271430816132) translate(185,0)"><text id="text20" x="6" style="font-size: 6pt;">superstition</text></g></g><g><path id="arc21" fill="rgb(239, 109, 74)" style="stroke: rgb(167, 76, 52);" d="M162.97924214324416,-87.53722996767597A185,185,0,0,1,163.68671065320112,-86.20708065776974L114.58069745724077,-60.34495646043881A129.5,129.5,0,0,0,114.08546950027092,-61.27606097737318Z"></path><g transform="rotate(-28.007238757925002) translate(185,0)"><text id="text21" x="6" style="font-size: 6pt;">nobility</text></g></g><g><path id="arc22" fill="rgb(241, 114, 74)" style="stroke: rgb(169, 80, 52);" d="M166.1988816629946,-81.25842561833147A185,185,0,0,1,166.85511099886594,-79.90226488376987L116.79857769920616,-55.93158541863892A129.5,129.5,0,0,0,116.33921716409624,-56.88089793283203Z"></path><g transform="rotate(-25.82176320768869) translate(185,0)"><text id="text22" x="6" style="font-size: 6pt;">property</text></g></g><g><path id="arc23" fill="rgb(243, 119, 76)" style="stroke: rgb(170, 83, 53);" d="M169.1767402326085,-74.8614090454388A185,185,0,0,1,169.78077573242084,-73.48120978656667L118.8465430126946,-51.436846850596666A129.5,129.5,0,0,0,118.42371816282595,-52.40298633180716Z"></path><g transform="rotate(-23.63628765745237) translate(185,0)"><text id="text23" x="6" style="font-size: 6pt;">France</text></g></g><g><path id="arc24" fill="rgb(244, 125, 77)" style="stroke: rgb(171, 88, 54);" d="M171.90848575630312,-68.35548642921742A185,185,0,0,1,172.45944868804818,-66.95325651687509L120.72161408163373,-46.86727956181255A129.5,129.5,0,0,0,120.33594002941219,-47.8488405004522Z"></path><g transform="rotate(-21.450812107216052) translate(185,0)"><text id="text24" x="6" style="font-size: 6pt;">social criticism</text></g></g><g><path id="arc25" fill="rgb(246, 130, 79)" style="stroke: rgb(172, 91, 55);" d="M174.39014417588,-61.750122383002456A185,185,0,0,1,175.37272329940694,-58.90168013350421L122.76090630958487,-41.231176093452945A129.5,129.5,0,0,0,122.073100923116,-43.22508566810172Z"></path><g transform="rotate(-19.03203547455783) translate(185,0)"><text id="text25" x="6" style="font-size: 6pt;">evil</text></g></g><g><path id="arc26" fill="rgb(247, 136, 81)" style="stroke: rgb(173, 95, 57);" d="M177.06059685094593,-53.61478380807661A185,185,0,0,1,181.14708963657105,-37.55971134340749L126.80296274559973,-26.291797940385248A129.5,129.5,0,0,0,123.94241779566215,-37.53034866565363Z"></path><g transform="rotate(-14.280248017680407) translate(185,0)"><text id="text26" x="6" style="font-size: 6pt;">virtue</text></g></g><g><path id="arc27" fill="rgb(248, 142, 83)" style="stroke: rgb(174, 99, 58);" d="M182.1922018889723,-32.10921317702992A185,185,0,0,1,182.44764670141862,-30.624438168141698L127.71335269099303,-21.437106717699187A129.5,129.5,0,0,0,127.53454132228062,-22.476449223920945Z"></path><g transform="rotate(-9.761761643224887) translate(185,0)"><text id="text27" x="6" style="font-size: 6pt;">economy</text></g></g><g><path id="arc28" fill="rgb(249, 147, 86)" style="stroke: rgb(174, 103, 60);" d="M183.28414675910014,-25.138049780932548A185,185,0,0,1,183.84354212806056,-20.653135786316277L128.6904794896424,-14.457195050421394A129.5,129.5,0,0,0,128.2989027313701,-17.596634846652783Z"></path><g transform="rotate(-7.109683928144733) translate(185,0)"><text id="text28" x="6" style="font-size: 6pt;">gallantry</text></g></g><g><path id="arc29" fill="rgb(250, 153, 88)" style="stroke: rgb(175, 107, 62);" d="M184.38031987729698,-15.12936356710509A185,185,0,0,1,184.49741411035978,-13.627332335802565L129.14818987725187,-9.539132635061796A129.5,129.5,0,0,0,129.0662239141079,-10.590554496973562Z"></path><g transform="rotate(-4.4576062130645795) translate(185,0)"><text id="text29" x="6" style="font-size: 6pt;">miracle</text></g></g><g><path id="arc30" fill="rgb(250, 158, 91)" style="stroke: rgb(175, 111, 64);" d="M184.8231551504491,-8.087108273852893A185,185,0,0,1,184.93035339576997,-5.07586376054651L129.45124737703898,-3.5531046323825572A129.5,129.5,0,0,0,129.37620860531436,-5.660975791697025Z"></path><g transform="rotate(-2.038829580406343) translate(185,0)"><text id="text30" x="6" style="font-size: 6pt;">individualism</text></g></g><g><path id="arc31" fill="rgb(251, 164, 94)" style="stroke: rgb(176, 115, 66);" d="M184.99939405041138,0.47349865957088993A185,185,0,0,1,184.96714430043346,3.4864780714394863L129.4770010103034,2.44053465000764A129.5,129.5,0,0,0,129.49957583528797,0.33144906169962296Z"></path><g transform="rotate(0.6132481346737961) translate(185,0)"><text id="text31" x="6" style="font-size: 6pt;">rural area</text></g></g><g><path id="arc32" fill="rgb(251, 169, 98)" style="stroke: rgb(176, 118, 69);" d="M184.77933667425424,9.033091288291144A185,185,0,0,1,184.6996470023584,10.537570744919877L129.2897529016509,7.376299521443914A129.5,129.5,0,0,0,129.34553567197796,6.323163901803801Z"></path><g transform="rotate(3.032024767332018) translate(185,0)"><text id="text32" x="6" style="font-size: 6pt;">reason</text></g></g><g><path id="arc33" fill="rgb(252, 175, 101)" style="stroke: rgb(176, 122, 71);" d="M184.3004586892204,16.07298749277713A185,185,0,0,1,183.4934027661637,23.56206997049335L128.4453819363146,16.493448979345345A129.5,129.5,0,0,0,129.01032108245428,11.251091244943993Z"></path><g transform="rotate(6.1507046472560205) translate(185,0)"><text id="text33" x="6" style="font-size: 6pt;">correspondence</text></g></g><g><path id="arc34" fill="rgb(252, 180, 104)" style="stroke: rgb(176, 126, 73);" d="M182.70408085306434,29.055444234031718A185,185,0,0,1,181.9397672027442,33.510015073276904L127.35783704192094,23.45701055129383A129.5,129.5,0,0,0,127.89285659714504,20.338810963822205Z"></path><g transform="rotate(9.735986692023857) translate(185,0)"><text id="text34" x="6" style="font-size: 6pt;">prejudice</text></g></g><g><path id="arc35" fill="rgb(253, 185, 108)" style="stroke: rgb(177, 130, 76);" d="M180.8527507838698,38.95231102139494A185,185,0,0,1,180.52953954278092,40.42382159657222L126.37067767994664,28.296675117600554A129.5,129.5,0,0,0,126.59692554870885,27.266617714976462Z"></path><g transform="rotate(12.388064407103997) translate(185,0)"><text id="text35" x="6" style="font-size: 6pt;">toleration</text></g></g><g><path id="arc36" fill="rgb(253, 190, 112)" style="stroke: rgb(177, 133, 78);" d="M179.2357745937902,45.820706081028746A185,185,0,0,1,178.46572987203112,48.73379998772119L124.9260109104218,34.11365999140484A129.5,129.5,0,0,0,125.46504221565314,32.07449425672012Z"></path><g transform="rotate(14.806841039762233) translate(185,0)"><text id="text36" x="6" style="font-size: 6pt;">social class</text></g></g><g><path id="arc37" fill="rgb(253, 195, 115)" style="stroke: rgb(177, 137, 81);" d="M176.92363160922633,54.06504025895817A185,185,0,0,1,176.47747781934928,55.50405230720624L123.53423447354449,38.85283661504437A129.5,129.5,0,0,0,123.84654212645843,37.84552818127072Z"></path><g transform="rotate(17.22561767242047) translate(185,0)"><text id="text37" x="6" style="font-size: 6pt;">envy</text></g></g><g><path id="arc38" fill="rgb(253, 199, 119)" style="stroke: rgb(177, 139, 83);" d="M174.73319709804662,60.772607578539784A185,185,0,0,1,172.66118190104112,66.43128980033124L120.86282733072878,46.50190286023187A129.5,129.5,0,0,0,122.31323796863263,42.54082530497785Z"></path><g transform="rotate(20.11099646992254) translate(185,0)"><text id="text38" x="6" style="font-size: 6pt;">libertinism</text></g></g><g><path id="arc39" fill="rgb(254, 204, 123)" style="stroke: rgb(178, 143, 86);" d="M170.59085042966782,71.58045647858569A185,185,0,0,1,170.0022671450859,72.96731573472363L119.00158700156014,51.07712101430654A129.5,129.5,0,0,0,119.41359530076747,50.10631953500999Z"></path><g transform="rotate(22.996375267424597) translate(185,0)"><text id="text39" x="6" style="font-size: 6pt;">perspective</text></g></g><g><path id="arc40" fill="rgb(254, 208, 127)" style="stroke: rgb(178, 146, 89);" d="M167.73708072837854,78.03378594379116A185,185,0,0,1,165.10659405547057,83.45545278411743L115.5746158388294,58.4188169488822A129.5,129.5,0,0,0,117.41595650986498,54.62365016065381Z"></path><g transform="rotate(25.881754064926668) translate(185,0)"><text id="text40" x="6" style="font-size: 6pt;">melancholia</text></g></g><g><path id="arc41" fill="rgb(254, 212, 131)" style="stroke: rgb(178, 148, 92);" d="M162.52901360944065,88.37035552232581A185,185,0,0,1,161.80396652670584,89.69100521359239L113.2627765686941,62.78370364951467A129.5,129.5,0,0,0,113.77030952660846,61.85924886562807Z"></path><g transform="rotate(28.767132862428724) translate(185,0)"><text id="text41" x="6" style="font-size: 6pt;">value</text></g></g><g><path id="arc42" fill="rgb(254, 216, 136)" style="stroke: rgb(178, 151, 95);" d="M159.04083363744255,94.50403819894326A185,185,0,0,1,156.68475102225446,98.36101258676699L109.67932571557812,68.85270881073689A129.5,129.5,0,0,0,111.32858354620979,66.15282673926029Z"></path><g transform="rotate(31.419210577508878) translate(185,0)"><text id="text42" x="6" style="font-size: 6pt;">wealth</text></g></g><g><path id="arc43" fill="rgb(254, 220, 140)" style="stroke: rgb(178, 154, 98);" d="M153.6638603992821,103.0165909317035A185,185,0,0,1,152.8198334115005,104.26456021142198L106.97388338805034,72.98519214799539A129.5,129.5,0,0,0,107.56470227949748,72.11161365219245Z"></path><g transform="rotate(34.07128829258902) translate(185,0)"><text id="text43" x="6" style="font-size: 6pt;">hypocrisy</text></g></g><g><path id="arc44" fill="rgb(254, 224, 144)" style="stroke: rgb(178, 157, 101);" d="M149.62360200704515,108.80155202219017A185,185,0,0,1,121.15554534097203,139.80820374045177L84.80888173868041,97.86574261831625A129.5,129.5,0,0,0,104.73652140493161,76.16108641553312Z"></path><g transform="rotate(42.55589306821716) translate(185,0)"><text id="text44" x="6" style="font-size: 6pt;">feeling</text></g></g><g><path id="arc45" fill="rgb(254, 227, 149)" style="stroke: rgb(178, 159, 104);" d="M116.90741243083833,143.37941595196247A185,185,0,0,1,115.73590340681821,144.32671499971045L81.01513238477276,101.02870049979731A129.5,129.5,0,0,0,81.83518870158683,100.36559116637372Z"></path><g transform="rotate(51.04049784384529) translate(185,0)"><text id="text45" x="6" style="font-size: 6pt;">England</text></g></g><g><path id="arc46" fill="rgb(254, 231, 153)" style="stroke: rgb(178, 162, 107);" d="M111.3546741472554,147.73332916291628A185,185,0,0,1,106.48403988747417,151.2816884135116L74.53882792123193,105.89718188945812A129.5,129.5,0,0,0,77.94827190307878,103.4133304140414Z"></path><g transform="rotate(53.925876641347344) translate(185,0)"><text id="text46" x="6" style="font-size: 6pt;">eating</text></g></g><g><path id="arc47" fill="rgb(254, 234, 157)" style="stroke: rgb(178, 164, 110);" d="M101.898355747812,154.4076587993366A185,185,0,0,1,98.09595235348583,156.85083401710887L68.66716664744008,109.79558381197621A129.5,129.5,0,0,0,71.3288490234684,108.08536115953562Z"></path><g transform="rotate(57.27785760369326) translate(185,0)"><text id="text47" x="6" style="font-size: 6pt;">destiny</text></g></g><g><path id="arc48" fill="rgb(254, 237, 161)" style="stroke: rgb(178, 166, 113);" d="M93.34699326204407,159.72269359404098A185,185,0,0,1,92.04317150460918,160.4775827939002L64.43022005322642,112.33430795573015A129.5,129.5,0,0,0,65.34289528343083,111.80588551582869Z"></path><g transform="rotate(59.9299353187734) translate(185,0)"><text id="text48" x="6" style="font-size: 6pt;">tyranny</text></g></g><g><path id="arc49" fill="rgb(254, 239, 165)" style="stroke: rgb(178, 167, 115);" d="M87.18814981660553,163.16625426710374A185,185,0,0,1,85.85648912019091,163.87087378773123L60.09954238413364,114.70961165141186A129.5,129.5,0,0,0,61.031704871623866,114.21637798697262Z"></path><g transform="rotate(62.11541086900971) translate(185,0)"><text id="text49" x="6" style="font-size: 6pt;">epistolary fiction</text></g></g><g><path id="arc50" fill="rgb(254, 242, 168)" style="stroke: rgb(178, 169, 118);" d="M80.90246776977341,166.37244576179307A185,185,0,0,1,72.67977479194515,170.12539591781157L50.87584235436161,119.0877771424681A129.5,129.5,0,0,0,56.63172743884139,116.46071203325515Z"></path><g transform="rotate(65.4673918313556) translate(185,0)"><text id="text50" x="6" style="font-size: 6pt;">attraction</text></g></g><g><path id="arc51" fill="rgb(253, 244, 171)" style="stroke: rgb(177, 171, 120);" d="M67.54407499845524,172.22891143069754A185,185,0,0,1,64.73006374586618,173.30614197845415L45.31104462210633,121.3142993849179A129.5,129.5,0,0,0,47.28085249891868,120.56023800148827Z"></path><g transform="rotate(69.05267387612344) translate(185,0)"><text id="text51" x="6" style="font-size: 6pt;">people</text></g></g><g><path id="arc52" fill="rgb(252, 246, 173)" style="stroke: rgb(176, 172, 121);" d="M59.50253298494622,175.16977070366733A185,185,0,0,1,58.074037861035634,175.64853010063877L40.651826502724944,122.95397107044714A129.5,129.5,0,0,0,41.65177308946235,122.61883949256712Z"></path><g transform="rotate(71.47145050878166) translate(185,0)"><text id="text52" x="6" style="font-size: 6pt;">power</text></g></g><g><path id="arc53" fill="rgb(252, 247, 175)" style="stroke: rgb(176, 173, 122);" d="M52.779240983736415,177.31145400447394A185,185,0,0,1,44.05581976341012,179.67772467663852L30.839073834387083,125.77440727364697A129.5,129.5,0,0,0,36.94546868861549,124.11801780313176Z"></path><g transform="rotate(74.82343147112755) translate(185,0)"><text id="text53" x="6" style="font-size: 6pt;">childhood</text></g></g><g><path id="arc54" fill="rgb(251, 248, 176)" style="stroke: rgb(176, 174, 123);" d="M38.64647290443386,180.91835211510983A185,185,0,0,1,37.1718549112356,181.22707635024642L26.02029843786492,126.8589534451725A129.5,129.5,0,0,0,27.0525310331037,126.64284648057688Z"></path><g transform="rotate(78.17541243347347) translate(185,0)"><text id="text54" x="6" style="font-size: 6pt;">liberty</text></g></g><g><path id="arc55" fill="rgb(249, 249, 176)" style="stroke: rgb(174, 174, 123);" d="M31.71913202567653,182.26051866363628A185,185,0,0,1,30.2338136037393,182.51278452474048L21.16366952261751,127.75894916731835A129.5,129.5,0,0,0,22.20339241797357,127.58236306454539Z"></path><g transform="rotate(80.36088798370977) translate(185,0)"><text id="text55" x="6" style="font-size: 6pt;">life</text></g></g><g><path id="arc56" fill="rgb(248, 249, 176)" style="stroke: rgb(174, 174, 123);" d="M24.745647142808355,183.3375382933992A185,185,0,0,1,21.756388967971347,183.71624734648358L15.229472277579944,128.6013731425385A129.5,129.5,0,0,0,17.32195299996585,128.33627680537944Z"></path><g transform="rotate(82.77966461636797) translate(185,0)"><text id="text56" x="6" style="font-size: 6pt;">sexuality</text></g></g><g><path id="arc57" fill="rgb(246, 250, 175)" style="stroke: rgb(172, 175, 122);" d="M16.235938592708706,184.28617500510936A185,185,0,0,1,-3.3286717937841694,184.9700514788523L-2.3300702556489186,129.4790360351966A129.5,129.5,0,0,0,11.365157014896095,129.00032250357654Z"></path><g transform="rotate(87.99805423808922) translate(185,0)"><text id="text57" x="6" style="font-size: 6pt;">love</text></g></g><g><path id="arc58" fill="rgb(244, 249, 173)" style="stroke: rgb(171, 174, 121);" d="M-8.87544322040578,184.78697602277427A185,185,0,0,1,-13.386918964513676,184.51501402497723L-9.370843275159572,129.16050981748407A129.5,129.5,0,0,0,-6.212810254284046,129.350883215942Z"></path><g transform="rotate(93.44974494223243) translate(185,0)"><text id="text58" x="6" transform="rotate(180) translate(-12)" style="text-anchor: end; font-size: 6pt;">passion</text></g></g><g><path id="arc59" fill="rgb(242, 249, 171)" style="stroke: rgb(169, 174, 120);" d="M-18.915515443324264,184.03044116535003A185,185,0,0,1,-20.413568451825125,183.8702972833368L-14.289497916277586,128.70920809833575A129.5,129.5,0,0,0,-13.240860810326984,128.82130881574503Z"></path><g transform="rotate(96.10182265731257) translate(185,0)"><text id="text59" x="6" transform="rotate(180) translate(-12)" style="text-anchor: end; font-size: 6pt;">imagination</text></g></g><g><path id="arc60" fill="rgb(240, 248, 169)" style="stroke: rgb(168, 174, 118);" d="M-25.9196645743543,183.1752466583653A185,185,0,0,1,-30.38668123323865,182.48739573907437L-21.270676863267056,127.74117701735207A129.5,129.5,0,0,0,-18.14376520204801,128.2226726608557Z"></path><g transform="rotate(98.7539003723927) translate(185,0)"><text id="text60" x="6" transform="rotate(180) translate(-12)" style="text-anchor: end; font-size: 6pt;">eroticism</text></g></g><g><path id="arc61" fill="rgb(237, 248, 167)" style="stroke: rgb(166, 174, 117);" d="M-35.8468089680477,181.49381886667186A185,185,0,0,1,-37.323643158678784,181.19587650209817L-26.12655021107515,126.83711355146872A129.5,129.5,0,0,0,-25.092766277633388,127.04567320667032Z"></path><g transform="rotate(101.40597808747285) translate(185,0)"><text id="text61" x="6" transform="rotate(180) translate(-12)" style="text-anchor: end; font-size: 6pt;">metaphysics</text></g></g><g><path id="arc62" fill="rgb(234, 247, 165)" style="stroke: rgb(164, 173, 115);" d="M-42.741909729202575,179.99480312692558A185,185,0,0,1,-44.206307811988275,179.64075915457423L-30.944415468391792,125.74853140820197A129.5,129.5,0,0,0,-29.919336810441802,125.99636218884791Z"></path><g transform="rotate(103.59145363770915) translate(185,0)"><text id="text62" x="6" transform="rotate(180) translate(-12)" style="text-anchor: end; font-size: 6pt;">will</text></g></g><g><path id="arc63" fill="rgb(231, 245, 163)" style="stroke: rgb(162, 172, 114);" d="M-49.57483089298848,178.23393656072233A185,185,0,0,1,-55.353470070846676,176.52476696236107L-38.747429049592675,123.56733687365275A129.5,129.5,0,0,0,-34.70238162509194,124.76375559250563Z"></path><g transform="rotate(106.47683243521121) translate(185,0)"><text id="text63" x="6" transform="rotate(180) translate(-12)" style="text-anchor: end; font-size: 6pt;">sociability</text></g></g><g><path id="arc64" fill="rgb(227, 244, 162)" style="stroke: rgb(159, 171, 113);" d="M-60.623511560603326,174.78498175204126A185,185,0,0,1,-62.044889704696935,174.28548895858194L-43.43142279328785,121.99984227100737A129.5,129.5,0,0,0,-42.43645809242233,122.34948722642888Z"></path><g transform="rotate(109.36221123271326) translate(185,0)"><text id="text64" x="6" transform="rotate(180) translate(-12)" style="text-anchor: end; font-size: 6pt;">exoticism</text></g></g><g><path id="arc65" fill="rgb(224, 242, 160)" style="stroke: rgb(157, 169, 112);" d="M-67.2447520176312,172.34599886880832A185,185,0,0,1,-70.04279209838855,171.2279395281679L-49.02995446887198,119.85955766971752A129.5,129.5,0,0,0,-47.07132641234184,120.64219920816583Z"></path><g transform="rotate(111.78098786537151) translate(185,0)"><text id="text65" x="6" transform="rotate(180) translate(-12)" style="text-anchor: end; font-size: 6pt;">death</text></g></g><g><path id="arc66" fill="rgb(219, 241, 159)" style="stroke: rgb(153, 169, 111);" d="M-75.14734290060761,169.04992414957925A185,185,0,0,1,-76.52153510788024,168.4323444731844L-53.56507457551617,117.90264113122907A129.5,129.5,0,0,0,-52.60314003042534,118.33494690470548Z"></path><g transform="rotate(114.19976449802971) translate(185,0)"><text id="text66" x="6" transform="rotate(180) translate(-12)" style="text-anchor: end; font-size: 6pt;">comedy</text></g></g><g><path id="arc67" fill="rgb(215, 239, 159)" style="stroke: rgb(151, 167, 111);" d="M-81.53931542235821,166.06125388076887A185,185,0,0,1,-82.88895697441859,165.39171929601852L-58.02226988209301,115.77420350721296A129.5,129.5,0,0,0,-57.077520795650756,116.24287771653822Z"></path><g transform="rotate(116.38524004826601) translate(185,0)"><text id="text67" x="6" transform="rotate(180) translate(-12)" style="text-anchor: end; font-size: 6pt;">monastery</text></g></g><g><path id="arc68" fill="rgb(211, 237, 158)" style="stroke: rgb(148, 166, 111);" d="M-87.81266709083327,162.83100287842757A185,185,0,0,1,-89.13579457123998,162.1104874033562L-62.39505619986799,113.47734118234933A129.5,129.5,0,0,0,-61.46886696358329,113.98170201489931Z"></path><g transform="rotate(118.57071559850232) translate(185,0)"><text id="text68" x="6" transform="rotate(180) translate(-12)" style="text-anchor: end; font-size: 6pt;">peace</text></g></g><g><path id="arc69" fill="rgb(206, 235, 158)" style="stroke: rgb(144, 165, 111);" d="M-93.95827162965975,159.36387041097828A185,185,0,0,1,-95.252960193816,158.59342222902976L-66.6770721356712,111.01539556032083A129.5,129.5,0,0,0,-65.77079014076182,111.55470928768479Z"></path><g transform="rotate(120.75619114873862) translate(185,0)"><text id="text69" x="6" transform="rotate(180) translate(-12)" style="text-anchor: end; font-size: 6pt;">poetry</text></g></g><g><path id="arc70" fill="rgb(201, 233, 159)" style="stroke: rgb(141, 163, 111);" d="M-99.96718860500506,155.6649003546122A185,185,0,0,1,-107.45101884069862,150.59640948606918L-75.21571318848903,105.41748664024843A129.5,129.5,0,0,0,-69.97703202350354,108.96543024822854Z"></path><g transform="rotate(124.10817211108454) translate(185,0)"><text id="text70" x="6" transform="rotate(180) translate(-12)" style="text-anchor: end; font-size: 6pt;">morality</text></g></g><g><path id="arc71" fill="rgb(195, 231, 159)" style="stroke: rgb(137, 162, 111);" d="M-111.91988413981788,147.30559912688227A185,185,0,0,1,-114.30417140946085,145.4632475864491L-80.01291998662259,101.82427331051439A129.5,129.5,0,0,0,-78.34391889787251,103.11391938881759Z"></path><g transform="rotate(127.69345415585235) translate(185,0)"><text id="text71" x="6" transform="rotate(180) translate(-12)" style="text-anchor: end; font-size: 6pt;">friendship</text></g></g><g><path id="arc72" fill="rgb(190, 229, 160)" style="stroke: rgb(133, 160, 112);" d="M-118.61598126241164,141.96918323761398A185,185,0,0,1,-120.91246740608673,140.0184817292775L-84.63872718426072,98.01293721049424A129.5,129.5,0,0,0,-83.03118688368814,99.37842826632978Z"></path><g transform="rotate(130.3455318709325) translate(185,0)"><text id="text72" x="6" transform="rotate(180) translate(-12)" style="text-anchor: end; font-size: 6pt;">human</text></g></g><g><path id="arc73" fill="rgb(184, 227, 160)" style="stroke: rgb(129, 159, 112);" d="M-125.05798527349098,136.3286481974178A185,185,0,0,1,-128.351010039106,133.2329472087941L-89.8457070273742,93.26306304615586A129.5,129.5,0,0,0,-87.54058969144369,95.43005373819247Z"></path><g transform="rotate(133.23091066843457) translate(185,0)"><text id="text73" x="6" transform="rotate(180) translate(-12)" style="text-anchor: end; font-size: 6pt;">Christianity</text></g></g><g><path id="arc74" fill="rgb(179, 224, 161)" style="stroke: rgb(125, 157, 113);" d="M-132.28964531128548,129.3230441314087A185,185,0,0,1,-141.4045564402595,119.28852173588818L-98.98318950818165,83.50196521512173A129.5,129.5,0,0,0,-92.60275171789984,90.5261308919861Z"></path><g transform="rotate(137.74939704289005) translate(185,0)"><text id="text74" x="6" transform="rotate(180) translate(-12)" style="text-anchor: end; font-size: 6pt;">interaction</text></g></g><g><path id="arc75" fill="rgb(173, 222, 162)" style="stroke: rgb(121, 155, 113);" d="M-144.91904804000626,114.9933455256362A185,185,0,0,1,-146.772696181049,112.61783009694992L-102.74088732673431,78.83248106786495A129.5,129.5,0,0,0,-101.44333362800438,80.49534186794534Z"></path><g transform="rotate(142.0345823349237) translate(185,0)"><text id="text75" x="6" transform="rotate(180) translate(-12)" style="text-anchor: end; font-size: 6pt;">village</text></g></g><g><path id="arc76" fill="rgb(167, 220, 162)" style="stroke: rgb(117, 154, 113);" d="M-150.08468156667516,108.16463543612448A185,185,0,0,1,-162.86640394910935,87.74699120018609L-114.00648276437656,61.42289384013026A129.5,129.5,0,0,0,-105.0592770966726,75.71524480528714Z"></path><g transform="rotate(147.9528752039107) translate(185,0)"><text id="text76" x="6" transform="rotate(180) translate(-12)" style="text-anchor: end; font-size: 6pt;">night</text></g></g><g><path id="arc77" fill="rgb(161, 217, 163)" style="stroke: rgb(113, 152, 114);" d="M-165.42513445622208,82.82224876288282A185,185,0,0,1,-169.27298316694865,74.64353401174088L-118.49108821686406,52.250473808218615A129.5,129.5,0,0,0,-115.79759411935547,57.975574134017975Z"></path><g transform="rotate(154.8043724025855) translate(185,0)"><text id="text77" x="6" transform="rotate(180) translate(-12)" style="text-anchor: end; font-size: 6pt;">philosophy</text></g></g><g><path id="arc78" fill="rgb(155, 215, 163)" style="stroke: rgb(109, 151, 114);" d="M-171.4357861768795,69.532519139718A185,185,0,0,1,-172.54550725180613,66.73116159049626L-120.78185507626428,46.71181311334738A129.5,129.5,0,0,0,-120.00505032381565,48.672763397802605Z"></path><g transform="rotate(158.38965444735334) translate(185,0)"><text id="text78" x="6" transform="rotate(180) translate(-12)" style="text-anchor: end; font-size: 6pt;">sin</text></g></g><g><path id="arc79" fill="rgb(149, 212, 164)" style="stroke: rgb(104, 148, 115);" d="M-174.4695021677795,61.52554602217837A185,185,0,0,1,-177.69153025537656,51.485144221441175L-124.38407117876359,36.03960095500882A129.5,129.5,0,0,0,-122.12865151744565,43.067882215524854Z"></path><g transform="rotate(162.2082375745431) translate(185,0)"><text id="text79" x="6" transform="rotate(180) translate(-12)" style="text-anchor: end; font-size: 6pt;">travel</text></g></g><g><path id="arc80" fill="rgb(143, 210, 164)" style="stroke: rgb(100, 147, 115);" d="M-179.15589771759065,46.13203131235606A185,185,0,0,1,-179.5256401939933,44.671517916194155L-125.66794813579531,31.270062541335907A129.5,129.5,0,0,0,-125.40912840231344,32.29242191864925Z"></path><g transform="rotate(165.79351961931093) translate(185,0)"><text id="text80" x="6" transform="rotate(180) translate(-12)" style="text-anchor: end; font-size: 6pt;">problem</text></g></g><g><path id="arc81" fill="rgb(137, 207, 165)" style="stroke: rgb(96, 145, 115);" d="M-180.7848042394156,39.266455863958235A185,185,0,0,1,-181.09858182975708,37.79290487976249L-126.76900728082997,26.455033415833743A129.5,129.5,0,0,0,-126.54936296759091,27.486519104770764Z"></path><g transform="rotate(167.9789951695472) translate(185,0)"><text id="text81" x="6" transform="rotate(180) translate(-12)" style="text-anchor: end; font-size: 6pt;">guilt</text></g></g><g><path id="arc82" fill="rgb(131, 204, 165)" style="stroke: rgb(92, 143, 115);" d="M-182.15071066580128,32.34375680009267A185,185,0,0,1,-183.51307469782665,23.408362073197246L-128.45915228847866,16.385853451238074A129.5,129.5,0,0,0,-127.5054974660609,22.640629760064872Z"></path><g transform="rotate(171.33097613189318) translate(185,0)"><text id="text82" x="6" transform="rotate(180) translate(-12)" style="text-anchor: end; font-size: 6pt;">personality</text></g></g><g><path id="arc83" fill="rgb(125, 201, 166)" style="stroke: rgb(88, 141, 116);" d="M-184.1326455368998,17.89326263101352A185,185,0,0,1,-184.39964593141866,14.891963616912346L-129.07975215199306,10.424374531838643A129.5,129.5,0,0,0,-128.89285187582985,12.525283841709463Z"></path><g transform="rotate(174.91625817666107) translate(185,0)"><text id="text83" x="6" transform="rotate(180) translate(-12)" style="text-anchor: end; font-size: 6pt;">sensationism</text></g></g><g><path id="arc84" fill="rgb(119, 198, 167)" style="stroke: rgb(83, 139, 117);" d="M-184.7633642117375,9.354103118997386A185,185,0,0,1,-184.83341401983054,7.849144015363376L-129.38338981388137,5.494400810754363A129.5,129.5,0,0,0,-129.33435494821626,6.54787218329817Z"></path><g transform="rotate(177.33503480931932) translate(185,0)"><text id="text84" x="6" transform="rotate(180) translate(-12)" style="text-anchor: end; font-size: 6pt;">atheism</text></g></g><g><path id="arc85" fill="rgb(113, 194, 167)" style="stroke: rgb(79, 136, 117);" d="M-184.98568422236443,2.301441457797289A185,185,0,0,1,-184.98670082567364,-2.2182239816392797L-129.49069057797155,-1.5527567871474959A129.5,129.5,0,0,0,-129.4899789556551,1.6110090204581022Z"></path><g transform="rotate(179.9871125243995) translate(185,0)"><text id="text85" x="6" transform="rotate(180) translate(-12)" style="text-anchor: end; font-size: 6pt;">politics</text></g></g><g><path id="arc86" fill="rgb(107, 190, 168)" style="stroke: rgb(75, 133, 118);" d="M-184.8369263155255,-7.765994477785899A185,185,0,0,1,-184.76755353203345,-9.270984941588019L-129.3372874724234,-6.489689459111614A129.5,129.5,0,0,0,-129.38584842086783,-5.436196134450129Z"></path><g transform="rotate(182.6391902394796) translate(185,0)"><text id="text86" x="6" transform="rotate(180) translate(-12)" style="text-anchor: end; font-size: 6pt;">beauty</text></g></g><g><path id="arc87" fill="rgb(102, 186, 170)" style="stroke: rgb(71, 130, 119);" d="M-184.40632653796916,-14.809008500635443A185,185,0,0,1,-184.14067632808204,-17.810427323243317L-128.89847342965743,-12.467299126270321A129.5,129.5,0,0,0,-129.0844285765784,-10.36630595044481Z"></path><g transform="rotate(185.0579668721379) translate(185,0)"><text id="text87" x="6" transform="rotate(180) translate(-12)" style="text-anchor: end; font-size: 6pt;">monarchy</text></g></g><g><path id="arc88" fill="rgb(96, 182, 171)" style="stroke: rgb(67, 127, 120);" d="M-183.5235865619149,-23.325804926118465A185,185,0,0,1,-183.32754361541006,-24.819584040429035L-128.32928053078703,-17.373708828300323A129.5,129.5,0,0,0,-128.46651059334042,-16.328063448282926Z"></path><g transform="rotate(187.47674350479616) translate(185,0)"><text id="text88" x="6" transform="rotate(180) translate(-12)" style="text-anchor: end; font-size: 6pt;">state</text></g></g><g><path id="arc89" fill="rgb(91, 178, 172)" style="stroke: rgb(64, 125, 120);" d="M-182.50057656979155,-30.307417436885785A185,185,0,0,1,-181.41666798578242,-36.235239435339544L-126.9916675900477,-25.36466760473768A129.5,129.5,0,0,0,-127.75040359885409,-21.21519220582005Z"></path><g transform="rotate(190.36212230229825) translate(185,0)"><text id="text89" x="6" transform="rotate(180) translate(-12)" style="text-anchor: end; font-size: 6pt;">art</text></g></g><g><path id="arc90" fill="rgb(86, 173, 174)" style="stroke: rgb(60, 121, 122);" d="M-180.24814247599747,-41.66061850179995A185,185,0,0,1,-179.9028957645792,-43.127115548329414L-125.93202703520544,-30.188980883830588A129.5,129.5,0,0,0,-126.17369973319823,-29.16243295125997Z"></path><g transform="rotate(193.24750109980033) translate(185,0)"><text id="text90" x="6" transform="rotate(180) translate(-12)" style="text-anchor: end; font-size: 6pt;">locus amoenus</text></g></g><g><path id="arc91" fill="rgb(82, 168, 175)" style="stroke: rgb(57, 118, 122);" d="M-178.52832612986273,-48.50398714816519A185,185,0,0,1,-176.40587076285664,-55.73121890285835L-123.48410953399966,-39.011853232000846A129.5,129.5,0,0,0,-124.9698282909039,-33.95279100371563Z"></path><g transform="rotate(196.36618097972433) translate(185,0)"><text id="text91" x="6" transform="rotate(180) translate(-12)" style="text-anchor: end; font-size: 6pt;">mourning</text></g></g><g><path id="arc92" fill="rgb(78, 163, 177)" style="stroke: rgb(55, 114, 124);" d="M-174.65480828664687,-60.99752406741301A185,185,0,0,1,-148.68309148104711,-110.08332438493386L-104.07816403673297,-77.05832706945371A129.5,129.5,0,0,0,-122.25836580065281,-42.6982668471891Z"></path><g transform="rotate(207.88369982683753) translate(185,0)"><text id="text92" x="6" transform="rotate(180) translate(-12)" style="text-anchor: end; font-size: 6pt;">Sentimentalism</text></g></g><g><path id="arc93" fill="rgb(74, 158, 178)" style="stroke: rgb(52, 111, 125);" d="M-145.31418472890473,-114.49361430478886A185,185,0,0,1,-139.54853323003653,-121.45454653221256L-97.68397326102557,-85.0181825725488A129.5,129.5,0,0,0,-101.71992931023331,-80.1455300133522Z"></path><g transform="rotate(219.63451975637258) translate(185,0)"><text id="text93" x="6" transform="rotate(180) translate(-12)" style="text-anchor: end; font-size: 6pt;">nature</text></g></g><g><path id="arc94" fill="rgb(71, 153, 179)" style="stroke: rgb(50, 107, 125);" d="M-135.84265122460369,-125.5857241420006A185,185,0,0,1,-134.81541997666776,-126.68781526458926L-94.37079398366743,-88.68147068521249A129.5,129.5,0,0,0,-95.08985585722259,-87.91000689940041Z"></path><g transform="rotate(222.98650071871845) translate(185,0)"><text id="text94" x="6" transform="rotate(180) translate(-12)" style="text-anchor: end; font-size: 6pt;">truth</text></g></g><g><path id="arc95" fill="rgb(69, 148, 180)" style="stroke: rgb(48, 104, 126);" d="M-130.95469319913943,-130.67466598051539A185,185,0,0,1,-119.89063224675219,-140.8944154303996L-83.92344257272653,-98.62609080127972A129.5,129.5,0,0,0,-91.6682852393976,-91.47226618636077Z"></path><g transform="rotate(227.2716860107521) translate(185,0)"><text id="text95" x="6" transform="rotate(180) translate(-12)" style="text-anchor: end; font-size: 6pt;">happiness</text></g></g><g><path id="arc96" fill="rgb(67, 143, 180)" style="stroke: rgb(47, 100, 126);" d="M-115.6104870418555,-144.4271971823346A185,185,0,0,1,-113.24290041744999,-146.29096180230516L-79.27003029221498,-102.40367326161362A129.5,129.5,0,0,0,-80.92734092929885,-101.09903802763422Z"></path><g transform="rotate(231.79017238520765) translate(185,0)"><text id="text96" x="6" transform="rotate(180) translate(-12)" style="text-anchor: end; font-size: 6pt;">tragedy</text></g></g><g><path id="arc97" fill="rgb(66, 137, 181)" style="stroke: rgb(46, 96, 127);" d="M-108.80387435973101,-149.6219132490688A185,185,0,0,1,-105.1163201970693,-152.23521021178775L-73.5814241379485,-106.56464714825142A129.5,129.5,0,0,0,-76.16271205181171,-104.73533927434816Z"></path><g transform="rotate(234.67555118270968) translate(185,0)"><text id="text97" x="6" transform="rotate(180) translate(-12)" style="text-anchor: end; font-size: 6pt;">crime</text></g></g><g><path id="arc98" fill="rgb(66, 132, 180)" style="stroke: rgb(46, 92, 126);" d="M-100.50265012181531,-155.31972610873345A185,185,0,0,1,-99.23444732610643,-156.13303450545695L-69.4641131282745,-109.29312415381986A129.5,129.5,0,0,0,-70.35185508527071,-108.72380827611342Z"></path><g transform="rotate(237.3276288977899) translate(185,0)"><text id="text98" x="6" transform="rotate(180) translate(-12)" style="text-anchor: end; font-size: 6pt;">ideal</text></g></g><g><path id="arc99" fill="rgb(67, 127, 180)" style="stroke: rgb(47, 89, 126);" d="M-94.50650670574707,-159.03936679412612A185,185,0,0,1,-90.59316216715352,-161.3005857663134L-63.415213517007466,-112.91041003641938A129.5,129.5,0,0,0,-66.15455469402295,-111.32755675588828Z"></path><g transform="rotate(239.97970661287007) translate(185,0)"><text id="text99" x="6" transform="rotate(180) translate(-12)" style="text-anchor: end; font-size: 6pt;">society</text></g></g><g><path id="arc100" fill="rgb(68, 121, 179)" style="stroke: rgb(48, 85, 125);" d="M-85.71410654858964,-163.9453931605796A185,185,0,0,1,-83.03259699617655,-165.31965350819766L-58.12281789732359,-115.72375745573837A129.5,129.5,0,0,0,-59.999874584012744,-114.76177521240574Z"></path><g transform="rotate(242.86508541037216) translate(185,0)"><text id="text100" x="6" transform="rotate(180) translate(-12)" style="text-anchor: end; font-size: 6pt;">civilization</text></g></g><g><path id="arc101" fill="rgb(70, 116, 177)" style="stroke: rgb(49, 81, 124);" d="M-78.03638942951267,-167.7358695235025A185,185,0,0,1,-65.54390107673514,-172.99999142093378L-45.8807307537146,-121.09999399465364A129.5,129.5,0,0,0,-54.62547260065886,-117.41510866645173Z"></path><g transform="rotate(247.15027070240575) translate(185,0)"><text id="text101" x="6" transform="rotate(180) translate(-12)" style="text-anchor: end; font-size: 6pt;">education</text></g></g><g><path id="arc102" fill="rgb(72, 111, 176)" style="stroke: rgb(50, 78, 123);" d="M-60.3251872555925,-174.8881693613885L-42.227631078914754,-122.42171855297194Z"></path><g transform="rotate(250.9688538295955) translate(185,0)"><text id="text102" x="6" transform="rotate(180) translate(-12)" style="text-anchor: end; font-size: 6pt;"></text></g></g><g><path id="arc103" fill="rgb(75, 105, 174)" style="stroke: rgb(53, 74, 122);" d="M-55.05218483774781,-176.61895975401524A185,185,0,0,1,-52.1683307883539,-177.4921554963962L-36.51783155184773,-124.24450884747733A129.5,129.5,0,0,0,-38.53652938642347,-123.63327182781066Z"></path><g transform="rotate(253.15432937983184) translate(185,0)"><text id="text103" x="6" transform="rotate(180) translate(-12)" style="text-anchor: end; font-size: 6pt;">duty</text></g></g><g><path id="arc104" fill="rgb(79, 100, 172)" style="stroke: rgb(55, 70, 120);" d="M-46.8208908139939,-178.9771051933293A185,185,0,0,1,-43.899721980904076,-179.7159269792172L-30.729805386632854,-125.80114888545204A129.5,129.5,0,0,0,-32.77462356979573,-125.28397363533051Z"></path><g transform="rotate(255.80640709491206) translate(185,0)"><text id="text104" x="6" transform="rotate(180) translate(-12)" style="text-anchor: end; font-size: 6pt;">Paris</text></g></g><g><path id="arc105" fill="rgb(82, 95, 169)" style="stroke: rgb(57, 67, 118);" d="M-38.48929946348699,-180.95185499687486A185,185,0,0,1,-37.014413846296804,-181.25929815492245L-25.910089692407762,-126.88150870844571A129.5,129.5,0,0,0,-26.94250962444089,-126.66629849781239Z"></path><g transform="rotate(258.22518372757025) translate(185,0)"><text id="text105" x="6" transform="rotate(180) translate(-12)" style="text-anchor: end; font-size: 6pt;">reform</text></g></g><g><path id="arc106" fill="rgb(86, 90, 167)" style="stroke: rgb(60, 63, 117);" d="M-31.56079529475472,-182.28800344609238A185,185,0,0,1,-28.587726701508384,-182.77784844460737L-20.011408691055866,-127.94449391122517A129.5,129.5,0,0,0,-22.092556706328303,-127.60160241226467Z"></path><g transform="rotate(260.6439603602285) translate(185,0)"><text id="text106" x="6" transform="rotate(180) translate(-12)" style="text-anchor: end; font-size: 6pt;">soul</text></g></g><g><path id="arc107" fill="rgb(90, 84, 164)" style="stroke: rgb(63, 59, 115);" d="M-23.092350199267546,-183.55310774343863A185,185,0,0,1,-14.099500015796204,-184.46193130102637L-9.869650011057344,-129.12335191071844A129.5,129.5,0,0,0,-16.16464513948728,-128.48717542040706Z"></path><g transform="rotate(264.22924240499634) translate(185,0)"><text id="text107" x="6" transform="rotate(180) translate(-12)" style="text-anchor: end; font-size: 6pt;">religion</text></g></g><g><path id="arc108" fill="rgb(94, 79, 162)" style="stroke: rgb(66, 55, 113);" d="M-8.560127818940224,-184.8018512129232A185,185,0,0,1,-5.5491675374599705,-184.91675624356273L-3.8844172762219795,-129.4417293704939A129.5,129.5,0,0,0,-5.992089473258157,-129.36129584904626Z"></path><g transform="rotate(267.81452444976424) translate(185,0)"><text id="text108" x="6" transform="rotate(180) translate(-12)" style="text-anchor: end; font-size: 6pt;">reality</text></g></g></g><g class="ribbons"><path d="M7.929588024479112e-15,-129.5A129.5,129.5,0,0,1,23.077601028347154,-127.42713341661748Q0,0,-42.227631078914754,-122.42171855297194Q0,0,7.929588024479112e-15,-129.5Z" id="ribbon0" fill="rgb(72, 111, 176)" style="stroke: rgb(50, 78, 123);"></path><path d="M26.889457492931662,-126.67757132079784A129.5,129.5,0,0,1,27.920184153495683,-126.45439224018631Q0,0,-42.227631078914754,-122.42171855297194Q0,0,26.889457492931662,-126.67757132079784Z" id="ribbon1" fill="rgb(72, 111, 176)" style="stroke: rgb(50, 78, 123);"></path><path d="M31.700683760951534,-125.56001214195602A129.5,129.5,0,0,1,32.722149865427774,-125.2976891574002Q0,0,-42.227631078914754,-122.42171855297194Q0,0,31.700683760951534,-125.56001214195602Z" id="ribbon2" fill="rgb(72, 111, 176)" style="stroke: rgb(50, 78, 123);"></path><path d="M36.46579286282076,-124.25979217303501A129.5,129.5,0,0,1,38.48474651569272,-123.64940066827205Q0,0,-42.227631078914754,-122.42171855297194Q0,0,36.46579286282076,-124.25979217303501Z" id="ribbon3" fill="rgb(72, 111, 176)" style="stroke: rgb(50, 78, 123);"></path><path d="M42.17635530136548,-122.43939338910896A129.5,129.5,0,0,1,43.1720607919522,-122.09186363953981Q0,0,-42.227631078914754,-122.42171855297194Q0,0,42.17635530136548,-122.43939338910896Z" id="ribbon4" fill="rgb(72, 111, 176)" style="stroke: rgb(50, 78, 123);"></path><path d="M46.814841342132056,-120.74195886315164A129.5,129.5,0,0,1,50.72247612866011,-119.15318046689943Q0,0,-42.227631078914754,-122.42171855297194Q0,0,46.814841342132056,-120.74195886315164Z" id="ribbon5" fill="rgb(72, 111, 176)" style="stroke: rgb(50, 78, 123);"></path><path d="M54.27371197505729,-117.57811951400024A129.5,129.5,0,0,1,56.18148076491786,-116.6785808066809Q0,0,-42.227631078914754,-122.42171855297194Q0,0,54.27371197505729,-117.57811951400024Z" id="ribbon6" fill="rgb(72, 111, 176)" style="stroke: rgb(50, 78, 123);"></path><path d="M59.65603338885541,-114.94088776544127A129.5,129.5,0,0,1,60.5900940158129,-114.45125821569177Q0,0,-42.227631078914754,-122.42171855297194Q0,0,59.65603338885541,-114.94088776544127Z" id="ribbon7" fill="rgb(72, 111, 176)" style="stroke: rgb(50, 78, 123);"></path><path d="M63.995853257344784,-112.58232883478824A129.5,129.5,0,0,1,64.91056268743388,-112.05743550340922Q0,0,-42.227631078914754,-122.42171855297194Q0,0,63.995853257344784,-112.58232883478824Z" id="ribbon8" fill="rgb(72, 111, 176)" style="stroke: rgb(50, 78, 123);"></path><path d="M68.24257395422399,-110.05998864302263A129.5,129.5,0,0,1,69.13660149669097,-109.50059512846379Q0,0,-42.227631078914754,-122.42171855297194Q0,0,68.24257395422399,-110.05998864302263Z" id="ribbon9" fill="rgb(72, 111, 176)" style="stroke: rgb(50, 78, 123);"></path><path d="M72.39001748265699,-107.37753661199633A129.5,129.5,0,0,1,74.99151886091775,-105.57709078646094Q0,0,-42.227631078914754,-122.42171855297194Q0,0,72.39001748265699,-107.37753661199633Z" id="ribbon10" fill="rgb(72, 111, 176)" style="stroke: rgb(50, 78, 123);"></path><path d="M78.12461285638237,-103.28017653954883A129.5,129.5,0,0,1,79.79635082513829,-101.99408019582043Q0,0,-42.227631078914754,-122.42171855297194Q0,0,78.12461285638237,-103.28017653954883Z" id="ribbon11" fill="rgb(72, 111, 176)" style="stroke: rgb(50, 78, 123);"></path><path d="M82.81980861348012,-99.5546548445954A129.5,129.5,0,0,1,83.62780096916818,-98.87689773178158Q0,0,-42.227631078914754,-122.42171855297194Q0,0,82.81980861348012,-99.5546548445954Z" id="ribbon12" fill="rgb(72, 111, 176)" style="stroke: rgb(50, 78, 123);"></path><path d="M86.55603328702146,-96.3239487438925A129.5,129.5,0,0,1,87.3375919962784,-95.61587224039536Q0,0,-42.227631078914754,-122.42171855297194Q0,0,86.55603328702146,-96.3239487438925Z" id="ribbon13" fill="rgb(72, 111, 176)" style="stroke: rgb(50, 78, 123);"></path><path d="M90.16633894258396,-92.95311356641619A129.5,129.5,0,0,1,90.92032701817239,-92.2157477598517Q0,0,-42.227631078914754,-122.42171855297194Q0,0,90.16633894258396,-92.95311356641619Z" id="ribbon14" fill="rgb(72, 111, 176)" style="stroke: rgb(50, 78, 123);"></path><path d="M93.64547342008713,-89.44705309806331A129.5,129.5,0,0,1,94.3707939836678,-88.68147068521208Q0,0,-42.227631078914754,-122.42171855297194Q0,0,93.64547342008713,-89.44705309806331Z" id="ribbon15" fill="rgb(72, 111, 176)" style="stroke: rgb(50, 78, 123);"></path><path d="M96.98837538318979,-85.8108678462668A129.5,129.5,0,0,1,98.37309271812089,-84.21985887587316Q0,0,-42.227631078914754,-122.42171855297194Q0,0,96.98837538318979,-85.8108678462668Z" id="ribbon16" fill="rgb(72, 111, 176)" style="stroke: rgb(50, 78, 123);"></path><path d="M100.85504494035541,-81.23121265916747A129.5,129.5,0,0,1,101.5132194714942,-80.40719042804723Q0,0,-42.227631078914754,-122.42171855297194Q0,0,100.85504494035541,-81.23121265916747Z" id="ribbon17" fill="rgb(72, 111, 176)" style="stroke: rgb(50, 78, 123);"></path><path d="M103.879395845467,-77.32607011080269A129.5,129.5,0,0,1,105.125009235362,-75.62395409699927Q0,0,-42.227631078914754,-122.42171855297194Q0,0,103.879395845467,-77.32607011080269Z" id="ribbon18" fill="rgb(72, 111, 176)" style="stroke: rgb(50, 78, 123);"></path><path d="M107.34608485949879,-72.43664863408084A129.5,129.5,0,0,1,109.64834069304831,-68.90204193825612Q0,0,-42.227631078914754,-122.42171855297194Q0,0,107.34608485949879,-72.43664863408084Z" id="ribbon19" fill="rgb(72, 111, 176)" style="stroke: rgb(50, 78, 123);"></path><path d="M111.66575385316825,-65.58208151929641A129.5,129.5,0,0,1,112.19612878980993,-64.67053954143557Q0,0,-42.227631078914754,-122.42171855297194Q0,0,111.66575385316825,-65.58208151929641Z" id="ribbon20" fill="rgb(72, 111, 176)" style="stroke: rgb(50, 78, 123);"></path><path d="M114.08546950027092,-61.27606097737318A129.5,129.5,0,0,1,114.58069745724077,-60.34495646043881Q0,0,-42.227631078914754,-122.42171855297194Q0,0,114.08546950027092,-61.27606097737318Z" id="ribbon21" fill="rgb(72, 111, 176)" style="stroke: rgb(50, 78, 123);"></path><path d="M116.33921716409624,-56.88089793283203A129.5,129.5,0,0,1,116.79857769920616,-55.93158541863892Q0,0,-42.227631078914754,-122.42171855297194Q0,0,116.33921716409624,-56.88089793283203Z" id="ribbon22" fill="rgb(72, 111, 176)" style="stroke: rgb(50, 78, 123);"></path><path d="M118.42371816282595,-52.40298633180716A129.5,129.5,0,0,1,118.8465430126946,-51.436846850596666Q0,0,-42.227631078914754,-122.42171855297194Q0,0,118.42371816282595,-52.40298633180716Z" id="ribbon23" fill="rgb(72, 111, 176)" style="stroke: rgb(50, 78, 123);"></path><path d="M120.33594002941219,-47.8488405004522A129.5,129.5,0,0,1,120.72161408163373,-46.86727956181255Q0,0,-42.227631078914754,-122.42171855297194Q0,0,120.33594002941219,-47.8488405004522Z" id="ribbon24" fill="rgb(72, 111, 176)" style="stroke: rgb(50, 78, 123);"></path><path d="M122.073100923116,-43.22508566810172A129.5,129.5,0,0,1,122.76090630958487,-41.231176093452945Q0,0,-42.227631078914754,-122.42171855297194Q0,0,122.073100923116,-43.22508566810172Z" id="ribbon25" fill="rgb(72, 111, 176)" style="stroke: rgb(50, 78, 123);"></path><path d="M123.94241779566215,-37.53034866565363A129.5,129.5,0,0,1,126.80296274559973,-26.291797940385248Q0,0,-42.227631078914754,-122.42171855297194Q0,0,123.94241779566215,-37.53034866565363Z" id="ribbon26" fill="rgb(72, 111, 176)" style="stroke: rgb(50, 78, 123);"></path><path d="M127.53454132228062,-22.476449223920945A129.5,129.5,0,0,1,127.71335269099303,-21.437106717699187Q0,0,-42.227631078914754,-122.42171855297194Q0,0,127.53454132228062,-22.476449223920945Z" id="ribbon27" fill="rgb(72, 111, 176)" style="stroke: rgb(50, 78, 123);"></path><path d="M128.2989027313701,-17.596634846652783A129.5,129.5,0,0,1,128.6904794896424,-14.457195050421394Q0,0,-42.227631078914754,-122.42171855297194Q0,0,128.2989027313701,-17.596634846652783Z" id="ribbon28" fill="rgb(72, 111, 176)" style="stroke: rgb(50, 78, 123);"></path><path d="M129.0662239141079,-10.590554496973562A129.5,129.5,0,0,1,129.14818987725187,-9.539132635061796Q0,0,-42.227631078914754,-122.42171855297194Q0,0,129.0662239141079,-10.590554496973562Z" id="ribbon29" fill="rgb(72, 111, 176)" style="stroke: rgb(50, 78, 123);"></path><path d="M129.37620860531436,-5.660975791697025A129.5,129.5,0,0,1,129.45124737703898,-3.5531046323825572Q0,0,-42.227631078914754,-122.42171855297194Q0,0,129.37620860531436,-5.660975791697025Z" id="ribbon30" fill="rgb(72, 111, 176)" style="stroke: rgb(50, 78, 123);"></path><path d="M129.49957583528797,0.33144906169962296A129.5,129.5,0,0,1,129.4770010103034,2.44053465000764Q0,0,-42.227631078914754,-122.42171855297194Q0,0,129.49957583528797,0.33144906169962296Z" id="ribbon31" fill="rgb(72, 111, 176)" style="stroke: rgb(50, 78, 123);"></path><path d="M129.34553567197796,6.323163901803801A129.5,129.5,0,0,1,129.2897529016509,7.376299521443914Q0,0,-42.227631078914754,-122.42171855297194Q0,0,129.34553567197796,6.323163901803801Z" id="ribbon32" fill="rgb(72, 111, 176)" style="stroke: rgb(50, 78, 123);"></path><path d="M129.01032108245428,11.251091244943993A129.5,129.5,0,0,1,128.4453819363146,16.493448979345345Q0,0,-42.227631078914754,-122.42171855297194Q0,0,129.01032108245428,11.251091244943993Z" id="ribbon33" fill="rgb(72, 111, 176)" style="stroke: rgb(50, 78, 123);"></path><path d="M127.89285659714504,20.338810963822205A129.5,129.5,0,0,1,127.35783704192094,23.45701055129383Q0,0,-42.227631078914754,-122.42171855297194Q0,0,127.89285659714504,20.338810963822205Z" id="ribbon34" fill="rgb(72, 111, 176)" style="stroke: rgb(50, 78, 123);"></path><path d="M126.59692554870885,27.266617714976462A129.5,129.5,0,0,1,126.37067767994664,28.296675117600554Q0,0,-42.227631078914754,-122.42171855297194Q0,0,126.59692554870885,27.266617714976462Z" id="ribbon35" fill="rgb(72, 111, 176)" style="stroke: rgb(50, 78, 123);"></path><path d="M125.46504221565314,32.07449425672012A129.5,129.5,0,0,1,124.9260109104218,34.11365999140484Q0,0,-42.227631078914754,-122.42171855297194Q0,0,125.46504221565314,32.07449425672012Z" id="ribbon36" fill="rgb(72, 111, 176)" style="stroke: rgb(50, 78, 123);"></path><path d="M123.84654212645843,37.84552818127072A129.5,129.5,0,0,1,123.53423447354449,38.85283661504437Q0,0,-42.227631078914754,-122.42171855297194Q0,0,123.84654212645843,37.84552818127072Z" id="ribbon37" fill="rgb(72, 111, 176)" style="stroke: rgb(50, 78, 123);"></path><path d="M122.31323796863263,42.54082530497785A129.5,129.5,0,0,1,120.86282733072878,46.50190286023187Q0,0,-42.227631078914754,-122.42171855297194Q0,0,122.31323796863263,42.54082530497785Z" id="ribbon38" fill="rgb(72, 111, 176)" style="stroke: rgb(50, 78, 123);"></path><path d="M119.41359530076747,50.10631953500999A129.5,129.5,0,0,1,119.00158700156014,51.07712101430654Q0,0,-42.227631078914754,-122.42171855297194Q0,0,119.41359530076747,50.10631953500999Z" id="ribbon39" fill="rgb(72, 111, 176)" style="stroke: rgb(50, 78, 123);"></path><path d="M117.41595650986498,54.62365016065381A129.5,129.5,0,0,1,115.5746158388294,58.4188169488822Q0,0,-42.227631078914754,-122.42171855297194Q0,0,117.41595650986498,54.62365016065381Z" id="ribbon40" fill="rgb(72, 111, 176)" style="stroke: rgb(50, 78, 123);"></path><path d="M113.77030952660846,61.85924886562807A129.5,129.5,0,0,1,113.2627765686941,62.78370364951467Q0,0,-42.227631078914754,-122.42171855297194Q0,0,113.77030952660846,61.85924886562807Z" id="ribbon41" fill="rgb(72, 111, 176)" style="stroke: rgb(50, 78, 123);"></path><path d="M111.32858354620979,66.15282673926029A129.5,129.5,0,0,1,109.67932571557812,68.85270881073689Q0,0,-42.227631078914754,-122.42171855297194Q0,0,111.32858354620979,66.15282673926029Z" id="ribbon42" fill="rgb(72, 111, 176)" style="stroke: rgb(50, 78, 123);"></path><path d="M107.56470227949748,72.11161365219245A129.5,129.5,0,0,1,106.97388338805034,72.98519214799539Q0,0,-42.227631078914754,-122.42171855297194Q0,0,107.56470227949748,72.11161365219245Z" id="ribbon43" fill="rgb(72, 111, 176)" style="stroke: rgb(50, 78, 123);"></path><path d="M104.73652140493161,76.16108641553312A129.5,129.5,0,0,1,84.80888173868041,97.86574261831625Q0,0,-42.227631078914754,-122.42171855297194Q0,0,104.73652140493161,76.16108641553312Z" id="ribbon44" fill="rgb(72, 111, 176)" style="stroke: rgb(50, 78, 123);"></path><path d="M81.83518870158683,100.36559116637372A129.5,129.5,0,0,1,81.01513238477276,101.02870049979731Q0,0,-42.227631078914754,-122.42171855297194Q0,0,81.83518870158683,100.36559116637372Z" id="ribbon45" fill="rgb(72, 111, 176)" style="stroke: rgb(50, 78, 123);"></path><path d="M77.94827190307878,103.4133304140414A129.5,129.5,0,0,1,74.53882792123193,105.89718188945812Q0,0,-42.227631078914754,-122.42171855297194Q0,0,77.94827190307878,103.4133304140414Z" id="ribbon46" fill="rgb(72, 111, 176)" style="stroke: rgb(50, 78, 123);"></path><path d="M71.3288490234684,108.08536115953562A129.5,129.5,0,0,1,68.66716664744008,109.79558381197621Q0,0,-42.227631078914754,-122.42171855297194Q0,0,71.3288490234684,108.08536115953562Z" id="ribbon47" fill="rgb(72, 111, 176)" style="stroke: rgb(50, 78, 123);"></path><path d="M65.34289528343083,111.80588551582869A129.5,129.5,0,0,1,64.43022005322642,112.33430795573015Q0,0,-42.227631078914754,-122.42171855297194Q0,0,65.34289528343083,111.80588551582869Z" id="ribbon48" fill="rgb(72, 111, 176)" style="stroke: rgb(50, 78, 123);"></path><path d="M61.031704871623866,114.21637798697262A129.5,129.5,0,0,1,60.09954238413364,114.70961165141186Q0,0,-42.227631078914754,-122.42171855297194Q0,0,61.031704871623866,114.21637798697262Z" id="ribbon49" fill="rgb(72, 111, 176)" style="stroke: rgb(50, 78, 123);"></path><path d="M56.63172743884139,116.46071203325515A129.5,129.5,0,0,1,50.87584235436161,119.0877771424681Q0,0,-42.227631078914754,-122.42171855297194Q0,0,56.63172743884139,116.46071203325515Z" id="ribbon50" fill="rgb(72, 111, 176)" style="stroke: rgb(50, 78, 123);"></path><path d="M47.28085249891868,120.56023800148827A129.5,129.5,0,0,1,45.31104462210633,121.3142993849179Q0,0,-42.227631078914754,-122.42171855297194Q0,0,47.28085249891868,120.56023800148827Z" id="ribbon51" fill="rgb(72, 111, 176)" style="stroke: rgb(50, 78, 123);"></path><path d="M41.65177308946235,122.61883949256712A129.5,129.5,0,0,1,40.651826502724944,122.95397107044714Q0,0,-42.227631078914754,-122.42171855297194Q0,0,41.65177308946235,122.61883949256712Z" id="ribbon52" fill="rgb(72, 111, 176)" style="stroke: rgb(50, 78, 123);"></path><path d="M36.94546868861549,124.11801780313176A129.5,129.5,0,0,1,30.839073834387083,125.77440727364697Q0,0,-42.227631078914754,-122.42171855297194Q0,0,36.94546868861549,124.11801780313176Z" id="ribbon53" fill="rgb(72, 111, 176)" style="stroke: rgb(50, 78, 123);"></path><path d="M27.0525310331037,126.64284648057688A129.5,129.5,0,0,1,26.02029843786492,126.8589534451725Q0,0,-42.227631078914754,-122.42171855297194Q0,0,27.0525310331037,126.64284648057688Z" id="ribbon54" fill="rgb(72, 111, 176)" style="stroke: rgb(50, 78, 123);"></path><path d="M22.20339241797357,127.58236306454539A129.5,129.5,0,0,1,21.16366952261751,127.75894916731835Q0,0,-42.227631078914754,-122.42171855297194Q0,0,22.20339241797357,127.58236306454539Z" id="ribbon55" fill="rgb(72, 111, 176)" style="stroke: rgb(50, 78, 123);"></path><path d="M17.32195299996585,128.33627680537944A129.5,129.5,0,0,1,15.229472277579944,128.6013731425385Q0,0,-42.227631078914754,-122.42171855297194Q0,0,17.32195299996585,128.33627680537944Z" id="ribbon56" fill="rgb(72, 111, 176)" style="stroke: rgb(50, 78, 123);"></path><path d="M11.365157014896095,129.00032250357654A129.5,129.5,0,0,1,-2.3300702556489186,129.4790360351966Q0,0,-42.227631078914754,-122.42171855297194Q0,0,11.365157014896095,129.00032250357654Z" id="ribbon57" fill="rgb(72, 111, 176)" style="stroke: rgb(50, 78, 123);"></path><path d="M-6.212810254284046,129.350883215942A129.5,129.5,0,0,1,-9.370843275159572,129.16050981748407Q0,0,-42.227631078914754,-122.42171855297194Q0,0,-6.212810254284046,129.350883215942Z" id="ribbon58" fill="rgb(72, 111, 176)" style="stroke: rgb(50, 78, 123);"></path><path d="M-13.240860810326984,128.82130881574503A129.5,129.5,0,0,1,-14.289497916277586,128.70920809833575Q0,0,-42.227631078914754,-122.42171855297194Q0,0,-13.240860810326984,128.82130881574503Z" id="ribbon59" fill="rgb(72, 111, 176)" style="stroke: rgb(50, 78, 123);"></path><path d="M-18.14376520204801,128.2226726608557A129.5,129.5,0,0,1,-21.270676863267056,127.74117701735207Q0,0,-42.227631078914754,-122.42171855297194Q0,0,-18.14376520204801,128.2226726608557Z" id="ribbon60" fill="rgb(72, 111, 176)" style="stroke: rgb(50, 78, 123);"></path><path d="M-25.092766277633388,127.04567320667032A129.5,129.5,0,0,1,-26.12655021107515,126.83711355146872Q0,0,-42.227631078914754,-122.42171855297194Q0,0,-25.092766277633388,127.04567320667032Z" id="ribbon61" fill="rgb(72, 111, 176)" style="stroke: rgb(50, 78, 123);"></path><path d="M-29.919336810441802,125.99636218884791A129.5,129.5,0,0,1,-30.944415468391792,125.74853140820197Q0,0,-42.227631078914754,-122.42171855297194Q0,0,-29.919336810441802,125.99636218884791Z" id="ribbon62" fill="rgb(72, 111, 176)" style="stroke: rgb(50, 78, 123);"></path><path d="M-34.70238162509194,124.76375559250563A129.5,129.5,0,0,1,-38.747429049592675,123.56733687365275Q0,0,-42.227631078914754,-122.42171855297194Q0,0,-34.70238162509194,124.76375559250563Z" id="ribbon63" fill="rgb(72, 111, 176)" style="stroke: rgb(50, 78, 123);"></path><path d="M-42.43645809242233,122.34948722642888A129.5,129.5,0,0,1,-43.43142279328785,121.99984227100737Q0,0,-42.227631078914754,-122.42171855297194Q0,0,-42.43645809242233,122.34948722642888Z" id="ribbon64" fill="rgb(72, 111, 176)" style="stroke: rgb(50, 78, 123);"></path><path d="M-47.07132641234184,120.64219920816583A129.5,129.5,0,0,1,-49.02995446887198,119.85955766971752Q0,0,-42.227631078914754,-122.42171855297194Q0,0,-47.07132641234184,120.64219920816583Z" id="ribbon65" fill="rgb(72, 111, 176)" style="stroke: rgb(50, 78, 123);"></path><path d="M-52.60314003042534,118.33494690470548A129.5,129.5,0,0,1,-53.56507457551617,117.90264113122907Q0,0,-42.227631078914754,-122.42171855297194Q0,0,-52.60314003042534,118.33494690470548Z" id="ribbon66" fill="rgb(72, 111, 176)" style="stroke: rgb(50, 78, 123);"></path><path d="M-57.077520795650756,116.24287771653822A129.5,129.5,0,0,1,-58.02226988209301,115.77420350721296Q0,0,-42.227631078914754,-122.42171855297194Q0,0,-57.077520795650756,116.24287771653822Z" id="ribbon67" fill="rgb(72, 111, 176)" style="stroke: rgb(50, 78, 123);"></path><path d="M-61.46886696358329,113.98170201489931A129.5,129.5,0,0,1,-62.39505619986799,113.47734118234933Q0,0,-42.227631078914754,-122.42171855297194Q0,0,-61.46886696358329,113.98170201489931Z" id="ribbon68" fill="rgb(72, 111, 176)" style="stroke: rgb(50, 78, 123);"></path><path d="M-65.77079014076182,111.55470928768479A129.5,129.5,0,0,1,-66.6770721356712,111.01539556032083Q0,0,-42.227631078914754,-122.42171855297194Q0,0,-65.77079014076182,111.55470928768479Z" id="ribbon69" fill="rgb(72, 111, 176)" style="stroke: rgb(50, 78, 123);"></path><path d="M-69.97703202350354,108.96543024822854A129.5,129.5,0,0,1,-75.21571318848903,105.41748664024843Q0,0,-42.227631078914754,-122.42171855297194Q0,0,-69.97703202350354,108.96543024822854Z" id="ribbon70" fill="rgb(72, 111, 176)" style="stroke: rgb(50, 78, 123);"></path><path d="M-78.34391889787251,103.11391938881759A129.5,129.5,0,0,1,-80.01291998662259,101.82427331051439Q0,0,-42.227631078914754,-122.42171855297194Q0,0,-78.34391889787251,103.11391938881759Z" id="ribbon71" fill="rgb(72, 111, 176)" style="stroke: rgb(50, 78, 123);"></path><path d="M-83.03118688368814,99.37842826632978A129.5,129.5,0,0,1,-84.63872718426072,98.01293721049424Q0,0,-42.227631078914754,-122.42171855297194Q0,0,-83.03118688368814,99.37842826632978Z" id="ribbon72" fill="rgb(72, 111, 176)" style="stroke: rgb(50, 78, 123);"></path><path d="M-87.54058969144369,95.43005373819247A129.5,129.5,0,0,1,-89.8457070273742,93.26306304615586Q0,0,-42.227631078914754,-122.42171855297194Q0,0,-87.54058969144369,95.43005373819247Z" id="ribbon73" fill="rgb(72, 111, 176)" style="stroke: rgb(50, 78, 123);"></path><path d="M-92.60275171789984,90.5261308919861A129.5,129.5,0,0,1,-98.98318950818165,83.50196521512173Q0,0,-42.227631078914754,-122.42171855297194Q0,0,-92.60275171789984,90.5261308919861Z" id="ribbon74" fill="rgb(72, 111, 176)" style="stroke: rgb(50, 78, 123);"></path><path d="M-101.44333362800438,80.49534186794534A129.5,129.5,0,0,1,-102.74088732673431,78.83248106786495Q0,0,-42.227631078914754,-122.42171855297194Q0,0,-101.44333362800438,80.49534186794534Z" id="ribbon75" fill="rgb(72, 111, 176)" style="stroke: rgb(50, 78, 123);"></path><path d="M-105.0592770966726,75.71524480528714A129.5,129.5,0,0,1,-114.00648276437656,61.42289384013026Q0,0,-42.227631078914754,-122.42171855297194Q0,0,-105.0592770966726,75.71524480528714Z" id="ribbon76" fill="rgb(72, 111, 176)" style="stroke: rgb(50, 78, 123);"></path><path d="M-115.79759411935547,57.975574134017975A129.5,129.5,0,0,1,-118.49108821686406,52.250473808218615Q0,0,-42.227631078914754,-122.42171855297194Q0,0,-115.79759411935547,57.975574134017975Z" id="ribbon77" fill="rgb(72, 111, 176)" style="stroke: rgb(50, 78, 123);"></path><path d="M-120.00505032381565,48.672763397802605A129.5,129.5,0,0,1,-120.78185507626428,46.71181311334738Q0,0,-42.227631078914754,-122.42171855297194Q0,0,-120.00505032381565,48.672763397802605Z" id="ribbon78" fill="rgb(72, 111, 176)" style="stroke: rgb(50, 78, 123);"></path><path d="M-122.12865151744565,43.067882215524854A129.5,129.5,0,0,1,-124.38407117876359,36.03960095500882Q0,0,-42.227631078914754,-122.42171855297194Q0,0,-122.12865151744565,43.067882215524854Z" id="ribbon79" fill="rgb(72, 111, 176)" style="stroke: rgb(50, 78, 123);"></path><path d="M-125.40912840231344,32.29242191864925A129.5,129.5,0,0,1,-125.66794813579531,31.270062541335907Q0,0,-42.227631078914754,-122.42171855297194Q0,0,-125.40912840231344,32.29242191864925Z" id="ribbon80" fill="rgb(72, 111, 176)" style="stroke: rgb(50, 78, 123);"></path><path d="M-126.54936296759091,27.486519104770764A129.5,129.5,0,0,1,-126.76900728082997,26.455033415833743Q0,0,-42.227631078914754,-122.42171855297194Q0,0,-126.54936296759091,27.486519104770764Z" id="ribbon81" fill="rgb(72, 111, 176)" style="stroke: rgb(50, 78, 123);"></path><path d="M-127.5054974660609,22.640629760064872A129.5,129.5,0,0,1,-128.45915228847866,16.385853451238074Q0,0,-42.227631078914754,-122.42171855297194Q0,0,-127.5054974660609,22.640629760064872Z" id="ribbon82" fill="rgb(72, 111, 176)" style="stroke: rgb(50, 78, 123);"></path><path d="M-128.89285187582985,12.525283841709463A129.5,129.5,0,0,1,-129.07975215199306,10.424374531838643Q0,0,-42.227631078914754,-122.42171855297194Q0,0,-128.89285187582985,12.525283841709463Z" id="ribbon83" fill="rgb(72, 111, 176)" style="stroke: rgb(50, 78, 123);"></path><path d="M-129.33435494821626,6.54787218329817A129.5,129.5,0,0,1,-129.38338981388137,5.494400810754363Q0,0,-42.227631078914754,-122.42171855297194Q0,0,-129.33435494821626,6.54787218329817Z" id="ribbon84" fill="rgb(72, 111, 176)" style="stroke: rgb(50, 78, 123);"></path><path d="M-129.4899789556551,1.6110090204581022A129.5,129.5,0,0,1,-129.49069057797155,-1.5527567871474959Q0,0,-42.227631078914754,-122.42171855297194Q0,0,-129.4899789556551,1.6110090204581022Z" id="ribbon85" fill="rgb(72, 111, 176)" style="stroke: rgb(50, 78, 123);"></path><path d="M-129.38584842086783,-5.436196134450129A129.5,129.5,0,0,1,-129.3372874724234,-6.489689459111614Q0,0,-42.227631078914754,-122.42171855297194Q0,0,-129.38584842086783,-5.436196134450129Z" id="ribbon86" fill="rgb(72, 111, 176)" style="stroke: rgb(50, 78, 123);"></path><path d="M-129.0844285765784,-10.36630595044481A129.5,129.5,0,0,1,-128.89847342965743,-12.467299126270321Q0,0,-42.227631078914754,-122.42171855297194Q0,0,-129.0844285765784,-10.36630595044481Z" id="ribbon87" fill="rgb(72, 111, 176)" style="stroke: rgb(50, 78, 123);"></path><path d="M-128.46651059334042,-16.328063448282926A129.5,129.5,0,0,1,-128.32928053078703,-17.373708828300323Q0,0,-42.227631078914754,-122.42171855297194Q0,0,-128.46651059334042,-16.328063448282926Z" id="ribbon88" fill="rgb(72, 111, 176)" style="stroke: rgb(50, 78, 123);"></path><path d="M-127.75040359885409,-21.21519220582005A129.5,129.5,0,0,1,-126.9916675900477,-25.36466760473768Q0,0,-42.227631078914754,-122.42171855297194Q0,0,-127.75040359885409,-21.21519220582005Z" id="ribbon89" fill="rgb(72, 111, 176)" style="stroke: rgb(50, 78, 123);"></path><path d="M-126.17369973319823,-29.16243295125997A129.5,129.5,0,0,1,-125.93202703520544,-30.188980883830588Q0,0,-42.227631078914754,-122.42171855297194Q0,0,-126.17369973319823,-29.16243295125997Z" id="ribbon90" fill="rgb(72, 111, 176)" style="stroke: rgb(50, 78, 123);"></path><path d="M-124.9698282909039,-33.95279100371563A129.5,129.5,0,0,1,-123.48410953399966,-39.011853232000846Q0,0,-42.227631078914754,-122.42171855297194Q0,0,-124.9698282909039,-33.95279100371563Z" id="ribbon91" fill="rgb(72, 111, 176)" style="stroke: rgb(50, 78, 123);"></path><path d="M-122.25836580065281,-42.6982668471891A129.5,129.5,0,0,1,-104.07816403673297,-77.05832706945371Q0,0,-42.227631078914754,-122.42171855297194Q0,0,-122.25836580065281,-42.6982668471891Z" id="ribbon92" fill="rgb(72, 111, 176)" style="stroke: rgb(50, 78, 123);"></path><path d="M-101.71992931023331,-80.1455300133522A129.5,129.5,0,0,1,-97.68397326102557,-85.0181825725488Q0,0,-42.227631078914754,-122.42171855297194Q0,0,-101.71992931023331,-80.1455300133522Z" id="ribbon93" fill="rgb(72, 111, 176)" style="stroke: rgb(50, 78, 123);"></path><path d="M-95.08985585722259,-87.91000689940041A129.5,129.5,0,0,1,-94.37079398366743,-88.68147068521249Q0,0,-42.227631078914754,-122.42171855297194Q0,0,-95.08985585722259,-87.91000689940041Z" id="ribbon94" fill="rgb(72, 111, 176)" style="stroke: rgb(50, 78, 123);"></path><path d="M-91.6682852393976,-91.47226618636077A129.5,129.5,0,0,1,-83.92344257272653,-98.62609080127972Q0,0,-42.227631078914754,-122.42171855297194Q0,0,-91.6682852393976,-91.47226618636077Z" id="ribbon95" fill="rgb(72, 111, 176)" style="stroke: rgb(50, 78, 123);"></path><path d="M-80.92734092929885,-101.09903802763422A129.5,129.5,0,0,1,-79.27003029221498,-102.40367326161362Q0,0,-42.227631078914754,-122.42171855297194Q0,0,-80.92734092929885,-101.09903802763422Z" id="ribbon96" fill="rgb(72, 111, 176)" style="stroke: rgb(50, 78, 123);"></path><path d="M-76.16271205181171,-104.73533927434816A129.5,129.5,0,0,1,-73.5814241379485,-106.56464714825142Q0,0,-42.227631078914754,-122.42171855297194Q0,0,-76.16271205181171,-104.73533927434816Z" id="ribbon97" fill="rgb(72, 111, 176)" style="stroke: rgb(50, 78, 123);"></path><path d="M-70.35185508527071,-108.72380827611342A129.5,129.5,0,0,1,-69.4641131282745,-109.29312415381986Q0,0,-42.227631078914754,-122.42171855297194Q0,0,-70.35185508527071,-108.72380827611342Z" id="ribbon98" fill="rgb(72, 111, 176)" style="stroke: rgb(50, 78, 123);"></path><path d="M-66.15455469402295,-111.32755675588828A129.5,129.5,0,0,1,-63.415213517007466,-112.91041003641938Q0,0,-42.227631078914754,-122.42171855297194Q0,0,-66.15455469402295,-111.32755675588828Z" id="ribbon99" fill="rgb(72, 111, 176)" style="stroke: rgb(50, 78, 123);"></path><path d="M-59.999874584012744,-114.76177521240574A129.5,129.5,0,0,1,-58.12281789732359,-115.72375745573837Q0,0,-42.227631078914754,-122.42171855297194Q0,0,-59.999874584012744,-114.76177521240574Z" id="ribbon100" fill="rgb(72, 111, 176)" style="stroke: rgb(50, 78, 123);"></path><path d="M-54.62547260065886,-117.41510866645173A129.5,129.5,0,0,1,-45.8807307537146,-121.09999399465364Q0,0,-42.227631078914754,-122.42171855297194Q0,0,-54.62547260065886,-117.41510866645173Z" id="ribbon101" fill="rgb(72, 111, 176)" style="stroke: rgb(50, 78, 123);"></path><path d="M-38.53652938642347,-123.63327182781066A129.5,129.5,0,0,1,-36.51783155184773,-124.24450884747733Q0,0,-42.227631078914754,-122.42171855297194Q0,0,-38.53652938642347,-123.63327182781066Z" id="ribbon102" fill="rgb(72, 111, 176)" style="stroke: rgb(50, 78, 123);"></path><path d="M-32.77462356979573,-125.28397363533051A129.5,129.5,0,0,1,-30.729805386632854,-125.80114888545204Q0,0,-42.227631078914754,-122.42171855297194Q0,0,-32.77462356979573,-125.28397363533051Z" id="ribbon103" fill="rgb(72, 111, 176)" style="stroke: rgb(50, 78, 123);"></path><path d="M-26.94250962444089,-126.66629849781239A129.5,129.5,0,0,1,-25.910089692407762,-126.88150870844571Q0,0,-42.227631078914754,-122.42171855297194Q0,0,-26.94250962444089,-126.66629849781239Z" id="ribbon104" fill="rgb(72, 111, 176)" style="stroke: rgb(50, 78, 123);"></path><path d="M-22.092556706328303,-127.60160241226467A129.5,129.5,0,0,1,-20.011408691055866,-127.94449391122517Q0,0,-42.227631078914754,-122.42171855297194Q0,0,-22.092556706328303,-127.60160241226467Z" id="ribbon105" fill="rgb(72, 111, 176)" style="stroke: rgb(50, 78, 123);"></path><path d="M-16.16464513948728,-128.48717542040706A129.5,129.5,0,0,1,-9.869650011057344,-129.12335191071844Q0,0,-42.227631078914754,-122.42171855297194Q0,0,-16.16464513948728,-128.48717542040706Z" id="ribbon106" fill="rgb(72, 111, 176)" style="stroke: rgb(50, 78, 123);"></path><path d="M-5.992089473258157,-129.36129584904626A129.5,129.5,0,0,1,-3.8844172762219795,-129.4417293704939Q0,0,-42.227631078914754,-122.42171855297194Q0,0,-5.992089473258157,-129.36129584904626Z" id="ribbon107" fill="rgb(72, 111, 176)" style="stroke: rgb(50, 78, 123);"></path></g></g></g></g></svg>