<svg width="750" height="450" style="display: block; touch-action: none;" xmlns="http://www.w3.org/2000/svg" xmlns:xlink="http://www.w3.org/1999/xlink"><rect fill="white" x="0" y="0" width="750" height="450" style="pointer-events: none;"></rect><g transform="matrix(0.8396192830323015,0,0,0.8396192830323015,70.38290184777304,57.59978090438216)"><g width="750" height="450"><g transform="translate(375,225)"><g class="groups"><g><path id="arc0" fill="rgb(165, 0, 38)" style="stroke: rgb(115, 0, 27);" d="M1.1327982892113017e-14,-185A185,185,0,0,1,32.96800146906736,-182.03876202373925L25.055681116491193,-138.34945913804182A140.6,140.6,0,0,0,8.609266998005892e-15,-140.6Z"></path><g transform="rotate(-84.86737618671776) translate(185,0)"><text id="text0" x="6" style="font-size: 7pt;">unhappiness</text></g></g><g><path id="arc1" fill="rgb(170, 4, 38)" style="stroke: rgb(119, 3, 27);" d="M38.41351070418809,-180.96795902971118A185,185,0,0,1,39.885977362136686,-180.64913177169473L30.313342795223882,-137.293340146488A140.6,140.6,0,0,0,29.19426813518295,-137.5356488625805Z"></path><g transform="rotate(-77.78257790562112) translate(185,0)"><text id="text1" x="6" style="font-size: 7pt;">suicide</text></g></g><g><path id="arc2" fill="rgb(174, 9, 38)" style="stroke: rgb(122, 6, 27);" d="M45.28669108707362,-179.37144591708002A185,185,0,0,1,46.74592837918253,-178.996698796286L35.52690556817873,-136.03749108517735A140.6,140.6,0,0,0,34.41788522617595,-136.3222988969808Z"></path><g transform="rotate(-75.59710235538482) translate(185,0)"><text id="text2" x="6" style="font-size: 7pt;">landscape</text></g></g><g><path id="arc3" fill="rgb(179, 13, 38)" style="stroke: rgb(125, 9, 27);" d="M52.09398980402966,-177.51398881862144A185,185,0,0,1,54.978209308132456,-176.64200095467436L41.78343907418066,-134.2479207255525A140.6,140.6,0,0,0,39.59143225106254,-134.91063150215228Z"></path><g transform="rotate(-73.1783257227266) translate(185,0)"><text id="text3" x="6" style="font-size: 7pt;">revolution</text></g></g><g><path id="arc4" fill="rgb(183, 18, 39)" style="stroke: rgb(128, 13, 27);" d="M60.251936144807836,-174.9134191272985A185,185,0,0,1,61.67437255993171,-174.41694805648544L46.8725231455481,-132.55688052292894A140.6,140.6,0,0,0,45.791471470053956,-132.93419853674686Z"></path><g transform="rotate(-70.75954909006836) translate(185,0)"><text id="text4" x="6" style="font-size: 7pt;">romantic relationship</text></g></g><g><path id="arc5" fill="rgb(188, 22, 39)" style="stroke: rgb(132, 15, 27);" d="M66.87834477447437,-172.48851266164522A185,185,0,0,1,72.46068018380016,-170.21882923842776L55.07011693968812,-129.36631022120508A140.6,140.6,0,0,0,50.82754202860052,-131.09126962285035Z"></path><g transform="rotate(-67.8741702925663) translate(185,0)"><text id="text5" x="6" style="font-size: 7pt;">mores</text></g></g><g><path id="arc6" fill="rgb(192, 27, 39)" style="stroke: rgb(134, 19, 27);" d="M77.53387425008184,-167.96874216285747A185,185,0,0,1,80.25925823559693,-166.683686866687L60.997036259053665,-126.67960201868212A140.6,140.6,0,0,0,58.925744430062196,-127.65624404377168Z"></path><g transform="rotate(-64.7554904126423) translate(185,0)"><text id="text6" x="6" style="font-size: 7pt;">affection</text></g></g><g><path id="arc7" fill="rgb(196, 32, 40)" style="stroke: rgb(137, 22, 28);" d="M85.22290484122202,-164.20126823634467A185,185,0,0,1,86.557277165447,-163.50179745098825L65.78353064573972,-124.26136606275107A140.6,140.6,0,0,0,64.76940767932874,-124.79296385962195Z"></path><g transform="rotate(-62.33671377998408) translate(185,0)"><text id="text7" x="6" style="font-size: 7pt;">state of nature</text></g></g><g><path id="arc8" fill="rgb(201, 36, 41)" style="stroke: rgb(141, 25, 29);" d="M91.42264751049255,-160.83189833541178A185,185,0,0,1,92.72937526776268,-160.08205071915603L70.47432520349963,-121.66235854655858A140.6,140.6,0,0,0,69.48121210797434,-122.23224273491294Z"></path><g transform="rotate(-60.151238229747776) translate(185,0)"><text id="text8" x="6" style="font-size: 7pt;">royal court</text></g></g><g><path id="arc9" fill="rgb(205, 41, 41)" style="stroke: rgb(144, 29, 29);" d="M97.48939136317712,-157.22855520431804A185,185,0,0,1,98.76657356670138,-156.42942161209112L75.06259591069305,-118.88636042518924A140.6,140.6,0,0,0,74.0919374360146,-119.49370195528171Z"></path><g transform="rotate(-57.96576267951147) translate(185,0)"><text id="text9" x="6" style="font-size: 7pt;">taste</text></g></g><g><path id="arc10" fill="rgb(209, 46, 42)" style="stroke: rgb(146, 32, 29);" d="M103.41431068950999,-153.39648087428048A185,185,0,0,1,107.1307412298825,-150.8244154092299L81.4193633347107,-114.62655571101473A140.6,140.6,0,0,0,78.59487612402759,-116.58132546445316Z"></path><g transform="rotate(-55.31368496443132) translate(185,0)"><text id="text10" x="6" style="font-size: 7pt;">art criticism</text></g></g><g><path id="arc11" fill="rgb(212, 51, 44)" style="stroke: rgb(148, 36, 31);" d="M111.60658979483195,-147.54310934221263A185,185,0,0,1,113.9947868930547,-145.70582885117204L86.63603803872157,-110.73642992689075A140.6,140.6,0,0,0,84.82100824407227,-112.13276310008159Z"></path><g transform="rotate(-52.42830616692924) translate(185,0)"><text id="text11" x="6" style="font-size: 7pt;">romantic love</text></g></g><g><path id="arc12" fill="rgb(216, 56, 45)" style="stroke: rgb(151, 39, 31);" d="M118.3140123049716,-142.22093549227915A185,185,0,0,1,119.46828709881169,-141.25271104540226L90.79589819509688,-107.35206039450571A140.6,140.6,0,0,0,89.91864935177841,-108.08791097413214Z"></path><g transform="rotate(-50.00952953427102) translate(185,0)"><text id="text12" x="6" style="font-size: 7pt;">sensibility</text></g></g><g><path id="arc13" fill="rgb(219, 62, 47)" style="stroke: rgb(153, 43, 33);" d="M123.65147612431639,-137.60564106270357A185,185,0,0,1,124.767988566112,-136.5941032005648L94.82367131024512,-103.81151843242924A140.6,140.6,0,0,0,93.97512185448045,-104.5802872076547Z"></path><g transform="rotate(-47.8240539840347) translate(185,0)"><text id="text13" x="6" style="font-size: 7pt;">disease</text></g></g><g><path id="arc14" fill="rgb(222, 67, 49)" style="stroke: rgb(155, 47, 34);" d="M128.80905563226278,-132.79016223773743A185,185,0,0,1,129.886181454532,-131.73678251407384L98.7134979054443,-100.11995471069612A140.6,140.6,0,0,0,97.89488228051972,-100.92052330068044Z"></path><g transform="rotate(-45.63857843379839) translate(185,0)"><text id="text14" x="6" style="font-size: 7pt;">violence</text></g></g><g><path id="arc15" fill="rgb(225, 72, 51)" style="stroke: rgb(158, 50, 36);" d="M133.7792477429816,-127.78150442580473A185,185,0,0,1,134.81541997666827,-126.68781526458868L102.45971918226789,-96.2827396010874A140.6,140.6,0,0,0,101.67222828466602,-97.11394336361158Z"></path><g transform="rotate(-43.45310288356208) translate(185,0)"><text id="text15" x="6" style="font-size: 7pt;">incest</text></g></g><g><path id="arc16" fill="rgb(228, 78, 53)" style="stroke: rgb(160, 55, 37);" d="M138.55482197598542,-122.58695406609543A185,185,0,0,1,140.53298959731558,-120.31408410839022L106.80507209395982,-91.43870392237656A140.6,140.6,0,0,0,105.3016647017489,-93.16608509023253Z"></path><g transform="rotate(-41.03432625090385) translate(185,0)"><text id="text16" x="6" style="font-size: 7pt;">correspondence</text></g></g><g><path id="arc17" fill="rgb(231, 83, 55)" style="stroke: rgb(162, 58, 39);" d="M144.07863562907917,-116.04458951309638A185,185,0,0,1,145.01888495927741,-114.86741489721034L110.21435256905085,-87.29923532187985A140.6,140.6,0,0,0,109.49976307810016,-88.19388802995324Z"></path><g transform="rotate(-38.615549618245616) translate(185,0)"><text id="text17" x="6" style="font-size: 7pt;">Alps</text></g></g><g><path id="arc18" fill="rgb(233, 89, 58)" style="stroke: rgb(163, 62, 41);" d="M148.39913692209572,-110.46581444400384A185,185,0,0,1,150.1785846219457,-108.03422013857039L114.13572431267873,-82.1060073053135A140.6,140.6,0,0,0,112.78334406079274,-83.95401897744291Z"></path><g transform="rotate(-36.196772985587394) translate(185,0)"><text id="text18" x="6" style="font-size: 7pt;">utopia</text></g></g><g><path id="arc19" fill="rgb(236, 95, 60)" style="stroke: rgb(165, 67, 42);" d="M153.351549799284,-103.48092662011548A185,185,0,0,1,156.64048670435471,-98.43148848322302L119.04676989530958,-74.8079312472495A140.6,140.6,0,0,0,116.54717784745583,-78.64550423128776Z"></path><g transform="rotate(-33.0780931056634) translate(185,0)"><text id="text19" x="6" style="font-size: 7pt;">dialogue</text></g></g><g><path id="arc20" fill="rgb(238, 100, 63)" style="stroke: rgb(167, 70, 44);" d="M159.52250550452607,-93.68868788470917A185,185,0,0,1,160.28018398544276,-92.38648505919367L121.81293982893649,-70.21372864498719A140.6,140.6,0,0,0,121.23710418343981,-71.20340279237897Z"></path><g transform="rotate(-30.19271430816132) translate(185,0)"><text id="text20" x="6" style="font-size: 7pt;">superstition</text></g></g><g><path id="arc21" fill="rgb(240, 106, 66)" style="stroke: rgb(168, 74, 46);" d="M162.97924214324416,-87.53722996767597A185,185,0,0,1,163.68671065320112,-86.20708065776974L124.40190009643284,-65.517381299905A140.6,140.6,0,0,0,123.86422402886556,-66.52829477543374Z"></path><g transform="rotate(-28.007238757925002) translate(185,0)"><text id="text21" x="6" style="font-size: 7pt;">nobility</text></g></g><g><path id="arc22" fill="rgb(241, 112, 68)" style="stroke: rgb(169, 78, 48);" d="M166.1988816629946,-81.25842561833147A185,185,0,0,1,166.85511099886594,-79.90226488376987L126.80988435913811,-60.725721311665104A140.6,140.6,0,0,0,126.3111500638759,-61.75640346993192Z"></path><g transform="rotate(-25.82176320768869) translate(185,0)"><text id="text22" x="6" style="font-size: 7pt;">property</text></g></g><g><path id="arc23" fill="rgb(243, 118, 71)" style="stroke: rgb(170, 83, 50);" d="M169.1767402326085,-74.8614090454388A185,185,0,0,1,169.78077573242084,-73.48120978656667L129.03338955663983,-55.84571943779066A140.6,140.6,0,0,0,128.57432257678246,-56.89467087453349Z"></path><g transform="rotate(-23.63628765745237) translate(185,0)"><text id="text23" x="6" style="font-size: 7pt;">France</text></g></g><g><path id="arc24" fill="rgb(244, 124, 74)" style="stroke: rgb(171, 87, 52);" d="M171.90848575630312,-68.35548642921742A185,185,0,0,1,172.45944868804818,-66.95325651687509L131.06918100291662,-50.88447495282506A140.6,140.6,0,0,0,130.65044917479037,-51.95016968620524Z"></path><g transform="rotate(-21.450812107216052) translate(185,0)"><text id="text24" x="6" style="font-size: 7pt;">social criticism</text></g></g><g><path id="arc25" fill="rgb(246, 130, 77)" style="stroke: rgb(172, 91, 54);" d="M174.39014417588,-61.750122383002456A185,185,0,0,1,175.37272329940694,-58.90168013350421L133.28326970754927,-44.765276901463196A140.6,140.6,0,0,0,132.5365095736688,-46.930093011081865Z"></path><g transform="rotate(-19.03203547455783) translate(185,0)"><text id="text25" x="6" style="font-size: 7pt;">evil</text></g></g><g><path id="arc26" fill="rgb(247, 135, 79)" style="stroke: rgb(173, 95, 55);" d="M177.06059685094593,-53.61478380807661A185,185,0,0,1,181.14708963657105,-37.55971134340749L137.671788123794,-28.545380620989697A140.6,140.6,0,0,0,134.5660536067189,-40.74723569413822Z"></path><g transform="rotate(-14.280248017680407) translate(185,0)"><text id="text26" x="6" style="font-size: 7pt;">virtue</text></g></g><g><path id="arc27" fill="rgb(248, 141, 82)" style="stroke: rgb(174, 99, 57);" d="M182.1922018889723,-32.10921317702992A185,185,0,0,1,182.44764670141862,-30.624438168141698L138.66021149307815,-23.274573007787687A140.6,140.6,0,0,0,138.46607343561897,-24.40300201454274Z"></path><g transform="rotate(-9.761761643224887) translate(185,0)"><text id="text27" x="6" style="font-size: 7pt;">economy</text></g></g><g><path id="arc28" fill="rgb(249, 147, 85)" style="stroke: rgb(174, 103, 59);" d="M183.28414675910014,-25.138049780932548A185,185,0,0,1,183.84354212806056,-20.653135786316277L139.72109201732604,-15.696383197600369A140.6,140.6,0,0,0,139.2959515369161,-19.104917833508736Z"></path><g transform="rotate(-7.109683928144733) translate(185,0)"><text id="text28" x="6" style="font-size: 7pt;">gallantry</text></g></g><g><path id="arc29" fill="rgb(250, 153, 88)" style="stroke: rgb(175, 107, 62);" d="M184.38031987729698,-15.12936356710509A185,185,0,0,1,184.49741411035978,-13.627332335802565L140.21803472387344,-10.356772575209948A140.6,140.6,0,0,0,140.12904310674568,-11.498316310999869Z"></path><g transform="rotate(-4.4576062130645795) translate(185,0)"><text id="text29" x="6" style="font-size: 7pt;">miracle</text></g></g><g><path id="arc30" fill="rgb(250, 158, 92)" style="stroke: rgb(175, 111, 64);" d="M184.8231551504491,-8.087108273852893A185,185,0,0,1,184.93035339576997,-5.07586376054651L140.54706858078518,-3.857656458015348A140.6,140.6,0,0,0,140.46559791434132,-6.146202288128198Z"></path><g transform="rotate(-2.038829580406343) translate(185,0)"><text id="text30" x="6" style="font-size: 7pt;">individualism</text></g></g><g><path id="arc31" fill="rgb(251, 164, 95)" style="stroke: rgb(176, 115, 67);" d="M184.99939405041138,0.47349865957088993A185,185,0,0,1,184.96714430043346,3.4864780714394863L140.57502966832942,2.649723334294009A140.6,140.6,0,0,0,140.59953947831264,0.35985898127387633Z"></path><g transform="rotate(0.6132481346737961) translate(185,0)"><text id="text31" x="6" style="font-size: 7pt;">rural area</text></g></g><g><path id="arc32" fill="rgb(251, 169, 98)" style="stroke: rgb(176, 118, 69);" d="M184.77933667425424,9.033091288291144A185,185,0,0,1,184.6996470023584,10.537570744919877L140.3717317217924,8.008553766139107A140.6,140.6,0,0,0,140.4322958724332,6.865149379101269Z"></path><g transform="rotate(3.032024767332018) translate(185,0)"><text id="text32" x="6" style="font-size: 7pt;">reason</text></g></g><g><path id="arc33" fill="rgb(252, 175, 102)" style="stroke: rgb(176, 122, 71);" d="M184.3004586892204,16.07298749277713A185,185,0,0,1,183.4934027661637,23.56206997049335L139.4549861022844,17.907173177574947A140.6,140.6,0,0,0,140.0683486038075,12.215470494510619Z"></path><g transform="rotate(6.1507046472560205) translate(185,0)"><text id="text33" x="6" style="font-size: 7pt;">correspondence</text></g></g><g><path id="arc34" fill="rgb(252, 180, 106)" style="stroke: rgb(176, 126, 74);" d="M182.70408085306434,29.055444234031718A185,185,0,0,1,181.9397672027442,33.510015073276904L138.2742230740856,25.467611455690445A140.6,140.6,0,0,0,138.8551014483289,22.082137617864106Z"></path><g transform="rotate(9.735986692023857) translate(185,0)"><text id="text34" x="6" style="font-size: 7pt;">prejudice</text></g></g><g><path id="arc35" fill="rgb(253, 185, 110)" style="stroke: rgb(177, 130, 77);" d="M180.8527507838698,38.95231102139494A185,185,0,0,1,180.52953954278092,40.42382159657222L137.20245005251348,30.722104413394884A140.6,140.6,0,0,0,137.44809059574104,29.603756376260154Z"></path><g transform="rotate(12.388064407103997) translate(185,0)"><text id="text35" x="6" style="font-size: 7pt;">toleration</text></g></g><g><path id="arc36" fill="rgb(253, 190, 114)" style="stroke: rgb(177, 133, 80);" d="M179.2357745937902,45.820706081028746A185,185,0,0,1,178.46572987203112,48.73379998772119L135.63395470274367,37.037687990668104A140.6,140.6,0,0,0,136.21918869128055,34.823736621581844Z"></path><g transform="rotate(14.806841039762233) translate(185,0)"><text id="text36" x="6" style="font-size: 7pt;">social class</text></g></g><g><path id="arc37" fill="rgb(253, 195, 118)" style="stroke: rgb(177, 137, 83);" d="M176.92363160922633,54.06504025895817A185,185,0,0,1,176.47747781934928,55.50405230720624L134.12288314270543,42.18307975347674A140.6,140.6,0,0,0,134.461960023012,41.08943059680821Z"></path><g transform="rotate(17.22561767242047) translate(185,0)"><text id="text37" x="6" style="font-size: 7pt;">envy</text></g></g><g><path id="arc38" fill="rgb(253, 199, 122)" style="stroke: rgb(177, 139, 85);" d="M174.73319709804662,60.772607578539784A185,185,0,0,1,172.66118190104112,66.43128980033124L131.22249824479124,50.487780248251745A140.6,140.6,0,0,0,132.79722979451543,46.18718175969023Z"></path><g transform="rotate(20.11099646992254) translate(185,0)"><text id="text38" x="6" style="font-size: 7pt;">libertinism</text></g></g><g><path id="arc39" fill="rgb(254, 204, 126)" style="stroke: rgb(178, 143, 88);" d="M170.59085042966782,71.58045647858569A185,185,0,0,1,170.0022671450859,72.96731573472363L129.20172303026527,55.455159958389956A140.6,140.6,0,0,0,129.64904632654753,54.40114692372512Z"></path><g transform="rotate(22.996375267424597) translate(185,0)"><text id="text39" x="6" style="font-size: 7pt;">perspective</text></g></g><g><path id="arc40" fill="rgb(254, 208, 130)" style="stroke: rgb(178, 146, 91);" d="M167.73708072837854,78.03378594379116A185,185,0,0,1,165.10659405547057,83.45545278411743L125.48101148215763,63.42614411592924A140.6,140.6,0,0,0,127.4801813535677,59.30567731728127Z"></path><g transform="rotate(25.881754064926668) translate(185,0)"><text id="text40" x="6" style="font-size: 7pt;">melancholia</text></g></g><g><path id="arc41" fill="rgb(254, 212, 134)" style="stroke: rgb(178, 148, 94);" d="M162.52901360944065,88.37035552232581A185,185,0,0,1,161.80396652670584,89.69100521359239L122.97101456029644,68.16516396233021A140.6,140.6,0,0,0,123.52205034317488,67.16147019696761Z"></path><g transform="rotate(28.767132862428724) translate(185,0)"><text id="text41" x="6" style="font-size: 7pt;">value</text></g></g><g><path id="arc42" fill="rgb(254, 216, 139)" style="stroke: rgb(178, 151, 97);" d="M159.04083363744255,94.50403819894326A185,185,0,0,1,156.68475102225446,98.36101258676699L119.08041077691338,74.75436956594291A140.6,140.6,0,0,0,120.87103356445633,71.82306903119688Z"></path><g transform="rotate(31.419210577508878) translate(185,0)"><text id="text42" x="6" style="font-size: 7pt;">wealth</text></g></g><g><path id="arc43" fill="rgb(254, 220, 143)" style="stroke: rgb(178, 154, 100);" d="M153.6638603992821,103.0165909317035A185,185,0,0,1,152.8198334115005,104.26456021142198L116.14307339274036,79.2410657606807A140.6,140.6,0,0,0,116.7845339034544,78.29260910809465Z"></path><g transform="rotate(34.07128829258902) translate(185,0)"><text id="text43" x="6" style="font-size: 7pt;">hypocrisy</text></g></g><g><path id="arc44" fill="rgb(254, 224, 147)" style="stroke: rgb(178, 157, 103);" d="M149.62360200704515,108.80155202219017A185,185,0,0,1,121.15554534097203,139.80820374045177L92.07821445913874,106.25423484274334A140.6,140.6,0,0,0,113.71393752535432,82.68917953686453Z"></path><g transform="rotate(42.55589306821716) translate(185,0)"><text id="text44" x="6" style="font-size: 7pt;" font-weight="normal">feeling</text></g></g><g><path id="arc45" fill="rgb(254, 227, 152)" style="stroke: rgb(178, 159, 106);" d="M116.90741243083833,143.37941595196247A185,185,0,0,1,115.73590340681821,144.32671499971045L87.95928658918184,109.68830339977993A140.6,140.6,0,0,0,88.84963344743713,108.96835612349146Z"></path><g transform="rotate(51.04049784384529) translate(185,0)"><text id="text45" x="6" style="font-size: 7pt;">England</text></g></g><g><path id="arc46" fill="rgb(254, 231, 156)" style="stroke: rgb(178, 162, 109);" d="M111.3546741472554,147.73332916291628A185,185,0,0,1,106.48403988747417,151.2816884135116L80.92787031448037,114.97408319426881A140.6,140.6,0,0,0,84.6295523519141,112.27733016381636Z"></path><g transform="rotate(53.925876641347344) translate(185,0)"><text id="text46" x="6" style="font-size: 7pt;">eating</text></g></g><g><path id="arc47" fill="rgb(254, 234, 161)" style="stroke: rgb(178, 164, 113);" d="M101.898355747812,154.4076587993366A185,185,0,0,1,98.09595235348583,156.85083401710887L74.55292378864922,119.20663385300274A140.6,140.6,0,0,0,77.44275036833712,117.34982068749581Z"></path><g transform="rotate(57.27785760369326) translate(185,0)"><text id="text47" x="6" style="font-size: 7pt;" font-weight="normal">destiny</text></g></g><g><path id="arc48" fill="rgb(254, 237, 165)" style="stroke: rgb(178, 166, 115);" d="M93.34699326204407,159.72269359404098A185,185,0,0,1,92.04317150460918,160.4775827939002L69.95281034350296,121.96296292336416A140.6,140.6,0,0,0,70.94371487915348,121.38924713147114Z"></path><g transform="rotate(59.9299353187734) translate(185,0)"><text id="text48" x="6" style="font-size: 7pt;">tyranny</text></g></g><g><path id="arc49" fill="rgb(254, 239, 169)" style="stroke: rgb(178, 167, 118);" d="M87.18814981660553,163.16625426710374A185,185,0,0,1,85.85648912019091,163.87087378773123L65.25093173134509,124.54186407867573A140.6,140.6,0,0,0,66.2629938606202,124.00635324299884Z"></path><g transform="rotate(62.11541086900971) translate(185,0)"><text id="text49" x="6" style="font-size: 7pt;" font-weight="normal">epistolary fiction</text></g></g><g><path id="arc50" fill="rgb(253, 242, 174)" style="stroke: rgb(177, 169, 122);" d="M80.90246776977341,166.37244576179307A185,185,0,0,1,72.67977479194515,170.12539591781157L55.236628841878314,129.29530089753678A140.6,140.6,0,0,0,61.485875505027785,126.44305877896272Z"></path><g transform="rotate(65.4673918313556) translate(185,0)"><text id="text50" x="6" style="font-size: 7pt;" font-weight="normal">attraction</text></g></g><g><path id="arc51" fill="rgb(253, 244, 179)" style="stroke: rgb(177, 171, 125);" d="M67.54407499845524,172.22891143069754A185,185,0,0,1,64.73006374586618,173.30614197845415L49.194848446858295,131.71266790362515A140.6,140.6,0,0,0,51.333496998825986,130.89397268733012Z"></path><g transform="rotate(69.05267387612344) translate(185,0)"><text id="text51" x="6" style="font-size: 7pt;">people</text></g></g><g><path id="arc52" fill="rgb(252, 245, 183)" style="stroke: rgb(176, 172, 128);" d="M59.50253298494622,175.16977070366733A185,185,0,0,1,58.074037861035634,175.64853010063877L44.136268774387084,133.49288287648545A140.6,140.6,0,0,0,45.22192506855913,133.12902573478715Z"></path><g transform="rotate(71.47145050878166) translate(185,0)"><text id="text52" x="6" style="font-size: 7pt;">power</text></g></g><g><path id="arc53" fill="rgb(251, 247, 188)" style="stroke: rgb(176, 173, 132);" d="M52.779240983736415,177.31145400447394A185,185,0,0,1,44.05581976341012,179.67772467663852L33.48242302019169,136.5550707542453A140.6,140.6,0,0,0,40.112223147639675,134.7567050434002Z"></path><g transform="rotate(74.82343147112755) translate(185,0)"><text id="text53" x="6" style="font-size: 7pt;" font-weight="normal">childhood</text></g></g><g><path id="arc54" fill="rgb(250, 248, 193)" style="stroke: rgb(175, 174, 135);" d="M38.64647290443386,180.91835211510983A185,185,0,0,1,37.1718549112356,181.22707635024642L28.250609732539054,137.73257802618727A140.6,140.6,0,0,0,29.37131940736973,137.49794760748347Z"></path><g transform="rotate(78.17541243347347) translate(185,0)"><text id="text54" x="6" style="font-size: 7pt;" font-weight="normal">liberty</text></g></g><g><path id="arc55" fill="rgb(248, 249, 198)" style="stroke: rgb(174, 174, 139);" d="M31.71913202567653,182.26051866363628A185,185,0,0,1,30.2338136037393,182.51278452474048L22.97769833884187,138.70971623880277A140.6,140.6,0,0,0,24.10654033951416,138.51799418436354Z"></path><g transform="rotate(80.36088798370977) translate(185,0)"><text id="text55" x="6" style="font-size: 7pt;" font-weight="normal">life</text></g></g><g><path id="arc56" fill="rgb(246, 249, 202)" style="stroke: rgb(172, 174, 141);" d="M24.745647142808355,183.3375382933992A185,185,0,0,1,21.756388967971347,183.71624734648358L16.534855615658223,139.6243479833275A140.6,140.6,0,0,0,18.806691828534348,139.3365291029834Z"></path><g transform="rotate(82.77966461636797) translate(185,0)"><text id="text56" x="6" style="font-size: 7pt;" font-weight="normal">sexuality</text></g></g><g><path id="arc57" fill="rgb(244, 249, 207)" style="stroke: rgb(171, 174, 145);" d="M16.235938592708706,184.28617500510936A185,185,0,0,1,-3.3286717937841694,184.9700514788523L-2.5297905632759687,140.57723912392774A140.6,140.6,0,0,0,12.339313330458616,140.0574930038831Z"></path><g transform="rotate(87.99805423808922) translate(185,0)"><text id="text57" x="6" style="font-size: 7pt;">love</text></g></g><g><path id="arc58" fill="rgb(242, 249, 212)" style="stroke: rgb(169, 174, 148);" d="M-8.87544322040578,184.78697602277427A185,185,0,0,1,-13.386918964513676,184.51501402497723L-10.174058413030393,140.2314106589827A140.6,140.6,0,0,0,-6.745336847508392,140.43810177730845Z"></path><g transform="rotate(93.44974494223243) translate(185,0)"><text id="text58" x="6" transform="rotate(180) translate(-12)" style="text-anchor: end; font-size: 7pt;">passion</text></g></g><g><path id="arc59" fill="rgb(239, 248, 216)" style="stroke: rgb(167, 174, 151);" d="M-18.915515443324264,184.03044116535003A185,185,0,0,1,-20.413568451825125,183.8702972833368L-15.514312023387093,139.74142593533597A140.6,140.6,0,0,0,-14.37579173692644,139.86313528566603Z"></path><g transform="rotate(96.10182265731257) translate(185,0)"><text id="text59" x="6" transform="rotate(180) translate(-12)" style="text-anchor: end; font-size: 7pt;">imagination</text></g></g><g><path id="arc60" fill="rgb(237, 247, 221)" style="stroke: rgb(166, 173, 155);" d="M-25.9196645743543,183.1752466583653A185,185,0,0,1,-30.38668123323865,182.48739573907437L-23.093877737261376,138.69042076169652A140.6,140.6,0,0,0,-19.69894507650927,139.2131874603576Z"></path><g transform="rotate(98.7539003723927) translate(185,0)"><text id="text60" x="6" transform="rotate(180) translate(-12)" style="text-anchor: end; font-size: 7pt;">eroticism</text></g></g><g><path id="arc61" fill="rgb(234, 246, 225)" style="stroke: rgb(164, 172, 158);" d="M-35.8468089680477,181.49381886667186A185,185,0,0,1,-37.323643158678784,181.19587650209817L-28.365968800595873,137.7088661415946A140.6,140.6,0,0,0,-27.243574815716247,137.93530233867062Z"></path><g transform="rotate(101.40597808747285) translate(185,0)"><text id="text61" x="6" transform="rotate(180) translate(-12)" style="text-anchor: end; font-size: 7pt;">metaphysics</text></g></g><g><path id="arc62" fill="rgb(230, 245, 228)" style="stroke: rgb(161, 172, 160);" d="M-42.741909729202575,179.99480312692558A185,185,0,0,1,-44.206307811988275,179.64075915457423L-33.59679393711109,136.52697695747642A140.6,140.6,0,0,0,-32.483851394193955,136.79605037646343Z"></path><g transform="rotate(103.59145363770915) translate(185,0)"><text id="text62" x="6" transform="rotate(180) translate(-12)" style="text-anchor: end; font-size: 7pt;">will</text></g></g><g><path id="arc63" fill="rgb(227, 244, 232)" style="stroke: rgb(159, 171, 162);" d="M-49.57483089298848,178.23393656072233A185,185,0,0,1,-55.353470070846676,176.52476696236107L-42.06863725384348,134.1588228913944A140.6,140.6,0,0,0,-37.676871478671245,135.45779178614896Z"></path><g transform="rotate(106.47683243521121) translate(185,0)"><text id="text63" x="6" transform="rotate(180) translate(-12)" style="text-anchor: end; font-size: 7pt;">sociability</text></g></g><g><path id="arc64" fill="rgb(223, 242, 234)" style="stroke: rgb(156, 169, 164);" d="M-60.623511560603326,174.78498175204126A185,185,0,0,1,-62.044889704696935,174.28548895858194L-47.15411617556967,132.45697160852228A140.6,140.6,0,0,0,-46.073868786058526,132.83658613155134Z"></path><g transform="rotate(109.36221123271326) translate(185,0)"><text id="text64" x="6" transform="rotate(180) translate(-12)" style="text-anchor: end; font-size: 7pt;">exoticism</text></g></g><g><path id="arc65" fill="rgb(220, 240, 236)" style="stroke: rgb(154, 168, 165);" d="M-67.2447520176312,172.34599886880832A185,185,0,0,1,-70.04279209838855,171.2279395281679L-53.23252199477529,130.1332340414076A140.6,140.6,0,0,0,-51.10601153339971,130.98295914029433Z"></path><g transform="rotate(111.78098786537151) translate(185,0)"><text id="text65" x="6" transform="rotate(180) translate(-12)" style="text-anchor: end; font-size: 7pt;">death</text></g></g><g><path id="arc66" fill="rgb(216, 238, 238)" style="stroke: rgb(151, 167, 167);" d="M-75.14734290060761,169.04992414957925A185,185,0,0,1,-76.52153510788024,168.4323444731844L-58.15636668198898,128.00858179962015A140.6,140.6,0,0,0,-57.111980604461785,128.47794235368022Z"></path><g transform="rotate(114.19976449802971) translate(185,0)"><text id="text66" x="6" transform="rotate(180) translate(-12)" style="text-anchor: end; font-size: 7pt;">comedy</text></g></g><g><path id="arc67" fill="rgb(211, 237, 239)" style="stroke: rgb(148, 166, 167);" d="M-81.53931542235821,166.06125388076887A185,185,0,0,1,-82.88895697441859,165.39171929601852L-62.99560730055813,125.69770666497406A140.6,140.6,0,0,0,-61.969879720992246,126.20655294938433Z"></path><g transform="rotate(116.38524004826601) translate(185,0)"><text id="text67" x="6" transform="rotate(180) translate(-12)" style="text-anchor: end; font-size: 7pt;">monastery</text></g></g><g><path id="arc68" fill="rgb(207, 234, 239)" style="stroke: rgb(145, 164, 167);" d="M-87.81266709083327,162.83100287842757A185,185,0,0,1,-89.13579457123998,162.1104874033562L-67.74320387414238,123.2039704265507A140.6,140.6,0,0,0,-66.73762698903329,123.75156218760496Z"></path><g transform="rotate(118.57071559850232) translate(185,0)"><text id="text68" x="6" transform="rotate(180) translate(-12)" style="text-anchor: end; font-size: 7pt;">peace</text></g></g><g><path id="arc69" fill="rgb(203, 232, 239)" style="stroke: rgb(142, 162, 167);" d="M-93.95827162965975,159.36387041097828A185,185,0,0,1,-95.252960193816,158.59342222902976L-72.39224974730016,120.5310008940626A140.6,140.6,0,0,0,-71.40828643854141,121.11654151234349Z"></path><g transform="rotate(120.75619114873862) translate(185,0)"><text id="text69" x="6" transform="rotate(180) translate(-12)" style="text-anchor: end; font-size: 7pt;">poetry</text></g></g><g><path id="arc70" fill="rgb(198, 230, 239)" style="stroke: rgb(139, 161, 167);" d="M-99.96718860500506,155.6649003546122A185,185,0,0,1,-107.45101884069862,150.59640948606918L-81.66277431893096,114.45327120941258A140.6,140.6,0,0,0,-75.97506333980385,118.30532426950528Z"></path><g transform="rotate(124.10817211108454) translate(185,0)"><text id="text70" x="6" transform="rotate(180) translate(-12)" style="text-anchor: end; font-size: 7pt;">morality</text></g></g><g><path id="arc71" fill="rgb(193, 227, 238)" style="stroke: rgb(135, 159, 167);" d="M-111.91988413981788,147.30559912688227A185,185,0,0,1,-114.30417140946085,145.4632475864491L-86.87117027119025,110.55206816570133A140.6,140.6,0,0,0,-85.0591119462616,111.95225533643053Z"></path><g transform="rotate(127.69345415585235) translate(185,0)"><text id="text71" x="6" transform="rotate(180) translate(-12)" style="text-anchor: end; font-size: 7pt;">friendship</text></g></g><g><path id="arc72" fill="rgb(188, 225, 237)" style="stroke: rgb(132, 158, 166);" d="M-118.61598126241164,141.96918323761398A185,185,0,0,1,-120.91246740608673,140.0184817292775L-91.89347522862592,106.4140461142509A140.6,140.6,0,0,0,-90.14814575943284,107.8965792605866Z"></path><g transform="rotate(130.3455318709325) translate(185,0)"><text id="text72" x="6" transform="rotate(180) translate(-12)" style="text-anchor: end; font-size: 7pt;">human</text></g></g><g><path id="arc73" fill="rgb(184, 222, 236)" style="stroke: rgb(129, 155, 165);" d="M-125.05798527349098,136.3286481974178A185,185,0,0,1,-128.351010039106,133.2329472087941L-97.54676762972055,101.2570398786835A140.6,140.6,0,0,0,-95.04406880785315,103.60977263003753Z"></path><g transform="rotate(133.23091066843457) translate(185,0)"><text id="text73" x="6" transform="rotate(180) translate(-12)" style="text-anchor: end; font-size: 7pt;">Christianity</text></g></g><g><path id="arc74" fill="rgb(179, 219, 234)" style="stroke: rgb(125, 153, 164);" d="M-132.28964531128548,129.3230441314087A185,185,0,0,1,-141.4045564402595,119.28852173588818L-107.46746289459722,90.65927651927501A140.6,140.6,0,0,0,-100.54013043657697,98.2855135398706Z"></path><g transform="rotate(137.74939704289005) translate(185,0)"><text id="text74" x="6" transform="rotate(180) translate(-12)" style="text-anchor: end; font-size: 7pt;">interaction</text></g></g><g><path id="arc75" fill="rgb(174, 216, 233)" style="stroke: rgb(122, 151, 163);" d="M-144.91904804000626,114.9933455256362A185,185,0,0,1,-146.772696181049,112.61783009694992L-111.54724909759724,85.58955087368193A140.6,140.6,0,0,0,-110.13847651040476,87.39494259948351Z"></path><g transform="rotate(142.0345823349237) translate(185,0)"><text id="text75" x="6" transform="rotate(180) translate(-12)" style="text-anchor: end; font-size: 7pt;">village</text></g></g><g><path id="arc76" fill="rgb(169, 213, 231)" style="stroke: rgb(118, 149, 162);" d="M-150.08468156667516,108.16463543612448A185,185,0,0,1,-162.86640394910935,87.74699120018609L-123.77846700132311,66.68771331214143A140.6,140.6,0,0,0,-114.06435799067312,82.20512293145461Z"></path><g transform="rotate(147.9528752039107) translate(185,0)"><text id="text76" x="6" transform="rotate(180) translate(-12)" style="text-anchor: end; font-size: 7pt;">night</text></g></g><g><path id="arc77" fill="rgb(164, 209, 229)" style="stroke: rgb(115, 146, 160);" d="M-165.42513445622208,82.82224876288282A185,185,0,0,1,-169.27298316694865,74.64353401174088L-128.64746720688098,56.72908584892307A140.6,140.6,0,0,0,-125.72310218672878,62.944909059790945Z"></path><g transform="rotate(154.8043724025855) translate(185,0)"><text id="text77" x="6" transform="rotate(180) translate(-12)" style="text-anchor: end; font-size: 7pt;">philosophy</text></g></g><g><path id="arc78" fill="rgb(159, 206, 227)" style="stroke: rgb(111, 144, 159);" d="M-171.4357861768795,69.532519139718A185,185,0,0,1,-172.54550725180613,66.73116159049626L-131.13458551137265,50.71568280877715A140.6,140.6,0,0,0,-130.29119749442842,52.84471454618568Z"></path><g transform="rotate(158.38965444735334) translate(185,0)"><text id="text78" x="6" transform="rotate(180) translate(-12)" style="text-anchor: end; font-size: 7pt;">sin</text></g></g><g><path id="arc79" fill="rgb(154, 202, 225)" style="stroke: rgb(108, 141, 158);" d="M-174.4695021677795,61.52554602217837A185,185,0,0,1,-177.69153025537656,51.485144221441175L-135.04556299408617,39.128709608295296A140.6,140.6,0,0,0,-132.5968216475124,46.75941497685555Z"></path><g transform="rotate(162.2082375745431) translate(185,0)"><text id="text79" x="6" transform="rotate(180) translate(-12)" style="text-anchor: end; font-size: 7pt;">travel</text></g></g><g><path id="arc80" fill="rgb(149, 198, 223)" style="stroke: rgb(104, 139, 156);" d="M-179.15589771759065,46.13203131235606A185,185,0,0,1,-179.5256401939933,44.671517916194155L-136.4394865474349,33.95035361630756A140.6,140.6,0,0,0,-136.1584822653689,35.06034379739061Z"></path><g transform="rotate(165.79351961931093) translate(185,0)"><text id="text80" x="6" transform="rotate(180) translate(-12)" style="text-anchor: end; font-size: 7pt;">problem</text></g></g><g><path id="arc81" fill="rgb(144, 194, 221)" style="stroke: rgb(101, 136, 155);" d="M-180.7848042394156,39.266455863958235A185,185,0,0,1,-181.09858182975708,37.79290487976249L-137.63492219061538,28.722607708619492A140.6,140.6,0,0,0,-137.39645122195586,29.842506456608255Z"></path><g transform="rotate(167.9789951695472) translate(185,0)"><text id="text81" x="6" transform="rotate(180) translate(-12)" style="text-anchor: end; font-size: 7pt;">guilt</text></g></g><g><path id="arc82" fill="rgb(139, 190, 219)" style="stroke: rgb(97, 133, 153);" d="M-182.15071066580128,32.34375680009267A185,185,0,0,1,-183.51307469782665,23.408362073197246L-139.46993677034826,17.790355175629905A140.6,140.6,0,0,0,-138.43454010600897,24.58125516807043Z"></path><g transform="rotate(171.33097613189318) translate(185,0)"><text id="text82" x="6" transform="rotate(180) translate(-12)" style="text-anchor: end; font-size: 7pt;">personality</text></g></g><g><path id="arc83" fill="rgb(134, 186, 216)" style="stroke: rgb(94, 130, 151);" d="M-184.1326455368998,17.89326263101352A185,185,0,0,1,-184.39964593141866,14.891963616912346L-140.14373090787817,11.317892348853382A140.6,140.6,0,0,0,-139.94081060804382,13.598879599570274Z"></path><g transform="rotate(174.91625817666107) translate(185,0)"><text id="text83" x="6" transform="rotate(180) translate(-12)" style="text-anchor: end; font-size: 7pt;">sensationism</text></g></g><g><path id="arc84" fill="rgb(129, 182, 214)" style="stroke: rgb(90, 127, 150);" d="M-184.7633642117375,9.354103118997386A185,185,0,0,1,-184.83341401983054,7.849144015363376L-140.4733946550712,5.965349451676166A140.6,140.6,0,0,0,-140.4201568009205,7.109118370438013Z"></path><g transform="rotate(177.33503480931932) translate(185,0)"><text id="text84" x="6" transform="rotate(180) translate(-12)" style="text-anchor: end; font-size: 7pt;">atheism</text></g></g><g><path id="arc85" fill="rgb(124, 177, 212)" style="stroke: rgb(87, 124, 148);" d="M-184.98568422236443,2.301441457797289A185,185,0,0,1,-184.98670082567364,-2.2182239816392797L-140.58989262751194,-1.6858502260458526A140.6,140.6,0,0,0,-140.58912000899696,1.7490955079259396Z"></path><g transform="rotate(179.9871125243995) translate(185,0)"><text id="text85" x="6" transform="rotate(180) translate(-12)" style="text-anchor: end; font-size: 7pt;">politics</text></g></g><g><path id="arc86" fill="rgb(119, 173, 209)" style="stroke: rgb(83, 121, 146);" d="M-184.8369263155255,-7.765994477785899A185,185,0,0,1,-184.76755353203345,-9.270984941588019L-140.42334068434542,-7.045948555606894A140.6,140.6,0,0,0,-140.47606399979935,-5.902155803117283Z"></path><g transform="rotate(182.6391902394796) translate(185,0)"><text id="text86" x="6" transform="rotate(180) translate(-12)" style="text-anchor: end; font-size: 7pt;">beauty</text></g></g><g><path id="arc87" fill="rgb(115, 168, 207)" style="stroke: rgb(81, 118, 145);" d="M-184.40632653796916,-14.809008500635443A185,185,0,0,1,-184.14067632808204,-17.810427323243317L-139.94691400934232,-13.53592476566492A140.6,140.6,0,0,0,-140.14880816885656,-11.254846460482936Z"></path><g transform="rotate(185.0579668721379) translate(185,0)"><text id="text87" x="6" transform="rotate(180) translate(-12)" style="text-anchor: end; font-size: 7pt;">monarchy</text></g></g><g><path id="arc88" fill="rgb(110, 163, 204)" style="stroke: rgb(77, 114, 143);" d="M-183.5235865619149,-23.325804926118465A185,185,0,0,1,-183.32754361541006,-24.819584040429035L-139.32893314771164,-18.862883870726066A140.6,140.6,0,0,0,-139.4779257870553,-17.727611743850034Z"></path><g transform="rotate(187.47674350479616) translate(185,0)"><text id="text88" x="6" transform="rotate(180) translate(-12)" style="text-anchor: end; font-size: 7pt;">state</text></g></g><g><path id="arc89" fill="rgb(105, 159, 202)" style="stroke: rgb(74, 111, 141);" d="M-182.50057656979155,-30.307417436885785A185,185,0,0,1,-181.41666798578242,-36.235239435339544L-137.87666766919463,-27.538781970858054A140.6,140.6,0,0,0,-138.70043819304158,-23.033637252033195Z"></path><g transform="rotate(190.36212230229825) translate(185,0)"><text id="text89" x="6" transform="rotate(180) translate(-12)" style="text-anchor: end; font-size: 7pt;">art</text></g></g><g><path id="arc90" fill="rgb(101, 154, 199)" style="stroke: rgb(71, 108, 139);" d="M-180.24814247599747,-41.66061850179995A185,185,0,0,1,-179.9028957645792,-43.127115548329414L-136.72620078108017,-32.77660781673035A140.6,140.6,0,0,0,-136.98858828175807,-31.662070061367963Z"></path><g transform="rotate(193.24750109980033) translate(185,0)"><text id="text90" x="6" transform="rotate(180) translate(-12)" style="text-anchor: end; font-size: 7pt;">locus amoenus</text></g></g><g><path id="arc91" fill="rgb(97, 149, 196)" style="stroke: rgb(68, 104, 137);" d="M-178.52832612986273,-48.50398714816519A185,185,0,0,1,-176.40587076285664,-55.73121890285835L-134.06846177977104,-42.35572636617235A140.6,140.6,0,0,0,-135.68152785869566,-36.86303023260554Z"></path><g transform="rotate(196.36618097972433) translate(185,0)"><text id="text91" x="6" transform="rotate(180) translate(-12)" style="text-anchor: end; font-size: 7pt;">mourning</text></g></g><g><path id="arc92" fill="rgb(92, 144, 194)" style="stroke: rgb(64, 101, 136);" d="M-174.65480828664687,-60.99752406741301A185,185,0,0,1,-148.68309148104711,-110.08332438493386L-112.9991495255958,-83.66332653254973A140.6,140.6,0,0,0,-132.73765429785163,-46.358118291233886Z"></path><g transform="rotate(207.88369982683753) translate(185,0)"><text id="text92" x="6" transform="rotate(180) translate(-12)" style="text-anchor: end; font-size: 7pt;">Sentimentalism</text></g></g><g><path id="arc93" fill="rgb(88, 138, 191)" style="stroke: rgb(62, 97, 134);" d="M-145.31418472890473,-114.49361430478886A185,185,0,0,1,-139.54853323003653,-121.45454653221256L-106.05688525482776,-92.30545536448155A140.6,140.6,0,0,0,-110.43878039396759,-87.01514687163953Z"></path><g transform="rotate(219.63451975637258) translate(185,0)"><text id="text93" x="6" transform="rotate(180) translate(-12)" style="text-anchor: end; font-size: 7pt;">nature</text></g></g><g><path id="arc94" fill="rgb(85, 133, 188)" style="stroke: rgb(59, 93, 132);" d="M-135.84265122460369,-125.5857241420006A185,185,0,0,1,-134.81541997666776,-126.68781526458926L-102.45971918226748,-96.28273960108784A140.6,140.6,0,0,0,-103.2404149306988,-95.44515034792046Z"></path><g transform="rotate(222.98650071871845) translate(185,0)"><text id="text94" x="6" transform="rotate(180) translate(-12)" style="text-anchor: end; font-size: 7pt;">truth</text></g></g><g><path id="arc95" fill="rgb(81, 128, 186)" style="stroke: rgb(57, 90, 130);" d="M-130.95469319913943,-130.67466598051539A185,185,0,0,1,-119.89063224675219,-140.8944154303996L-91.11688050753166,-107.07975572710369A140.6,140.6,0,0,0,-99.52556683134597,-99.3127461451917Z"></path><g transform="rotate(227.2716860107521) translate(185,0)"><text id="text95" x="6" transform="rotate(180) translate(-12)" style="text-anchor: end; font-size: 7pt;">happiness</text></g></g><g><path id="arc96" fill="rgb(77, 122, 183)" style="stroke: rgb(54, 85, 128);" d="M-115.6104870418555,-144.4271971823346A185,185,0,0,1,-113.24290041744999,-146.29096180230516L-86.06460431726198,-111.18113096975192A140.6,140.6,0,0,0,-87.86397015181018,-109.7646698585743Z"></path><g transform="rotate(231.79017238520765) translate(185,0)"><text id="text96" x="6" transform="rotate(180) translate(-12)" style="text-anchor: end; font-size: 7pt;">tragedy</text></g></g><g><path id="arc97" fill="rgb(74, 117, 180)" style="stroke: rgb(52, 82, 126);" d="M-108.80387435973101,-149.6219132490688A185,185,0,0,1,-105.1163201970693,-152.23521021178775L-79.88840334977266,-115.69875976095868A140.6,140.6,0,0,0,-82.69094451339556,-113.71265406929228Z"></path><g transform="rotate(234.67555118270968) translate(185,0)"><text id="text97" x="6" transform="rotate(180) translate(-12)" style="text-anchor: end; font-size: 7pt;">crime</text></g></g><g><path id="arc98" fill="rgb(71, 111, 177)" style="stroke: rgb(50, 78, 124);" d="M-100.50265012181531,-155.31972610873345A185,185,0,0,1,-99.23444732610643,-156.13303450545695L-75.41817996784089,-118.66110622414728A140.6,140.6,0,0,0,-76.38201409257962,-118.04299184263742Z"></path><g transform="rotate(237.3276288977899) translate(185,0)"><text id="text98" x="6" transform="rotate(180) translate(-12)" style="text-anchor: end; font-size: 7pt;">ideal</text></g></g><g><path id="arc99" fill="rgb(68, 106, 175)" style="stroke: rgb(48, 74, 122);" d="M-94.50650670574707,-159.03936679412612A185,185,0,0,1,-90.59316216715352,-161.3005857663134L-68.85080324703667,-122.58844518239817A140.6,140.6,0,0,0,-71.82494509636777,-120.86991876353585Z"></path><g transform="rotate(239.97970661287007) translate(185,0)"><text id="text99" x="6" transform="rotate(180) translate(-12)" style="text-anchor: end; font-size: 7pt;">society</text></g></g><g><path id="arc100" fill="rgb(66, 100, 172)" style="stroke: rgb(46, 70, 120);" d="M-85.71410654858964,-163.9453931605796A185,185,0,0,1,-83.03259699617655,-165.31965350819766L-63.10477371709418,-125.64293666623021A140.6,140.6,0,0,0,-65.14272097692812,-124.59849880204051Z"></path><g transform="rotate(242.86508541037216) translate(185,0)"><text id="text100" x="6" transform="rotate(180) translate(-12)" style="text-anchor: end; font-size: 7pt;">civilization</text></g></g><g><path id="arc101" fill="rgb(63, 95, 169)" style="stroke: rgb(44, 67, 118);" d="M-78.03638942951267,-167.7358695235025A185,185,0,0,1,-65.54390107673514,-172.99999142093378L-49.8133648183187,-131.47999347990967A140.6,140.6,0,0,0,-59.30765596642962,-127.47926083786187Z"></path><g transform="rotate(247.15027070240575) translate(185,0)"><text id="text101" x="6" transform="rotate(180) translate(-12)" style="text-anchor: end; font-size: 7pt;">education</text></g></g><g><path id="arc102" fill="rgb(61, 89, 166)" style="stroke: rgb(43, 62, 116);" d="M-60.3251872555925,-174.8881693613885L-45.8471423142503,-132.91500871465524Z"></path><g transform="rotate(250.9688538295955) translate(185,0)"><text id="text102" x="6" transform="rotate(180) translate(-12)" style="text-anchor: end; font-size: 7pt;" font-weight="normal"></text></g></g><g><path id="arc103" fill="rgb(59, 83, 163)" style="stroke: rgb(41, 58, 114);" d="M-55.05218483774781,-176.61895975401524A185,185,0,0,1,-52.1683307883539,-177.4921554963962L-39.647931399148966,-134.8940381772611A140.6,140.6,0,0,0,-41.83966047668833,-134.23040941305158Z"></path><g transform="rotate(253.15432937983184) translate(185,0)"><text id="text103" x="6" transform="rotate(180) translate(-12)" style="text-anchor: end; font-size: 7pt;">duty</text></g></g><g><path id="arc104" fill="rgb(57, 77, 160)" style="stroke: rgb(40, 54, 112);" d="M-46.8208908139939,-178.9771051933293A185,185,0,0,1,-43.899721980904076,-179.7159269792172L-33.363788705487096,-136.58410450420507A140.6,140.6,0,0,0,-35.58387701863536,-136.02259994693026Z"></path><g transform="rotate(255.80640709491206) translate(185,0)"><text id="text104" x="6" transform="rotate(180) translate(-12)" style="text-anchor: end; font-size: 7pt;">Paris</text></g></g><g><path id="arc105" fill="rgb(55, 71, 158)" style="stroke: rgb(39, 50, 111);" d="M-38.48929946348699,-180.95185499687486A185,185,0,0,1,-37.014413846296804,-181.25929815492245L-28.130954523185572,-137.75706659774104A140.6,140.6,0,0,0,-29.25186759225011,-137.52340979762488Z"></path><g transform="rotate(258.22518372757025) translate(185,0)"><text id="text105" x="6" transform="rotate(180) translate(-12)" style="text-anchor: end; font-size: 7pt;">reform</text></g></g><g><path id="arc106" fill="rgb(53, 66, 155)" style="stroke: rgb(37, 46, 109);" d="M-31.56079529475472,-182.28800344609238A185,185,0,0,1,-28.587726701508384,-182.77784844460737L-21.72667229314637,-138.9111648179016A140.6,140.6,0,0,0,-23.986204424013586,-138.5388826190302Z"></path><g transform="rotate(260.6439603602285) translate(185,0)"><text id="text106" x="6" transform="rotate(180) translate(-12)" style="text-anchor: end; font-size: 7pt;">soul</text></g></g><g><path id="arc107" fill="rgb(51, 60, 152)" style="stroke: rgb(36, 42, 106);" d="M-23.092350199267546,-183.55310774343863A185,185,0,0,1,-14.099500015796204,-184.46193130102637L-10.715620012005115,-140.19106778878003A140.6,140.6,0,0,0,-17.550186151443334,-139.50036188501335Z"></path><g transform="rotate(264.22924240499634) translate(185,0)"><text id="text107" x="6" transform="rotate(180) translate(-12)" style="text-anchor: end; font-size: 7pt;">religion</text></g></g><g><path id="arc108" fill="rgb(49, 54, 149)" style="stroke: rgb(34, 38, 104);" d="M-8.560127818940224,-184.8018512129232A185,185,0,0,1,-5.5491675374599705,-184.91675624356273L-4.217367328469577,-140.53673474510768A140.6,140.6,0,0,0,-6.5056971423945695,-140.44940692182163Z"></path><g transform="rotate(267.81452444976424) translate(185,0)"><text id="text108" x="6" transform="rotate(180) translate(-12)" style="text-anchor: end; font-size: 7pt;">reality</text></g></g></g><g class="ribbons"><path d="M8.609266998005892e-15,-140.6A140.6,140.6,0,0,1,25.055681116491193,-138.34945913804182Q0,0,-45.8471423142503,-132.91500871465524Q0,0,8.609266998005892e-15,-140.6Z" id="ribbon0" fill="rgb(61, 89, 166)" style="stroke: rgb(43, 62, 116);"></path><path d="M29.19426813518295,-137.5356488625805A140.6,140.6,0,0,1,30.313342795223882,-137.293340146488Q0,0,-45.8471423142503,-132.91500871465524Q0,0,29.19426813518295,-137.5356488625805Z" id="ribbon1" fill="rgb(61, 89, 166)" style="stroke: rgb(43, 62, 116);"></path><path d="M34.41788522617595,-136.3222988969808A140.6,140.6,0,0,1,35.52690556817873,-136.03749108517735Q0,0,-45.8471423142503,-132.91500871465524Q0,0,34.41788522617595,-136.3222988969808Z" id="ribbon2" fill="rgb(61, 89, 166)" style="stroke: rgb(43, 62, 116);"></path><path d="M39.59143225106254,-134.91063150215228A140.6,140.6,0,0,1,41.78343907418066,-134.2479207255525Q0,0,-45.8471423142503,-132.91500871465524Q0,0,39.59143225106254,-134.91063150215228Z" id="ribbon3" fill="rgb(61, 89, 166)" style="stroke: rgb(43, 62, 116);"></path><path d="M45.791471470053956,-132.93419853674686A140.6,140.6,0,0,1,46.8725231455481,-132.55688052292894Q0,0,-45.8471423142503,-132.91500871465524Q0,0,45.791471470053956,-132.93419853674686Z" id="ribbon4" fill="rgb(61, 89, 166)" style="stroke: rgb(43, 62, 116);"></path><path d="M50.82754202860052,-131.09126962285035A140.6,140.6,0,0,1,55.07011693968812,-129.36631022120508Q0,0,-45.8471423142503,-132.91500871465524Q0,0,50.82754202860052,-131.09126962285035Z" id="ribbon5" fill="rgb(61, 89, 166)" style="stroke: rgb(43, 62, 116);"></path><path d="M58.925744430062196,-127.65624404377168A140.6,140.6,0,0,1,60.997036259053665,-126.67960201868212Q0,0,-45.8471423142503,-132.91500871465524Q0,0,58.925744430062196,-127.65624404377168Z" id="ribbon6" fill="rgb(61, 89, 166)" style="stroke: rgb(43, 62, 116);"></path><path d="M64.76940767932874,-124.79296385962195A140.6,140.6,0,0,1,65.78353064573972,-124.26136606275107Q0,0,-45.8471423142503,-132.91500871465524Q0,0,64.76940767932874,-124.79296385962195Z" id="ribbon7" fill="rgb(61, 89, 166)" style="stroke: rgb(43, 62, 116);"></path><path d="M69.48121210797434,-122.23224273491294A140.6,140.6,0,0,1,70.47432520349963,-121.66235854655858Q0,0,-45.8471423142503,-132.91500871465524Q0,0,69.48121210797434,-122.23224273491294Z" id="ribbon8" fill="rgb(61, 89, 166)" style="stroke: rgb(43, 62, 116);"></path><path d="M74.0919374360146,-119.49370195528171A140.6,140.6,0,0,1,75.06259591069305,-118.88636042518924Q0,0,-45.8471423142503,-132.91500871465524Q0,0,74.0919374360146,-119.49370195528171Z" id="ribbon9" fill="rgb(61, 89, 166)" style="stroke: rgb(43, 62, 116);"></path><path d="M78.59487612402759,-116.58132546445316A140.6,140.6,0,0,1,81.4193633347107,-114.62655571101473Q0,0,-45.8471423142503,-132.91500871465524Q0,0,78.59487612402759,-116.58132546445316Z" id="ribbon10" fill="rgb(61, 89, 166)" style="stroke: rgb(43, 62, 116);"></path><path d="M84.82100824407227,-112.13276310008159A140.6,140.6,0,0,1,86.63603803872157,-110.73642992689075Q0,0,-45.8471423142503,-132.91500871465524Q0,0,84.82100824407227,-112.13276310008159Z" id="ribbon11" fill="rgb(61, 89, 166)" style="stroke: rgb(43, 62, 116);"></path><path d="M89.91864935177841,-108.08791097413214A140.6,140.6,0,0,1,90.79589819509688,-107.35206039450571Q0,0,-45.8471423142503,-132.91500871465524Q0,0,89.91864935177841,-108.08791097413214Z" id="ribbon12" fill="rgb(61, 89, 166)" style="stroke: rgb(43, 62, 116);"></path><path d="M93.97512185448045,-104.5802872076547A140.6,140.6,0,0,1,94.82367131024512,-103.81151843242924Q0,0,-45.8471423142503,-132.91500871465524Q0,0,93.97512185448045,-104.5802872076547Z" id="ribbon13" fill="rgb(61, 89, 166)" style="stroke: rgb(43, 62, 116);"></path><path d="M97.89488228051972,-100.92052330068044A140.6,140.6,0,0,1,98.7134979054443,-100.11995471069612Q0,0,-45.8471423142503,-132.91500871465524Q0,0,97.89488228051972,-100.92052330068044Z" id="ribbon14" fill="rgb(61, 89, 166)" style="stroke: rgb(43, 62, 116);"></path><path d="M101.67222828466602,-97.11394336361158A140.6,140.6,0,0,1,102.45971918226789,-96.2827396010874Q0,0,-45.8471423142503,-132.91500871465524Q0,0,101.67222828466602,-97.11394336361158Z" id="ribbon15" fill="rgb(61, 89, 166)" style="stroke: rgb(43, 62, 116);"></path><path d="M105.3016647017489,-93.16608509023253A140.6,140.6,0,0,1,106.80507209395982,-91.43870392237656Q0,0,-45.8471423142503,-132.91500871465524Q0,0,105.3016647017489,-93.16608509023253Z" id="ribbon16" fill="rgb(61, 89, 166)" style="stroke: rgb(43, 62, 116);"></path><path d="M109.49976307810016,-88.19388802995324A140.6,140.6,0,0,1,110.21435256905085,-87.29923532187985Q0,0,-45.8471423142503,-132.91500871465524Q0,0,109.49976307810016,-88.19388802995324Z" id="ribbon17" fill="rgb(61, 89, 166)" style="stroke: rgb(43, 62, 116);"></path><path d="M112.78334406079274,-83.95401897744291A140.6,140.6,0,0,1,114.13572431267873,-82.1060073053135Q0,0,-45.8471423142503,-132.91500871465524Q0,0,112.78334406079274,-83.95401897744291Z" id="ribbon18" fill="rgb(61, 89, 166)" style="stroke: rgb(43, 62, 116);"></path><path d="M116.54717784745583,-78.64550423128776A140.6,140.6,0,0,1,119.04676989530958,-74.8079312472495Q0,0,-45.8471423142503,-132.91500871465524Q0,0,116.54717784745583,-78.64550423128776Z" id="ribbon19" fill="rgb(61, 89, 166)" style="stroke: rgb(43, 62, 116);"></path><path d="M121.23710418343981,-71.20340279237897A140.6,140.6,0,0,1,121.81293982893649,-70.21372864498719Q0,0,-45.8471423142503,-132.91500871465524Q0,0,121.23710418343981,-71.20340279237897Z" id="ribbon20" fill="rgb(61, 89, 166)" style="stroke: rgb(43, 62, 116);"></path><path d="M123.86422402886556,-66.52829477543374A140.6,140.6,0,0,1,124.40190009643284,-65.517381299905Q0,0,-45.8471423142503,-132.91500871465524Q0,0,123.86422402886556,-66.52829477543374Z" id="ribbon21" fill="rgb(61, 89, 166)" style="stroke: rgb(43, 62, 116);"></path><path d="M126.3111500638759,-61.75640346993192A140.6,140.6,0,0,1,126.80988435913811,-60.725721311665104Q0,0,-45.8471423142503,-132.91500871465524Q0,0,126.3111500638759,-61.75640346993192Z" id="ribbon22" fill="rgb(61, 89, 166)" style="stroke: rgb(43, 62, 116);"></path><path d="M128.57432257678246,-56.89467087453349A140.6,140.6,0,0,1,129.03338955663983,-55.84571943779066Q0,0,-45.8471423142503,-132.91500871465524Q0,0,128.57432257678246,-56.89467087453349Z" id="ribbon23" fill="rgb(61, 89, 166)" style="stroke: rgb(43, 62, 116);"></path><path d="M130.65044917479037,-51.95016968620524A140.6,140.6,0,0,1,131.06918100291662,-50.88447495282506Q0,0,-45.8471423142503,-132.91500871465524Q0,0,130.65044917479037,-51.95016968620524Z" id="ribbon24" fill="rgb(61, 89, 166)" style="stroke: rgb(43, 62, 116);"></path><path d="M132.5365095736688,-46.930093011081865A140.6,140.6,0,0,1,133.28326970754927,-44.765276901463196Q0,0,-45.8471423142503,-132.91500871465524Q0,0,132.5365095736688,-46.930093011081865Z" id="ribbon25" fill="rgb(61, 89, 166)" style="stroke: rgb(43, 62, 116);"></path><path d="M134.5660536067189,-40.74723569413822A140.6,140.6,0,0,1,137.671788123794,-28.545380620989697Q0,0,-45.8471423142503,-132.91500871465524Q0,0,134.5660536067189,-40.74723569413822Z" id="ribbon26" fill="rgb(61, 89, 166)" style="stroke: rgb(43, 62, 116);"></path><path d="M138.46607343561897,-24.40300201454274A140.6,140.6,0,0,1,138.66021149307815,-23.274573007787687Q0,0,-45.8471423142503,-132.91500871465524Q0,0,138.46607343561897,-24.40300201454274Z" id="ribbon27" fill="rgb(61, 89, 166)" style="stroke: rgb(43, 62, 116);"></path><path d="M139.2959515369161,-19.104917833508736A140.6,140.6,0,0,1,139.72109201732604,-15.696383197600369Q0,0,-45.8471423142503,-132.91500871465524Q0,0,139.2959515369161,-19.104917833508736Z" id="ribbon28" fill="rgb(61, 89, 166)" style="stroke: rgb(43, 62, 116);"></path><path d="M140.12904310674568,-11.498316310999869A140.6,140.6,0,0,1,140.21803472387344,-10.356772575209948Q0,0,-45.8471423142503,-132.91500871465524Q0,0,140.12904310674568,-11.498316310999869Z" id="ribbon29" fill="rgb(61, 89, 166)" style="stroke: rgb(43, 62, 116);"></path><path d="M140.46559791434132,-6.146202288128198A140.6,140.6,0,0,1,140.54706858078518,-3.857656458015348Q0,0,-45.8471423142503,-132.91500871465524Q0,0,140.46559791434132,-6.146202288128198Z" id="ribbon30" fill="rgb(61, 89, 166)" style="stroke: rgb(43, 62, 116);"></path><path d="M140.59953947831264,0.35985898127387633A140.6,140.6,0,0,1,140.57502966832942,2.649723334294009Q0,0,-45.8471423142503,-132.91500871465524Q0,0,140.59953947831264,0.35985898127387633Z" id="ribbon31" fill="rgb(61, 89, 166)" style="stroke: rgb(43, 62, 116);"></path><path d="M140.4322958724332,6.865149379101269A140.6,140.6,0,0,1,140.3717317217924,8.008553766139107Q0,0,-45.8471423142503,-132.91500871465524Q0,0,140.4322958724332,6.865149379101269Z" id="ribbon32" fill="rgb(61, 89, 166)" style="stroke: rgb(43, 62, 116);"></path><path d="M140.0683486038075,12.215470494510619A140.6,140.6,0,0,1,139.4549861022844,17.907173177574947Q0,0,-45.8471423142503,-132.91500871465524Q0,0,140.0683486038075,12.215470494510619Z" id="ribbon33" fill="rgb(61, 89, 166)" style="stroke: rgb(43, 62, 116);"></path><path d="M138.8551014483289,22.082137617864106A140.6,140.6,0,0,1,138.2742230740856,25.467611455690445Q0,0,-45.8471423142503,-132.91500871465524Q0,0,138.8551014483289,22.082137617864106Z" id="ribbon34" fill="rgb(61, 89, 166)" style="stroke: rgb(43, 62, 116);"></path><path d="M137.44809059574104,29.603756376260154A140.6,140.6,0,0,1,137.20245005251348,30.722104413394884Q0,0,-45.8471423142503,-132.91500871465524Q0,0,137.44809059574104,29.603756376260154Z" id="ribbon35" fill="rgb(61, 89, 166)" style="stroke: rgb(43, 62, 116);"></path><path d="M136.21918869128055,34.823736621581844A140.6,140.6,0,0,1,135.63395470274367,37.037687990668104Q0,0,-45.8471423142503,-132.91500871465524Q0,0,136.21918869128055,34.823736621581844Z" id="ribbon36" fill="rgb(61, 89, 166)" style="stroke: rgb(43, 62, 116);"></path><path d="M134.461960023012,41.08943059680821A140.6,140.6,0,0,1,134.12288314270543,42.18307975347674Q0,0,-45.8471423142503,-132.91500871465524Q0,0,134.461960023012,41.08943059680821Z" id="ribbon37" fill="rgb(61, 89, 166)" style="stroke: rgb(43, 62, 116);"></path><path d="M132.79722979451543,46.18718175969023A140.6,140.6,0,0,1,131.22249824479124,50.487780248251745Q0,0,-45.8471423142503,-132.91500871465524Q0,0,132.79722979451543,46.18718175969023Z" id="ribbon38" fill="rgb(61, 89, 166)" style="stroke: rgb(43, 62, 116);"></path><path d="M129.64904632654753,54.40114692372512A140.6,140.6,0,0,1,129.20172303026527,55.455159958389956Q0,0,-45.8471423142503,-132.91500871465524Q0,0,129.64904632654753,54.40114692372512Z" id="ribbon39" fill="rgb(61, 89, 166)" style="stroke: rgb(43, 62, 116);"></path><path d="M127.4801813535677,59.30567731728127A140.6,140.6,0,0,1,125.48101148215763,63.42614411592924Q0,0,-45.8471423142503,-132.91500871465524Q0,0,127.4801813535677,59.30567731728127Z" id="ribbon40" fill="rgb(61, 89, 166)" style="stroke: rgb(43, 62, 116);"></path><path d="M123.52205034317488,67.16147019696761A140.6,140.6,0,0,1,122.97101456029644,68.16516396233021Q0,0,-45.8471423142503,-132.91500871465524Q0,0,123.52205034317488,67.16147019696761Z" id="ribbon41" fill="rgb(61, 89, 166)" style="stroke: rgb(43, 62, 116);"></path><path d="M120.87103356445633,71.82306903119688A140.6,140.6,0,0,1,119.08041077691338,74.75436956594291Q0,0,-45.8471423142503,-132.91500871465524Q0,0,120.87103356445633,71.82306903119688Z" id="ribbon42" fill="rgb(61, 89, 166)" style="stroke: rgb(43, 62, 116);"></path><path d="M116.7845339034544,78.29260910809465A140.6,140.6,0,0,1,116.14307339274036,79.2410657606807Q0,0,-45.8471423142503,-132.91500871465524Q0,0,116.7845339034544,78.29260910809465Z" id="ribbon43" fill="rgb(61, 89, 166)" style="stroke: rgb(43, 62, 116);"></path><path d="M113.71393752535432,82.68917953686453A140.6,140.6,0,0,1,92.07821445913874,106.25423484274334Q0,0,-45.8471423142503,-132.91500871465524Q0,0,113.71393752535432,82.68917953686453Z" id="ribbon44" fill="rgb(61, 89, 166)" style="stroke: rgb(43, 62, 116);"></path><path d="M88.84963344743713,108.96835612349146A140.6,140.6,0,0,1,87.95928658918184,109.68830339977993Q0,0,-45.8471423142503,-132.91500871465524Q0,0,88.84963344743713,108.96835612349146Z" id="ribbon45" fill="rgb(61, 89, 166)" style="stroke: rgb(43, 62, 116);"></path><path d="M84.6295523519141,112.27733016381636A140.6,140.6,0,0,1,80.92787031448037,114.97408319426881Q0,0,-45.8471423142503,-132.91500871465524Q0,0,84.6295523519141,112.27733016381636Z" id="ribbon46" fill="rgb(61, 89, 166)" style="stroke: rgb(43, 62, 116);"></path><path d="M77.44275036833712,117.34982068749581A140.6,140.6,0,0,1,74.55292378864922,119.20663385300274Q0,0,-45.8471423142503,-132.91500871465524Q0,0,77.44275036833712,117.34982068749581Z" id="ribbon47" fill="rgb(61, 89, 166)" style="stroke: rgb(43, 62, 116);"></path><path d="M70.94371487915348,121.38924713147114A140.6,140.6,0,0,1,69.95281034350296,121.96296292336416Q0,0,-45.8471423142503,-132.91500871465524Q0,0,70.94371487915348,121.38924713147114Z" id="ribbon48" fill="rgb(61, 89, 166)" style="stroke: rgb(43, 62, 116);"></path><path d="M66.2629938606202,124.00635324299884A140.6,140.6,0,0,1,65.25093173134509,124.54186407867573Q0,0,-45.8471423142503,-132.91500871465524Q0,0,66.2629938606202,124.00635324299884Z" id="ribbon49" fill="rgb(61, 89, 166)" style="stroke: rgb(43, 62, 116);"></path><path d="M61.485875505027785,126.44305877896272A140.6,140.6,0,0,1,55.236628841878314,129.29530089753678Q0,0,-45.8471423142503,-132.91500871465524Q0,0,61.485875505027785,126.44305877896272Z" id="ribbon50" fill="rgb(61, 89, 166)" style="stroke: rgb(43, 62, 116);"></path><path d="M51.333496998825986,130.89397268733012A140.6,140.6,0,0,1,49.194848446858295,131.71266790362515Q0,0,-45.8471423142503,-132.91500871465524Q0,0,51.333496998825986,130.89397268733012Z" id="ribbon51" fill="rgb(61, 89, 166)" style="stroke: rgb(43, 62, 116);"></path><path d="M45.22192506855913,133.12902573478715A140.6,140.6,0,0,1,44.136268774387084,133.49288287648545Q0,0,-45.8471423142503,-132.91500871465524Q0,0,45.22192506855913,133.12902573478715Z" id="ribbon52" fill="rgb(61, 89, 166)" style="stroke: rgb(43, 62, 116);"></path><path d="M40.112223147639675,134.7567050434002A140.6,140.6,0,0,1,33.48242302019169,136.5550707542453Q0,0,-45.8471423142503,-132.91500871465524Q0,0,40.112223147639675,134.7567050434002Z" id="ribbon53" fill="rgb(61, 89, 166)" style="stroke: rgb(43, 62, 116);"></path><path d="M29.37131940736973,137.49794760748347A140.6,140.6,0,0,1,28.250609732539054,137.73257802618727Q0,0,-45.8471423142503,-132.91500871465524Q0,0,29.37131940736973,137.49794760748347Z" id="ribbon54" fill="rgb(61, 89, 166)" style="stroke: rgb(43, 62, 116);"></path><path d="M24.10654033951416,138.51799418436354A140.6,140.6,0,0,1,22.97769833884187,138.70971623880277Q0,0,-45.8471423142503,-132.91500871465524Q0,0,24.10654033951416,138.51799418436354Z" id="ribbon55" fill="rgb(61, 89, 166)" style="stroke: rgb(43, 62, 116);"></path><path d="M18.806691828534348,139.3365291029834A140.6,140.6,0,0,1,16.534855615658223,139.6243479833275Q0,0,-45.8471423142503,-132.91500871465524Q0,0,18.806691828534348,139.3365291029834Z" id="ribbon56" fill="rgb(61, 89, 166)" style="stroke: rgb(43, 62, 116);"></path><path d="M12.339313330458616,140.0574930038831A140.6,140.6,0,0,1,-2.5297905632759687,140.57723912392774Q0,0,-45.8471423142503,-132.91500871465524Q0,0,12.339313330458616,140.0574930038831Z" id="ribbon57" fill="rgb(61, 89, 166)" style="stroke: rgb(43, 62, 116);"></path><path d="M-6.745336847508392,140.43810177730845A140.6,140.6,0,0,1,-10.174058413030393,140.2314106589827Q0,0,-45.8471423142503,-132.91500871465524Q0,0,-6.745336847508392,140.43810177730845Z" id="ribbon58" fill="rgb(61, 89, 166)" style="stroke: rgb(43, 62, 116);"></path><path d="M-14.37579173692644,139.86313528566603A140.6,140.6,0,0,1,-15.514312023387093,139.74142593533597Q0,0,-45.8471423142503,-132.91500871465524Q0,0,-14.37579173692644,139.86313528566603Z" id="ribbon59" fill="rgb(61, 89, 166)" style="stroke: rgb(43, 62, 116);"></path><path d="M-19.69894507650927,139.2131874603576A140.6,140.6,0,0,1,-23.093877737261376,138.69042076169652Q0,0,-45.8471423142503,-132.91500871465524Q0,0,-19.69894507650927,139.2131874603576Z" id="ribbon60" fill="rgb(61, 89, 166)" style="stroke: rgb(43, 62, 116);"></path><path d="M-27.243574815716247,137.93530233867062A140.6,140.6,0,0,1,-28.365968800595873,137.7088661415946Q0,0,-45.8471423142503,-132.91500871465524Q0,0,-27.243574815716247,137.93530233867062Z" id="ribbon61" fill="rgb(61, 89, 166)" style="stroke: rgb(43, 62, 116);"></path><path d="M-32.483851394193955,136.79605037646343A140.6,140.6,0,0,1,-33.59679393711109,136.52697695747642Q0,0,-45.8471423142503,-132.91500871465524Q0,0,-32.483851394193955,136.79605037646343Z" id="ribbon62" fill="rgb(61, 89, 166)" style="stroke: rgb(43, 62, 116);"></path><path d="M-37.676871478671245,135.45779178614896A140.6,140.6,0,0,1,-42.06863725384348,134.1588228913944Q0,0,-45.8471423142503,-132.91500871465524Q0,0,-37.676871478671245,135.45779178614896Z" id="ribbon63" fill="rgb(61, 89, 166)" style="stroke: rgb(43, 62, 116);"></path><path d="M-46.073868786058526,132.83658613155134A140.6,140.6,0,0,1,-47.15411617556967,132.45697160852228Q0,0,-45.8471423142503,-132.91500871465524Q0,0,-46.073868786058526,132.83658613155134Z" id="ribbon64" fill="rgb(61, 89, 166)" style="stroke: rgb(43, 62, 116);"></path><path d="M-51.10601153339971,130.98295914029433A140.6,140.6,0,0,1,-53.23252199477529,130.1332340414076Q0,0,-45.8471423142503,-132.91500871465524Q0,0,-51.10601153339971,130.98295914029433Z" id="ribbon65" fill="rgb(61, 89, 166)" style="stroke: rgb(43, 62, 116);"></path><path d="M-57.111980604461785,128.47794235368022A140.6,140.6,0,0,1,-58.15636668198898,128.00858179962015Q0,0,-45.8471423142503,-132.91500871465524Q0,0,-57.111980604461785,128.47794235368022Z" id="ribbon66" fill="rgb(61, 89, 166)" style="stroke: rgb(43, 62, 116);"></path><path d="M-61.969879720992246,126.20655294938433A140.6,140.6,0,0,1,-62.99560730055813,125.69770666497406Q0,0,-45.8471423142503,-132.91500871465524Q0,0,-61.969879720992246,126.20655294938433Z" id="ribbon67" fill="rgb(61, 89, 166)" style="stroke: rgb(43, 62, 116);"></path><path d="M-66.73762698903329,123.75156218760496A140.6,140.6,0,0,1,-67.74320387414238,123.2039704265507Q0,0,-45.8471423142503,-132.91500871465524Q0,0,-66.73762698903329,123.75156218760496Z" id="ribbon68" fill="rgb(61, 89, 166)" style="stroke: rgb(43, 62, 116);"></path><path d="M-71.40828643854141,121.11654151234349A140.6,140.6,0,0,1,-72.39224974730016,120.5310008940626Q0,0,-45.8471423142503,-132.91500871465524Q0,0,-71.40828643854141,121.11654151234349Z" id="ribbon69" fill="rgb(61, 89, 166)" style="stroke: rgb(43, 62, 116);"></path><path d="M-75.97506333980385,118.30532426950528A140.6,140.6,0,0,1,-81.66277431893096,114.45327120941258Q0,0,-45.8471423142503,-132.91500871465524Q0,0,-75.97506333980385,118.30532426950528Z" id="ribbon70" fill="rgb(61, 89, 166)" style="stroke: rgb(43, 62, 116);"></path><path d="M-85.0591119462616,111.95225533643053A140.6,140.6,0,0,1,-86.87117027119025,110.55206816570133Q0,0,-45.8471423142503,-132.91500871465524Q0,0,-85.0591119462616,111.95225533643053Z" id="ribbon71" fill="rgb(61, 89, 166)" style="stroke: rgb(43, 62, 116);"></path><path d="M-90.14814575943284,107.8965792605866A140.6,140.6,0,0,1,-91.89347522862592,106.4140461142509Q0,0,-45.8471423142503,-132.91500871465524Q0,0,-90.14814575943284,107.8965792605866Z" id="ribbon72" fill="rgb(61, 89, 166)" style="stroke: rgb(43, 62, 116);"></path><path d="M-95.04406880785315,103.60977263003753A140.6,140.6,0,0,1,-97.54676762972055,101.2570398786835Q0,0,-45.8471423142503,-132.91500871465524Q0,0,-95.04406880785315,103.60977263003753Z" id="ribbon73" fill="rgb(61, 89, 166)" style="stroke: rgb(43, 62, 116);"></path><path d="M-100.54013043657697,98.2855135398706A140.6,140.6,0,0,1,-107.46746289459722,90.65927651927501Q0,0,-45.8471423142503,-132.91500871465524Q0,0,-100.54013043657697,98.2855135398706Z" id="ribbon74" fill="rgb(61, 89, 166)" style="stroke: rgb(43, 62, 116);"></path><path d="M-110.13847651040476,87.39494259948351A140.6,140.6,0,0,1,-111.54724909759724,85.58955087368193Q0,0,-45.8471423142503,-132.91500871465524Q0,0,-110.13847651040476,87.39494259948351Z" id="ribbon75" fill="rgb(61, 89, 166)" style="stroke: rgb(43, 62, 116);"></path><path d="M-114.06435799067312,82.20512293145461A140.6,140.6,0,0,1,-123.77846700132311,66.68771331214143Q0,0,-45.8471423142503,-132.91500871465524Q0,0,-114.06435799067312,82.20512293145461Z" id="ribbon76" fill="rgb(61, 89, 166)" style="stroke: rgb(43, 62, 116);"></path><path d="M-125.72310218672878,62.944909059790945A140.6,140.6,0,0,1,-128.64746720688098,56.72908584892307Q0,0,-45.8471423142503,-132.91500871465524Q0,0,-125.72310218672878,62.944909059790945Z" id="ribbon77" fill="rgb(61, 89, 166)" style="stroke: rgb(43, 62, 116);"></path><path d="M-130.29119749442842,52.84471454618568A140.6,140.6,0,0,1,-131.13458551137265,50.71568280877715Q0,0,-45.8471423142503,-132.91500871465524Q0,0,-130.29119749442842,52.84471454618568Z" id="ribbon78" fill="rgb(61, 89, 166)" style="stroke: rgb(43, 62, 116);"></path><path d="M-132.5968216475124,46.75941497685555A140.6,140.6,0,0,1,-135.04556299408617,39.128709608295296Q0,0,-45.8471423142503,-132.91500871465524Q0,0,-132.5968216475124,46.75941497685555Z" id="ribbon79" fill="rgb(61, 89, 166)" style="stroke: rgb(43, 62, 116);"></path><path d="M-136.1584822653689,35.06034379739061A140.6,140.6,0,0,1,-136.4394865474349,33.95035361630756Q0,0,-45.8471423142503,-132.91500871465524Q0,0,-136.1584822653689,35.06034379739061Z" id="ribbon80" fill="rgb(61, 89, 166)" style="stroke: rgb(43, 62, 116);"></path><path d="M-137.39645122195586,29.842506456608255A140.6,140.6,0,0,1,-137.63492219061538,28.722607708619492Q0,0,-45.8471423142503,-132.91500871465524Q0,0,-137.39645122195586,29.842506456608255Z" id="ribbon81" fill="rgb(61, 89, 166)" style="stroke: rgb(43, 62, 116);"></path><path d="M-138.43454010600897,24.58125516807043A140.6,140.6,0,0,1,-139.46993677034826,17.790355175629905Q0,0,-45.8471423142503,-132.91500871465524Q0,0,-138.43454010600897,24.58125516807043Z" id="ribbon82" fill="rgb(61, 89, 166)" style="stroke: rgb(43, 62, 116);"></path><path d="M-139.94081060804382,13.598879599570274A140.6,140.6,0,0,1,-140.14373090787817,11.317892348853382Q0,0,-45.8471423142503,-132.91500871465524Q0,0,-139.94081060804382,13.598879599570274Z" id="ribbon83" fill="rgb(61, 89, 166)" style="stroke: rgb(43, 62, 116);"></path><path d="M-140.4201568009205,7.109118370438013A140.6,140.6,0,0,1,-140.4733946550712,5.965349451676166Q0,0,-45.8471423142503,-132.91500871465524Q0,0,-140.4201568009205,7.109118370438013Z" id="ribbon84" fill="rgb(61, 89, 166)" style="stroke: rgb(43, 62, 116);"></path><path d="M-140.58912000899696,1.7490955079259396A140.6,140.6,0,0,1,-140.58989262751194,-1.6858502260458526Q0,0,-45.8471423142503,-132.91500871465524Q0,0,-140.58912000899696,1.7490955079259396Z" id="ribbon85" fill="rgb(61, 89, 166)" style="stroke: rgb(43, 62, 116);"></path><path d="M-140.47606399979935,-5.902155803117283A140.6,140.6,0,0,1,-140.42334068434542,-7.045948555606894Q0,0,-45.8471423142503,-132.91500871465524Q0,0,-140.47606399979935,-5.902155803117283Z" id="ribbon86" fill="rgb(61, 89, 166)" style="stroke: rgb(43, 62, 116);"></path><path d="M-140.14880816885656,-11.254846460482936A140.6,140.6,0,0,1,-139.94691400934232,-13.53592476566492Q0,0,-45.8471423142503,-132.91500871465524Q0,0,-140.14880816885656,-11.254846460482936Z" id="ribbon87" fill="rgb(61, 89, 166)" style="stroke: rgb(43, 62, 116);"></path><path d="M-139.4779257870553,-17.727611743850034A140.6,140.6,0,0,1,-139.32893314771164,-18.862883870726066Q0,0,-45.8471423142503,-132.91500871465524Q0,0,-139.4779257870553,-17.727611743850034Z" id="ribbon88" fill="rgb(61, 89, 166)" style="stroke: rgb(43, 62, 116);"></path><path d="M-138.70043819304158,-23.033637252033195A140.6,140.6,0,0,1,-137.87666766919463,-27.538781970858054Q0,0,-45.8471423142503,-132.91500871465524Q0,0,-138.70043819304158,-23.033637252033195Z" id="ribbon89" fill="rgb(61, 89, 166)" style="stroke: rgb(43, 62, 116);"></path><path d="M-136.98858828175807,-31.662070061367963A140.6,140.6,0,0,1,-136.72620078108017,-32.77660781673035Q0,0,-45.8471423142503,-132.91500871465524Q0,0,-136.98858828175807,-31.662070061367963Z" id="ribbon90" fill="rgb(61, 89, 166)" style="stroke: rgb(43, 62, 116);"></path><path d="M-135.68152785869566,-36.86303023260554A140.6,140.6,0,0,1,-134.06846177977104,-42.35572636617235Q0,0,-45.8471423142503,-132.91500871465524Q0,0,-135.68152785869566,-36.86303023260554Z" id="ribbon91" fill="rgb(61, 89, 166)" style="stroke: rgb(43, 62, 116);"></path><path d="M-132.73765429785163,-46.358118291233886A140.6,140.6,0,0,1,-112.9991495255958,-83.66332653254973Q0,0,-45.8471423142503,-132.91500871465524Q0,0,-132.73765429785163,-46.358118291233886Z" id="ribbon92" fill="rgb(61, 89, 166)" style="stroke: rgb(43, 62, 116);"></path><path d="M-110.43878039396759,-87.01514687163953A140.6,140.6,0,0,1,-106.05688525482776,-92.30545536448155Q0,0,-45.8471423142503,-132.91500871465524Q0,0,-110.43878039396759,-87.01514687163953Z" id="ribbon93" fill="rgb(61, 89, 166)" style="stroke: rgb(43, 62, 116);"></path><path d="M-103.2404149306988,-95.44515034792046A140.6,140.6,0,0,1,-102.45971918226748,-96.28273960108784Q0,0,-45.8471423142503,-132.91500871465524Q0,0,-103.2404149306988,-95.44515034792046Z" id="ribbon94" fill="rgb(61, 89, 166)" style="stroke: rgb(43, 62, 116);"></path><path d="M-99.52556683134597,-99.3127461451917A140.6,140.6,0,0,1,-91.11688050753166,-107.07975572710369Q0,0,-45.8471423142503,-132.91500871465524Q0,0,-99.52556683134597,-99.3127461451917Z" id="ribbon95" fill="rgb(61, 89, 166)" style="stroke: rgb(43, 62, 116);"></path><path d="M-87.86397015181018,-109.7646698585743A140.6,140.6,0,0,1,-86.06460431726198,-111.18113096975192Q0,0,-45.8471423142503,-132.91500871465524Q0,0,-87.86397015181018,-109.7646698585743Z" id="ribbon96" fill="rgb(61, 89, 166)" style="stroke: rgb(43, 62, 116);"></path><path d="M-82.69094451339556,-113.71265406929228A140.6,140.6,0,0,1,-79.88840334977266,-115.69875976095868Q0,0,-45.8471423142503,-132.91500871465524Q0,0,-82.69094451339556,-113.71265406929228Z" id="ribbon97" fill="rgb(61, 89, 166)" style="stroke: rgb(43, 62, 116);"></path><path d="M-76.38201409257962,-118.04299184263742A140.6,140.6,0,0,1,-75.41817996784089,-118.66110622414728Q0,0,-45.8471423142503,-132.91500871465524Q0,0,-76.38201409257962,-118.04299184263742Z" id="ribbon98" fill="rgb(61, 89, 166)" style="stroke: rgb(43, 62, 116);"></path><path d="M-71.82494509636777,-120.86991876353585A140.6,140.6,0,0,1,-68.85080324703667,-122.58844518239817Q0,0,-45.8471423142503,-132.91500871465524Q0,0,-71.82494509636777,-120.86991876353585Z" id="ribbon99" fill="rgb(61, 89, 166)" style="stroke: rgb(43, 62, 116);"></path><path d="M-65.14272097692812,-124.59849880204051A140.6,140.6,0,0,1,-63.10477371709418,-125.64293666623021Q0,0,-45.8471423142503,-132.91500871465524Q0,0,-65.14272097692812,-124.59849880204051Z" id="ribbon100" fill="rgb(61, 89, 166)" style="stroke: rgb(43, 62, 116);"></path><path d="M-59.30765596642962,-127.47926083786187A140.6,140.6,0,0,1,-49.8133648183187,-131.47999347990967Q0,0,-45.8471423142503,-132.91500871465524Q0,0,-59.30765596642962,-127.47926083786187Z" id="ribbon101" fill="rgb(61, 89, 166)" style="stroke: rgb(43, 62, 116);"></path><path d="M-41.83966047668833,-134.23040941305158A140.6,140.6,0,0,1,-39.647931399148966,-134.8940381772611Q0,0,-45.8471423142503,-132.91500871465524Q0,0,-41.83966047668833,-134.23040941305158Z" id="ribbon102" fill="rgb(61, 89, 166)" style="stroke: rgb(43, 62, 116);"></path><path d="M-35.58387701863536,-136.02259994693026A140.6,140.6,0,0,1,-33.363788705487096,-136.58410450420507Q0,0,-45.8471423142503,-132.91500871465524Q0,0,-35.58387701863536,-136.02259994693026Z" id="ribbon103" fill="rgb(61, 89, 166)" style="stroke: rgb(43, 62, 116);"></path><path d="M-29.25186759225011,-137.52340979762488A140.6,140.6,0,0,1,-28.130954523185572,-137.75706659774104Q0,0,-45.8471423142503,-132.91500871465524Q0,0,-29.25186759225011,-137.52340979762488Z" id="ribbon104" fill="rgb(61, 89, 166)" style="stroke: rgb(43, 62, 116);"></path><path d="M-23.986204424013586,-138.5388826190302A140.6,140.6,0,0,1,-21.72667229314637,-138.9111648179016Q0,0,-45.8471423142503,-132.91500871465524Q0,0,-23.986204424013586,-138.5388826190302Z" id="ribbon105" fill="rgb(61, 89, 166)" style="stroke: rgb(43, 62, 116);"></path><path d="M-17.550186151443334,-139.50036188501335A140.6,140.6,0,0,1,-10.715620012005115,-140.19106778878003Q0,0,-45.8471423142503,-132.91500871465524Q0,0,-17.550186151443334,-139.50036188501335Z" id="ribbon106" fill="rgb(61, 89, 166)" style="stroke: rgb(43, 62, 116);"></path><path d="M-6.5056971423945695,-140.44940692182163A140.6,140.6,0,0,1,-4.217367328469577,-140.53673474510768Q0,0,-45.8471423142503,-132.91500871465524Q0,0,-6.5056971423945695,-140.44940692182163Z" id="ribbon107" fill="rgb(61, 89, 166)" style="stroke: rgb(43, 62, 116);"></path></g></g></g></g></svg>