<svg width="750" height="450" style="display: block; touch-action: none;" xmlns="http://www.w3.org/2000/svg" xmlns:xlink="http://www.w3.org/1999/xlink"><rect fill="white" x="0" y="0" width="750" height="450" style="pointer-events: none;"></rect><g transform="matrix(0.8899964400142397,0,0,0.8899964400142397,39.36667853328589,38.66856532573877)" style=""><g width="750" height="450"><g transform="translate(375,225)"><g class="groups"><g><path id="arc0" fill="rgb(158, 1, 66)" style="stroke: rgb(111, 1, 46);" d="M1.1327982892113017e-14,-185A185,185,0,0,1,88.91219812753651,-162.23323033253604L62.238538689275565,-113.56326123277523A129.5,129.5,0,0,0,7.929588024479112e-15,-129.5Z"></path><g transform="rotate(-75.63749028339991) translate(185,0)"><text id="text0" x="6" style="font-size: 8pt;" font-weight="normal">unhappiness</text></g></g><g><path id="arc1" fill="rgb(182, 27, 71)" style="stroke: rgb(127, 19, 50);" d="M96.90936311228467,-157.5867232388927A185,185,0,0,1,118.34531386967184,-142.19488979948912L82.84171970877028,-99.53642285964239A129.5,129.5,0,0,0,67.83655417859927,-110.31070626722487Z"></path><g transform="rotate(-54.32020538045826) translate(185,0)"><text id="text1" x="6" style="font-size: 8pt;">mores</text></g></g><g><path id="arc2" fill="rgb(203, 53, 75)" style="stroke: rgb(142, 37, 53);" d="M125.3041955105729,-136.10238273978942A185,185,0,0,1,155.1489190254842,-100.76612985137294L108.60424331783892,-70.53629089596106A129.5,129.5,0,0,0,87.71293685740102,-95.2716679178526Z"></path><g transform="rotate(-40.184175335816654) translate(185,0)"><text id="text2" x="6" style="font-size: 8pt;" font-weight="normal">virtue</text></g></g><g><path id="arc3" fill="rgb(221, 76, 74)" style="stroke: rgb(155, 53, 52);" d="M159.99123073729277,-92.88598434191427A185,185,0,0,1,170.52690690663533,-71.73265658579592L119.36883483464473,-50.212859610057144A129.5,129.5,0,0,0,111.99386151610494,-65.02018903933998Z"></path><g transform="rotate(-26.476167103921412) translate(185,0)"><text id="text3" x="6" style="font-size: 8pt;" font-weight="normal">gallantry</text></g></g><g><path id="arc4" fill="rgb(234, 98, 73)" style="stroke: rgb(164, 69, 51);" d="M173.89893126308712,-63.12021629839443A185,185,0,0,1,181.53688621931727,-35.62806396360406L127.07582035352208,-24.939644774522847A129.5,129.5,0,0,0,121.72925188416099,-44.184151408876104Z"></path><g transform="rotate(-15.526521665280484) translate(185,0)"><text id="text4" x="6" style="font-size: 8pt;" font-weight="normal">melancholia</text></g></g><g><path id="arc5" fill="rgb(243, 122, 76)" style="stroke: rgb(170, 85, 53);" d="M183.090673422458,-26.51047539579094A185,185,0,0,1,132.69585767101918,128.9062037178685L92.88710036971344,90.23434260250794A129.5,129.5,0,0,0,128.1634713957206,-18.55733277705366Z"></path><g transform="rotate(17.96560591133543) translate(185,0)"><text id="text5" x="6" style="font-size: 8pt;" font-weight="normal">feeling</text></g></g><g><path id="arc6" fill="rgb(249, 148, 86)" style="stroke: rgb(174, 104, 60);" d="M126.08739742660794,135.3771332618054A185,185,0,0,1,123.59439721712954,137.65691038423896L86.51607805199068,96.35983726896728A129.5,129.5,0,0,0,88.26117819862556,94.76399328326379Z"></path><g transform="rotate(47.55797919404003) translate(185,0)"><text id="text6" x="6" style="font-size: 8pt;">eating</text></g></g><g><path id="arc7" fill="rgb(252, 174, 101)" style="stroke: rgb(176, 122, 71);" d="M116.55995837859457,143.66202039084754A185,185,0,0,1,102.46478330371785,154.03236082889254L71.72534831260249,107.82265258022477A129.5,129.5,0,0,0,81.5919708650162,100.56341427359328Z"></path><g transform="rotate(53.65671075488888) translate(185,0)"><text id="text7" x="6" style="font-size: 8pt;">attraction</text></g></g><g><path id="arc8" fill="rgb(253, 197, 118)" style="stroke: rgb(177, 138, 83);" d="M94.6383195708726,158.96096523612766A185,185,0,0,1,-4.153198990064596,184.95337503854566L-2.907239293045217,129.46736252698196A129.5,129.5,0,0,0,66.24682369961081,111.27267566528937Z"></path><g transform="rotate(75.25934353299473) translate(185,0)"><text id="text8" x="6" style="font-size: 8pt;" font-weight="normal">love</text></g></g><g><path id="arc9" fill="rgb(254, 217, 137)" style="stroke: rgb(178, 152, 96);" d="M-13.391824611033819,184.5146580453361A185,185,0,0,1,-22.86552410087076,183.5815018121175L-16.005866870609534,128.50705126848226A129.5,129.5,0,0,0,-9.374277227723672,129.16026063173527Z"></path><g transform="rotate(95.6254688520556) translate(185,0)"><text id="text9" x="6" transform="rotate(180) translate(-12)" style="text-anchor: end; font-size: 8pt;">passion</text></g></g><g><path id="arc10" fill="rgb(254, 234, 157)" style="stroke: rgb(178, 164, 110);" d="M-32.01219910384518,182.20927283905112A185,185,0,0,1,-35.33399188524842,181.59435293382114L-24.733794319673898,127.1160470536748A129.5,129.5,0,0,0,-22.408539372691624,127.54649098733579Z"></path><g transform="rotate(100.48769295385935) translate(185,0)"><text id="text10" x="6" transform="rotate(180) translate(-12)" style="text-anchor: end; font-size: 8pt;">sociability</text></g></g><g><path id="arc11" fill="rgb(253, 245, 172)" style="stroke: rgb(177, 172, 120);" d="M-44.36576850006421,179.6014437174677A185,185,0,0,1,-47.63788281455007,178.7613831926437L-33.34651797018505,125.13296823485058A129.5,129.5,0,0,0,-31.056037950044946,125.72101060222738Z"></path><g transform="rotate(104.39875747178235) translate(185,0)"><text id="text11" x="6" transform="rotate(180) translate(-12)" style="text-anchor: end; font-size: 8pt;">morality</text></g></g><g><path id="arc12" fill="rgb(247, 250, 175)" style="stroke: rgb(173, 175, 122);" d="M-56.512693295342466,176.1570762033321A185,185,0,0,1,-67.50548381654993,172.24404098456793L-47.253838671584944,120.57082868919755A129.5,129.5,0,0,0,-39.558885306739725,123.30995334233246Z"></path><g transform="rotate(109.59388742794442) translate(185,0)"><text id="text12" x="6" transform="rotate(180) translate(-12)" style="text-anchor: end; font-size: 8pt;">interaction</text></g></g><g><path id="arc13" fill="rgb(237, 248, 167)" style="stroke: rgb(166, 174, 117);" d="M-76.02973362010077,168.6549127824521A185,185,0,0,1,-90.28760227817122,161.47182068354456L-63.20132159471985,113.0302744784812A129.5,129.5,0,0,0,-53.22081353407054,118.05843894771647Z"></path><g transform="rotate(116.73889453106213) translate(185,0)"><text id="text13" x="6" transform="rotate(180) translate(-12)" style="text-anchor: end; font-size: 8pt;">night</text></g></g><g><path id="arc14" fill="rgb(221, 241, 160)" style="stroke: rgb(155, 169, 112);" d="M-98.24499374414812,156.75752359683506A185,185,0,0,1,-112.86003193905839,146.58653823156723L-79.00202235734086,102.61057676209705A129.5,129.5,0,0,0,-68.77149562090368,109.73026651778453Z"></path><g transform="rotate(124.83506121806064) translate(185,0)"><text id="text14" x="6" transform="rotate(180) translate(-12)" style="text-anchor: end; font-size: 8pt;">philosophy</text></g></g><g><path id="arc15" fill="rgb(198, 232, 159)" style="stroke: rgb(139, 162, 111);" d="M-120.045259694397,140.7626925889981A185,185,0,0,1,-163.42033244561128,86.71098513663587L-114.3942327119279,60.697689595645116A129.5,129.5,0,0,0,-84.03168178607791,98.53388481229868Z"></path><g transform="rotate(141.25387426401613) translate(185,0)"><text id="text15" x="6" transform="rotate(180) translate(-12)" style="text-anchor: end; font-size: 8pt;">travel</text></g></g><g><path id="arc16" fill="rgb(172, 222, 162)" style="stroke: rgb(120, 155, 113);" d="M-167.5498425876574,78.43500652674943A185,185,0,0,1,-174.2111284457448,62.253375215005015L-121.94778991202136,43.57736265050351A129.5,129.5,0,0,0,-117.28488981136017,54.904504568724604Z"></path><g transform="rotate(157.62512933077767) translate(185,0)"><text id="text16" x="6" transform="rotate(180) translate(-12)" style="text-anchor: end; font-size: 8pt;">personality</text></g></g><g><path id="arc17" fill="rgb(144, 210, 164)" style="stroke: rgb(101, 147, 115);" d="M-177.10478187643034,53.46864722902606A185,185,0,0,1,-178.38117682776615,49.042387314864925L-124.8668237794363,34.32967112040545A129.5,129.5,0,0,0,-123.97334731350124,37.42805306031825Z"></path><g transform="rotate(163.91409280840264) translate(185,0)"><text id="text17" x="6" transform="rotate(180) translate(-12)" style="text-anchor: end; font-size: 8pt;">politics</text></g></g><g><path id="arc18" fill="rgb(116, 196, 167)" style="stroke: rgb(81, 137, 117);" d="M-180.60934458333975,40.06575406973444A185,185,0,0,1,-183.22548089528354,25.562142920578665L-128.25783662669846,17.893500044405066A129.5,129.5,0,0,0,-126.42654120833782,28.04602784881411Z"></path><g transform="rotate(169.77503447328127) translate(185,0)"><text id="text18" x="6" transform="rotate(180) translate(-12)" style="text-anchor: end; font-size: 8pt;" font-weight="normal">mourning</text></g></g><g><path id="arc19" fill="rgb(90, 177, 173)" style="stroke: rgb(63, 124, 121);" d="M-184.27407142310622,16.372739573814506A185,185,0,0,1,-112.21571721167032,-147.08036174374345L-78.55100204816922,-102.95625322062043A129.5,129.5,0,0,0,-128.99184999617435,11.460917701670155Z"></path><g transform="rotate(203.79029982103157) translate(185,0)"><text id="text19" x="6" transform="rotate(180) translate(-12)" style="text-anchor: end; font-size: 8pt;" font-weight="normal">Sentimentalism</text></g></g><g><path id="arc20" fill="rgb(71, 154, 179)" style="stroke: rgb(50, 108, 125);" d="M-104.72452248958051,-152.50499791590227A185,185,0,0,1,-100.63731482941134,-155.23250582247888L-70.44612038058794,-108.66275407573522A129.5,129.5,0,0,0,-73.30716574270636,-106.75349854113158Z"></path><g transform="rotate(236.28370983457262) translate(185,0)"><text id="text20" x="6" transform="rotate(180) translate(-12)" style="text-anchor: end; font-size: 8pt;" font-weight="normal">nature</text></g></g><g><path id="arc21" fill="rgb(66, 129, 180)" style="stroke: rgb(46, 90, 126);" d="M-92.75315270651156,-160.0682750047696A185,185,0,0,1,-68.46425410286137,-171.86519691356605L-47.92497787200296,-120.30563783949623A129.5,129.5,0,0,0,-64.9272068945581,-112.04779250333871Z"></path><g transform="rotate(244.09452864640684) translate(185,0)"><text id="text21" x="6" transform="rotate(180) translate(-12)" style="text-anchor: end; font-size: 8pt;" font-weight="normal">happiness</text></g></g><g><path id="arc22" fill="rgb(76, 104, 173)" style="stroke: rgb(53, 73, 121);" d="M-59.78901184469838,-175.07219671505385A185,185,0,0,1,-56.58223593130937,-176.13475119071092L-39.60756515191656,-123.29432583349764A129.5,129.5,0,0,0,-41.852308291288864,-122.5505377005377Z"></path><g transform="rotate(251.66755756227104) translate(185,0)"><text id="text22" x="6" transform="rotate(180) translate(-12)" style="text-anchor: end; font-size: 8pt;">education</text></g></g><g><path id="arc23" fill="rgb(94, 79, 162)" style="stroke: rgb(66, 55, 113);" d="M-47.70845432591533,-178.7425617636495A185,185,0,0,1,-9.246146315075984,-184.76879817306872L-6.472302420553189,-129.33815872114812A129.5,129.5,0,0,0,-33.395918028140734,-125.11979323455463Z"></path><g transform="rotate(261.0953476667027) translate(185,0)"><text id="text23" x="6" transform="rotate(180) translate(-12)" style="text-anchor: end; font-size: 8pt;" font-weight="normal">family</text></g></g></g><g class="ribbons"><path d="M45.44720942352325,-121.26335454544551A129.5,129.5,0,0,1,50.43932249415345,-119.273319507469Q0,0,101.18608198709943,-80.81848063469143A129.5,129.5,0,0,1,104.45213074667777,-76.55065239747428Q0,0,45.44720942352325,-121.26335454544551Z" id="ribbon0" fill="rgb(203, 53, 75)" style="stroke: rgb(142, 37, 53);"></path><path d="M59.00925824817203,-115.27427050734497A129.5,129.5,0,0,1,62.238538689275565,-113.56326123277523Q0,0,124.6874034668916,-34.97572610660987A129.5,129.5,0,0,1,125.6246885142387,-31.443403691402445Q0,0,59.00925824817203,-115.27427050734497Z" id="ribbon1" fill="rgb(234, 98, 73)" style="stroke: rgb(164, 69, 51);"></path><path d="M35.02999199020457,-124.67216875135446A129.5,129.5,0,0,1,45.44720942352325,-121.26335454544551Q0,0,127.25287233373768,24.019918459758696A129.5,129.5,0,0,1,124.76586257186958,34.694805615500336Q0,0,35.02999199020457,-124.67216875135446Z" id="ribbon2" fill="rgb(243, 122, 76)" style="stroke: rgb(170, 85, 53);"></path><path d="M23.939408060825148,-127.2680428925396A129.5,129.5,0,0,1,35.02999199020457,-124.67216875135446Q0,0,48.14836126031733,120.21641031051449A129.5,129.5,0,0,1,37.398566010198124,123.9822457466425Q0,0,23.939408060825148,-127.2680428925396Z" id="ribbon3" fill="rgb(253, 197, 118)" style="stroke: rgb(177, 138, 83);"></path><path d="M50.43932249415345,-119.273319507469A129.5,129.5,0,0,1,54.760807653409245,-117.3520513035299Q0,0,-106.950128025787,73.01999805031338A129.5,129.5,0,0,1,-109.54504495951892,69.06615035469243Q0,0,50.43932249415345,-119.273319507469Z" id="ribbon4" fill="rgb(198, 232, 159)" style="stroke: rgb(139, 162, 111);"></path><path d="M7.929588024479112e-15,-129.5A129.5,129.5,0,0,1,23.939408060825148,-127.2680428925396Q0,0,-127.97227614845431,-19.832965925038877A129.5,129.5,0,0,1,-122.10032174194178,-43.148133569301685Q0,0,7.929588024479112e-15,-129.5Z" id="ribbon5" fill="rgb(90, 177, 173)" style="stroke: rgb(63, 124, 121);"></path><path d="M54.760807653409245,-117.3520513035299A129.5,129.5,0,0,1,59.00925824817203,-115.27427050734497Q0,0,-19.72673657177298,-127.98869428284623A129.5,129.5,0,0,1,-15.040229784272793,-128.62364280347634Q0,0,54.760807653409245,-117.3520513035299Z" id="ribbon6" fill="rgb(94, 79, 162)" style="stroke: rgb(66, 55, 113);"></path><path d="M78.12721274042626,-103.27820984802251A129.5,129.5,0,0,1,80.50620812039965,-101.43471030211944Q0,0,118.16969480070267,-52.9733256527168A129.5,129.5,0,0,1,119.36883483464473,-50.212859610057144Q0,0,78.12721274042626,-103.27820984802251Z" id="ribbon7" fill="rgb(221, 76, 74)" style="stroke: rgb(155, 53, 52);"></path><path d="M72.176564975472,-107.52113033418811A129.5,129.5,0,0,1,75.53149575611498,-105.19145948623388Q0,0,114.34135300710228,60.797244941734185A129.5,129.5,0,0,1,112.36715278060274,64.37292113909919Q0,0,72.176564975472,-107.52113033418811Z" id="ribbon8" fill="rgb(243, 122, 76)" style="stroke: rgb(170, 85, 53);"></path><path d="M75.53149575611498,-105.19145948623388A129.5,129.5,0,0,1,78.12721274042626,-103.27820984802251Q0,0,-73.97246548190043,106.2935762430122A129.5,129.5,0,0,1,-76.59610710236056,104.41880279319291Q0,0,75.53149575611498,-105.19145948623388Z" id="ribbon9" fill="rgb(221, 241, 160)" style="stroke: rgb(155, 169, 112);"></path><path d="M67.83655417859927,-110.31070626722487A129.5,129.5,0,0,1,72.176564975472,-107.52113033418811Q0,0,-100.79838268897886,81.30151319185988A129.5,129.5,0,0,1,-103.9567544669932,77.22203830959972Q0,0,67.83655417859927,-110.31070626722487Z" id="ribbon10" fill="rgb(198, 232, 159)" style="stroke: rgb(139, 162, 111);"></path><path d="M80.50620812039965,-101.43471030211944A129.5,129.5,0,0,1,82.84171970877028,-99.53642285964239Q0,0,-82.75504346462834,-99.6084975349366A129.5,129.5,0,0,1,-80.41788033237876,-101.5047512328719Q0,0,80.50620812039965,-101.43471030211944Z" id="ribbon11" fill="rgb(90, 177, 173)" style="stroke: rgb(63, 124, 121);"></path><path d="M96.03425474049087,-86.87733833652194A129.5,129.5,0,0,1,101.18608198709943,-80.81848063469143Q0,0,121.82845850589769,43.90987016693134A129.5,129.5,0,0,1,118.90332354199916,51.30545439489517Q0,0,96.03425474049087,-86.87733833652194Z" id="ribbon12" fill="rgb(243, 122, 76)" style="stroke: rgb(170, 85, 53);"></path><path d="M104.45213074667777,-76.55065239747428A129.5,129.5,0,0,1,107.29814779057894,-72.50763739573284Q0,0,26.359444391348493,126.78891785711954A129.5,129.5,0,0,1,21.500355103077396,127.70272013720606Q0,0,104.45213074667777,-76.55065239747428Z" id="ribbon13" fill="rgb(253, 197, 118)" style="stroke: rgb(177, 138, 83);"></path><path d="M87.71293685740102,-95.2716679178526A129.5,129.5,0,0,1,96.03425474049087,-86.87733833652194Q0,0,-113.91080937254017,-61.60014211097906A129.5,129.5,0,0,1,-107.81975186661393,-71.72970868072589Q0,0,87.71293685740102,-95.2716679178526Z" id="ribbon14" fill="rgb(90, 177, 173)" style="stroke: rgb(63, 124, 121);"></path><path d="M107.29814779057894,-72.50763739573284A129.5,129.5,0,0,1,108.60424331783892,-70.53629089596106Q0,0,-8.832930103808652,-129.19841077111295A129.5,129.5,0,0,1,-6.472302420553189,-129.33815872114812Q0,0,107.29814779057894,-72.50763739573284Z" id="ribbon15" fill="rgb(94, 79, 162)" style="stroke: rgb(66, 55, 113);"></path><path d="M116.53425138553948,-56.48024658242819A129.5,129.5,0,0,1,118.16969480070267,-52.9733256527168Q0,0,110.28117050047439,67.884559607066A129.5,129.5,0,0,1,108.20374406463232,71.149137523905Q0,0,116.53425138553948,-56.48024658242819Z" id="ribbon16" fill="rgb(243, 122, 76)" style="stroke: rgb(170, 85, 53);"></path><path d="M111.99386151610494,-65.02018903933998A129.5,129.5,0,0,1,114.49483846073832,-60.50770170688551Q0,0,-103.9567544669932,77.22203830959972A129.5,129.5,0,0,1,-106.950128025787,73.01999805031338Q0,0,111.99386151610494,-65.02018903933998Z" id="ribbon17" fill="rgb(198, 232, 159)" style="stroke: rgb(139, 162, 111);"></path><path d="M114.49483846073832,-60.50770170688551A129.5,129.5,0,0,1,116.53425138553948,-56.48024658242819Q0,0,-91.49243614784218,-91.64815397886102A129.5,129.5,0,0,1,-88.2424700054153,-94.78141425059758Q0,0,114.49483846073832,-60.50770170688551Z" id="ribbon18" fill="rgb(90, 177, 173)" style="stroke: rgb(63, 124, 121);"></path><path d="M125.6246885142387,-31.443403691402445A129.5,129.5,0,0,1,126.4619262259145,-27.886039791109813Q0,0,108.20374406463232,71.149137523905A129.5,129.5,0,0,1,106.1529904704939,74.17406968861309Q0,0,125.6246885142387,-31.443403691402445Z" id="ribbon19" fill="rgb(243, 122, 76)" style="stroke: rgb(170, 85, 53);"></path><path d="M126.4619262259145,-27.886039791109813A129.5,129.5,0,0,1,127.07582035352208,-24.939644774522847Q0,0,10.4101076046483,129.08090354370643A129.5,129.5,0,0,1,7.407569492588513,129.28796507878246Q0,0,126.4619262259145,-27.886039791109813Z" id="ribbon20" fill="rgb(253, 197, 118)" style="stroke: rgb(177, 138, 83);"></path><path d="M121.72925188416099,-44.184151408876104A129.5,129.5,0,0,1,124.6874034668916,-34.97572610660987Q0,0,-107.81975186661393,-71.72970868072589A129.5,129.5,0,0,1,-102.16553208077006,-79.57671804399287Q0,0,121.72925188416099,-44.184151408876104Z" id="ribbon21" fill="rgb(90, 177, 173)" style="stroke: rgb(63, 124, 121);"></path><path d="M99.22461664043574,83.2149352734145A129.5,129.5,0,0,1,97.68857368309152,85.01289650260836Q0,0,75.61453165071599,105.13178683558493A129.5,129.5,0,0,1,73.68222476632471,106.49497524993753Q0,0,99.22461664043574,83.2149352734145Z" id="ribbon22" fill="rgb(252, 174, 101)" style="stroke: rgb(176, 122, 71);"></path><path d="M128.87129647130698,12.745153816431717A129.5,129.5,0,0,1,127.25287233373768,24.019918459758696Q0,0,37.398566010198124,123.9822457466425A129.5,129.5,0,0,1,26.359444391348493,126.78891785711954Q0,0,128.87129647130698,12.745153816431717Z" id="ribbon23" fill="rgb(253, 197, 118)" style="stroke: rgb(177, 138, 83);"></path><path d="M102.5917839101394,79.02642516358223A129.5,129.5,0,0,1,100.86254714540866,81.22189719121448Q0,0,-13.229028046203807,128.82252449378856A129.5,129.5,0,0,1,-16.005866870609534,128.50705126848226Q0,0,102.5917839101394,79.02642516358223Z" id="ribbon24" fill="rgb(254, 217, 137)" style="stroke: rgb(178, 152, 96);"></path><path d="M97.68857368309152,85.01289650260836A129.5,129.5,0,0,1,96.1199561639509,86.78250991438401Q0,0,-31.056037950044946,125.72101060222738A129.5,129.5,0,0,1,-33.34651797018505,125.13296823485058Q0,0,97.68857368309152,85.01289650260836Z" id="ribbon25" fill="rgb(253, 245, 172)" style="stroke: rgb(177, 172, 120);"></path><path d="M106.1529904704939,74.17406968861309A129.5,129.5,0,0,1,104.40058211628535,76.62094004761857Q0,0,-39.558885306739725,123.30995334233246A129.5,129.5,0,0,1,-42.41381674222554,122.35733794651185Q0,0,106.1529904704939,74.17406968861309Z" id="ribbon26" fill="rgb(247, 250, 175)" style="stroke: rgb(173, 175, 122);"></path><path d="M100.86254714540866,81.22189719121448A129.5,129.5,0,0,1,99.22461664043574,83.2149352734145Q0,0,-58.84058512334068,115.36045918053074A129.5,129.5,0,0,1,-61.1268584258646,114.16548155631065Q0,0,100.86254714540866,81.22189719121448Z" id="ribbon27" fill="rgb(237, 248, 167)" style="stroke: rgb(166, 174, 117);"></path><path d="M104.40058211628535,76.62094004761857A129.5,129.5,0,0,1,102.5917839101394,79.02642516358223Q0,0,-76.59610710236056,104.41880279319291A129.5,129.5,0,0,1,-79.00202235734086,102.61057676209705Q0,0,104.40058211628535,76.62094004761857Z" id="ribbon28" fill="rgb(221, 241, 160)" style="stroke: rgb(155, 169, 112);"></path><path d="M124.76586257186958,34.694805615500336A129.5,129.5,0,0,1,121.82845850589769,43.90987016693134Q0,0,-84.03168178607791,98.53388481229868A129.5,129.5,0,0,1,-91.151335023575,91.98741285317242Q0,0,124.76586257186958,34.694805615500336Z" id="ribbon29" fill="rgb(198, 232, 159)" style="stroke: rgb(139, 162, 111);"></path><path d="M96.1199561639509,86.78250991438401A129.5,129.5,0,0,1,94.51928714345368,88.52318542558979Q0,0,-120.27529437997964,48.00107875672418A129.5,129.5,0,0,1,-121.13173802529859,45.79685625641168Q0,0,96.1199561639509,86.78250991438401Z" id="ribbon30" fill="rgb(172, 222, 162)" style="stroke: rgb(120, 155, 113);"></path><path d="M112.36715278060274,64.37292113909919A129.5,129.5,0,0,1,110.28117050047439,67.884559607066Q0,0,-126.42654120833782,28.04602784881411A129.5,129.5,0,0,1,-127.24812830696379,24.045037791080276Q0,0,112.36715278060274,64.37292113909919Z" id="ribbon31" fill="rgb(116, 196, 167)" style="stroke: rgb(81, 137, 117);"></path><path d="M128.1634713957206,-18.55733277705366A129.5,129.5,0,0,1,128.87129647130698,12.745153816431717Q0,0,-128.99184999617435,11.460917701670155A129.5,129.5,0,0,1,-127.97227614845431,-19.832965925038877Q0,0,128.1634713957206,-18.55733277705366Z" id="ribbon32" fill="rgb(90, 177, 173)" style="stroke: rgb(63, 124, 121);"></path><path d="M116.3909511509689,56.77496358583397A129.5,129.5,0,0,1,114.34135300710228,60.797244941734185Q0,0,-64.9272068945581,-112.04779250333871A129.5,129.5,0,0,1,-60.982357622835046,-114.24273306762515Q0,0,116.3909511509689,56.77496358583397Z" id="ribbon33" fill="rgb(66, 129, 180)" style="stroke: rgb(46, 90, 126);"></path><path d="M94.51928714345368,88.52318542558979A129.5,129.5,0,0,1,92.88710036971344,90.23434260250794Q0,0,-41.852308291288864,-122.5505377005377A129.5,129.5,0,0,1,-39.60756515191656,-123.29432583349764Q0,0,94.51928714345368,88.52318542558979Z" id="ribbon34" fill="rgb(76, 104, 173)" style="stroke: rgb(53, 73, 121);"></path><path d="M118.90332354199916,51.30545439489517A129.5,129.5,0,0,1,116.3909511509689,56.77496358583397Q0,0,-25.65251237633329,-126.93383555530838A129.5,129.5,0,0,1,-19.72673657177298,-127.98869428284623Q0,0,118.90332354199916,51.30545439489517Z" id="ribbon35" fill="rgb(94, 79, 162)" style="stroke: rgb(66, 55, 113);"></path><path d="M88.26117819862556,94.76399328326379A129.5,129.5,0,0,1,86.51607805199068,96.35983726896728Q0,0,-22.408539372691624,127.54649098733579A129.5,129.5,0,0,1,-24.733794319673898,127.1160470536748Q0,0,88.26117819862556,94.76399328326379Z" id="ribbon36" fill="rgb(254, 234, 157)" style="stroke: rgb(178, 164, 110);"></path><path d="M73.68222476632471,106.49497524993753A129.5,129.5,0,0,1,71.72534831260249,107.82265258022477Q0,0,1.82204317934018,129.48718144531767A129.5,129.5,0,0,1,-0.5426885374513896,129.49886288748377Q0,0,73.68222476632471,106.49497524993753Z" id="ribbon37" fill="rgb(253, 197, 118)" style="stroke: rgb(177, 138, 83);"></path><path d="M81.5919708650162,100.56341427359328A129.5,129.5,0,0,1,77.69372440000545,103.60470640302012Q0,0,-117.28488981136017,54.904504568724604A129.5,129.5,0,0,1,-119.29526152239306,50.38740495703111Q0,0,81.5919708650162,100.56341427359328Z" id="ribbon38" fill="rgb(172, 222, 162)" style="stroke: rgb(120, 155, 113);"></path><path d="M77.69372440000545,103.60470640302012A129.5,129.5,0,0,1,75.61453165071599,105.13178683558493Q0,0,-54.83029415991866,-117.31960127078845A129.5,129.5,0,0,1,-52.48244101660973,-118.3885272521712Q0,0,77.69372440000545,103.60470640302012Z" id="ribbon39" fill="rgb(66, 129, 180)" style="stroke: rgb(46, 90, 126);"></path><path d="M7.407569492588513,129.28796507878246A129.5,129.5,0,0,1,4.6158812060787,129.41770991905Q0,0,-42.41381674222554,122.35733794651185A129.5,129.5,0,0,1,-45.04434431782051,121.41357850330263Q0,0,7.407569492588513,129.28796507878246Z" id="ribbon40" fill="rgb(247, 250, 175)" style="stroke: rgb(173, 175, 122);"></path><path d="M17.462374729710643,128.31724540683985A129.5,129.5,0,0,1,13.834600230725835,128.75889808652448Q0,0,-109.54504495951892,69.06615035469243A129.5,129.5,0,0,1,-111.4503139667948,65.94753609273712Q0,0,17.462374729710643,128.31724540683985Z" id="ribbon41" fill="rgb(198, 232, 159)" style="stroke: rgb(139, 162, 111);"></path><path d="M-0.5426885374513896,129.49886288748377A129.5,129.5,0,0,1,-2.907239293045217,129.46736252698196Q0,0,-121.13173802529859,45.79685625641168A129.5,129.5,0,0,1,-121.94778991202136,43.57736265050351Q0,0,-0.5426885374513896,129.49886288748377Z" id="ribbon42" fill="rgb(172, 222, 162)" style="stroke: rgb(120, 155, 113);"></path><path d="M13.834600230725835,128.75889808652448A129.5,129.5,0,0,1,10.4101076046483,129.08090354370643Q0,0,-127.24812830696379,24.045037791080276A129.5,129.5,0,0,1,-127.84183815067294,20.657067029400526Q0,0,13.834600230725835,128.75889808652448Z" id="ribbon43" fill="rgb(116, 196, 167)" style="stroke: rgb(81, 137, 117);"></path><path d="M66.24682369961081,111.27267566528937A129.5,129.5,0,0,1,48.14836126031733,120.21641031051449Q0,0,-122.10032174194178,-43.148133569301685A129.5,129.5,0,0,1,-113.91080937254017,-61.60014211097906Q0,0,66.24682369961081,111.27267566528937Z" id="ribbon44" fill="rgb(90, 177, 173)" style="stroke: rgb(63, 124, 121);"></path><path d="M21.500355103077396,127.70272013720606A129.5,129.5,0,0,1,17.462374729710643,128.31724540683985Q0,0,-60.982357622835046,-114.24273306762515A129.5,129.5,0,0,1,-57.34921879870655,-116.1090741638141Q0,0,21.500355103077396,127.70272013720606Z" id="ribbon45" fill="rgb(66, 129, 180)" style="stroke: rgb(46, 90, 126);"></path><path d="M4.6158812060787,129.41770991905A129.5,129.5,0,0,1,1.82204317934018,129.48718144531767Q0,0,-11.618904038416584,-128.97771539667644A129.5,129.5,0,0,1,-8.832930103808652,-129.19841077111295Q0,0,4.6158812060787,129.41770991905Z" id="ribbon46" fill="rgb(94, 79, 162)" style="stroke: rgb(66, 55, 113);"></path><path d="M-9.374277227723672,129.16026063173527A129.5,129.5,0,0,1,-13.229028046203807,128.82252449378856Q0,0,-88.2424700054153,-94.78141425059758A129.5,129.5,0,0,1,-85.37128173632448,-97.37553211509096Q0,0,-9.374277227723672,129.16026063173527Z" id="ribbon47" fill="rgb(90, 177, 173)" style="stroke: rgb(63, 124, 121);"></path><path d="M-45.04434431782051,121.41357850330263A129.5,129.5,0,0,1,-47.253838671584944,120.57082868919755Q0,0,-61.1268584258646,114.16548155631065A129.5,129.5,0,0,1,-63.20132159471985,113.0302744784812Q0,0,-45.04434431782051,121.41357850330263Z" id="ribbon48" fill="rgb(237, 248, 167)" style="stroke: rgb(166, 174, 117);"></path><path d="M-56.33746790032076,116.60334347942313A129.5,129.5,0,0,1,-58.84058512334068,115.36045918053074Q0,0,-113.05777164290475,63.15212008429172A129.5,129.5,0,0,1,-114.3942327119279,60.697689595645116Q0,0,-56.33746790032076,116.60334347942313Z" id="ribbon49" fill="rgb(198, 232, 159)" style="stroke: rgb(139, 162, 111);"></path><path d="M-53.22081353407054,118.05843894771647A129.5,129.5,0,0,1,-56.33746790032076,116.60334347942313Q0,0,-15.040229784272793,-128.62364280347634A129.5,129.5,0,0,1,-11.618904038416584,-128.97771539667644Q0,0,-53.22081353407054,118.05843894771647Z" id="ribbon50" fill="rgb(94, 79, 162)" style="stroke: rgb(66, 55, 113);"></path><path d="M-68.77149562090368,109.73026651778453A129.5,129.5,0,0,1,-73.97246548190043,106.2935762430122Q0,0,-96.76904759499176,86.05812818995206A129.5,129.5,0,0,1,-100.79838268897886,81.30151319185988Q0,0,-68.77149562090368,109.73026651778453Z" id="ribbon51" fill="rgb(198, 232, 159)" style="stroke: rgb(139, 162, 111);"></path><path d="M-111.4503139667948,65.94753609273712A129.5,129.5,0,0,1,-113.05777164290475,63.15212008429172Q0,0,-123.97334731350124,37.42805306031825A129.5,129.5,0,0,1,-124.8668237794363,34.32967112040545Q0,0,-111.4503139667948,65.94753609273712Z" id="ribbon52" fill="rgb(144, 210, 164)" style="stroke: rgb(101, 147, 115);"></path><path d="M-91.151335023575,91.98741285317242A129.5,129.5,0,0,1,-96.76904759499176,86.05812818995206Q0,0,-102.16553208077006,-79.57671804399287A129.5,129.5,0,0,1,-96.94568297371343,-85.85909708796297Q0,0,-91.151335023575,91.98741285317242Z" id="ribbon53" fill="rgb(90, 177, 173)" style="stroke: rgb(63, 124, 121);"></path><path d="M-119.29526152239306,50.38740495703111A129.5,129.5,0,0,1,-120.27529437997964,48.00107875672418Q0,0,-52.48244101660973,-118.3885272521712A129.5,129.5,0,0,1,-50.113761019537975,-119.41047255779803Q0,0,-119.29526152239306,50.38740495703111Z" id="ribbon54" fill="rgb(66, 129, 180)" style="stroke: rgb(46, 90, 126);"></path><path d="M-127.84183815067294,20.657067029400526A129.5,129.5,0,0,1,-128.25783662669846,17.893500044405066Q0,0,-57.34921879870655,-116.1090741638141A129.5,129.5,0,0,1,-54.83029415991866,-117.31960127078845Q0,0,-127.84183815067294,20.657067029400526Z" id="ribbon55" fill="rgb(66, 129, 180)" style="stroke: rgb(46, 90, 126);"></path><path d="M-85.37128173632448,-97.37553211509096A129.5,129.5,0,0,1,-82.75504346462834,-99.6084975349366Q0,0,-73.30716574270636,-106.75349854113158A129.5,129.5,0,0,1,-70.44612038058794,-108.66275407573522Q0,0,-85.37128173632448,-97.37553211509096Z" id="ribbon56" fill="rgb(71, 154, 179)" style="stroke: rgb(50, 108, 125);"></path><path d="M-80.41788033237876,-101.5047512328719A129.5,129.5,0,0,1,-78.55100204816922,-102.95625322062043Q0,0,-50.113761019537975,-119.41047255779803A129.5,129.5,0,0,1,-47.92497787200296,-120.30563783949623Q0,0,-80.41788033237876,-101.5047512328719Z" id="ribbon57" fill="rgb(66, 129, 180)" style="stroke: rgb(46, 90, 126);"></path><path d="M-96.94568297371343,-85.85909708796297A129.5,129.5,0,0,1,-91.49243614784218,-91.64815397886102Q0,0,-33.395918028140734,-125.11979323455463A129.5,129.5,0,0,1,-25.65251237633329,-126.93383555530838Q0,0,-96.94568297371343,-85.85909708796297Z" id="ribbon58" fill="rgb(94, 79, 162)" style="stroke: rgb(66, 55, 113);"></path></g></g></g></g></svg>