<svg width="970" height="730" style="display: block; touch-action: none;" xmlns="http://www.w3.org/2000/svg" xmlns:xlink="http://www.w3.org/1999/xlink"><rect fill="white" x="0" y="0" width="970" height="730" style="pointer-events: none;"></rect><g transform="matrix(1,0,0,1,0,0)"><g width="970" height="730"><g transform="translate(485,365)"><g class="groups"><g><path id="arc0" fill="rgb(158, 1, 66)" style="stroke: rgb(111, 1, 46);" d="M1.990051048614449e-14,-325A325,325,0,0,1,166.99752456092455,-278.8132471575255L151.96774735044133,-253.7200549133482A295.75,295.75,0,0,0,1.8109464542391485e-14,-295.75Z"></path><g transform="rotate(-74.54007362651826) translate(325,0)"><text id="text0" x="6" style="font-size: 13pt;" font-weight="normal">unhappiness</text></g></g><g><path id="arc1" fill="rgb(214, 66, 75)" style="stroke: rgb(150, 46, 53);" d="M199.17393378892243,-256.81655729147593A325,325,0,0,1,293.888712723579,-138.7603132515838L267.43872857845685,-126.27188505894124A295.75,295.75,0,0,0,181.2482797479194,-233.70306713524312Z"></path><g transform="rotate(-38.73955654746642) translate(325,0)"><text id="text1" x="6" style="font-size: 13pt;" font-weight="normal">virtue</text></g></g><g><path id="arc2" fill="rgb(244, 125, 77)" style="stroke: rgb(171, 88, 54);" d="M308.3865553553942,-102.58037081252134A325,325,0,0,1,318.4489579525445,64.92504277194213L289.7885517368155,59.08178892246734A295.75,295.75,0,0,0,280.6317653734087,-93.34813743939442Z"></path><g transform="rotate(-3.4377467707849547) translate(325,0)"><text id="text2" x="6" style="font-size: 13pt;" font-weight="normal">feeling</text></g></g><g><path id="arc3" fill="rgb(253, 190, 112)" style="stroke: rgb(177, 133, 78);" d="M308.38655535539425,102.5803708125212A325,325,0,0,1,228.48567844433188,231.1261446609478L207.921967384342,210.3247916414625A295.75,295.75,0,0,0,280.63176537340877,93.34813743939429Z"></path><g transform="rotate(31.864063005896554) translate(325,0)"><text id="text3" x="6" style="font-size: 13pt;" font-weight="normal">attraction</text></g></g><g><path id="arc4" fill="rgb(254, 237, 161)" style="stroke: rgb(178, 166, 113);" d="M199.1739337889221,256.8165572914762A325,325,0,0,1,38.90646736889784,322.6628066525066L35.404885305697036,293.62315405378104A295.75,295.75,0,0,0,181.24827974791913,233.70306713524334Z"></path><g transform="rotate(67.66458008494851) translate(325,0)"><text id="text4" x="6" style="font-size: 13pt;" font-weight="normal">love</text></g></g><g><path id="arc5" fill="rgb(240, 248, 169)" style="stroke: rgb(168, 174, 118);" d="M-9.90402441922748e-13,325A325,325,0,0,1,-147.193999951977,289.7566675300801L-133.94653995629906,263.67856745237293A295.75,295.75,0,0,0,-9.012662221497007e-13,295.75Z"></path><g transform="rotate(103.46509716400047) translate(325,0)"><text id="text5" x="6" transform="rotate(180) translate(-12)" style="text-anchor: end; font-size: 13pt;" font-weight="normal">interaction</text></g></g><g><path id="arc6" fill="rgb(190, 229, 160)" style="stroke: rgb(133, 160, 112);" d="M-180.8228845449038,270.0520031861648A325,325,0,0,1,-283.5220645628405,158.87176875085294L-258.0050787521849,144.57330956327615A295.75,295.75,0,0,0,-164.54882493586246,245.74732289941002Z"></path><g transform="rotate(137.27078503357086) translate(325,0)"><text id="text6" x="6" transform="rotate(180) translate(-12)" style="text-anchor: end; font-size: 13pt;" font-weight="normal">personality</text></g></g><g><path id="arc7" fill="rgb(119, 198, 167)" style="stroke: rgb(83, 139, 117);" d="M-300.5020442661649,123.78821184529602A325,325,0,0,1,-313.1599847155371,-86.92424272298582L-284.9755860911388,-79.10106087791709A295.75,295.75,0,0,0,-273.45686028221,112.64727277921938Z"></path><g transform="rotate(176.56225322921534) translate(325,0)"><text id="text7" x="6" transform="rotate(180) translate(-12)" style="text-anchor: end; font-size: 13pt;" font-weight="normal">Sentimentalism</text></g></g><g><path id="arc8" fill="rgb(67, 143, 180)" style="stroke: rgb(47, 100, 126);" d="M-300.5020442661636,-123.78821184529913A325,325,0,0,1,-211.8510427203953,-246.46325425564203L-192.78444887555972,-224.28156137263423A295.75,295.75,0,0,0,-273.4568602822089,-112.64727277922222Z"></path><g transform="rotate(215.85372142485983) translate(325,0)"><text id="text8" x="6" transform="rotate(180) translate(-12)" style="text-anchor: end; font-size: 13pt;" font-weight="normal">happiness</text></g></g><g><path id="arc9" fill="rgb(94, 79, 162)" style="stroke: rgb(66, 55, 113);" d="M-180.8228845449017,-270.05200318616625A325,325,0,0,1,-38.906467368898596,-322.66280665250656L-35.404885305697725,-293.623154053781A295.75,295.75,0,0,0,-164.54882493586055,-245.7473228994113Z"></path><g transform="rotate(249.65940929443002) translate(325,0)"><text id="text9" x="6" transform="rotate(180) translate(-12)" style="text-anchor: end; font-size: 13pt;" font-weight="normal">family</text></g></g></g><g class="ribbons"><path d="M35.950135577086066,-293.55689440377506A295.75,295.75,0,0,1,51.22501755165352,-291.2800372096117Q0,0,181.2482797479194,-233.70306713524312A295.75,295.75,0,0,1,193.20064785089312,-223.92313897852358Q0,0,35.950135577086066,-293.55689440377506Z" id="ribbon0" fill="rgb(214, 66, 75)" style="stroke: rgb(150, 46, 53);"></path><path d="M51.22501755165352,-291.2800372096117A295.75,295.75,0,0,1,66.36022021118836,-288.2089236535236Q0,0,288.83476910731036,-63.58096141713114A295.75,295.75,0,0,1,291.75994994227034,-48.41687835542373Q0,0,51.22501755165352,-291.2800372096117Z" id="ribbon1" fill="rgb(244, 125, 77)" style="stroke: rgb(171, 88, 54);"></path><path d="M66.36022021118836,-288.2089236535236A295.75,295.75,0,0,1,81.31447319910689,-284.35192798423526Q0,0,280.63176537340877,93.34813743939429A295.75,295.75,0,0,1,275.37631025485115,107.87006188198816Q0,0,66.36022021118836,-288.2089236535236Z" id="ribbon2" fill="rgb(253, 190, 112)" style="stroke: rgb(177, 133, 78);"></path><path d="M81.31447319910689,-284.35192798423526A295.75,295.75,0,0,1,96.04699956863556,-279.7195673775121Q0,0,151.49628121904627,254.00184896334838A295.75,295.75,0,0,1,138.03064058587955,261.56376805561536Q0,0,81.31447319910689,-284.35192798423526Z" id="ribbon3" fill="rgb(254, 237, 161)" style="stroke: rgb(178, 166, 113);"></path><path d="M96.04699956863556,-279.7195673775121A295.75,295.75,0,0,1,110.51762697254347,-274.3244732581432Q0,0,-9.012662221497007e-13,295.75A295.75,295.75,0,0,1,-15.438377817948757,295.346777518141Q0,0,96.04699956863556,-279.7195673775121Z" id="ribbon4" fill="rgb(240, 248, 169)" style="stroke: rgb(168, 174, 118);"></path><path d="M110.51762697254347,-274.3244732581432A295.75,295.75,0,0,1,124.6868972042652,-268.18135685683484Q0,0,-164.54882493586246,245.74732289941002A295.75,295.75,0,0,1,-177.152680330935,236.82269813420663Q0,0,110.51762697254347,-274.3244732581432Z" id="ribbon5" fill="rgb(190, 229, 160)" style="stroke: rgb(133, 160, 112);"></path><path d="M1.8109464542391485e-14,-295.75A295.75,295.75,0,0,1,35.950135577086066,-293.55689440377506Q0,0,-273.45686028221,112.64727277921938A295.75,295.75,0,0,1,-285.1219996167524,78.57167323243556Q0,0,1.8109464542391485e-14,-295.75Z" id="ribbon6" fill="rgb(119, 198, 167)" style="stroke: rgb(83, 139, 117);"></path><path d="M124.6868972042652,-268.18135685683484A295.75,295.75,0,0,1,138.5161737917198,-261.30696909593144Q0,0,-273.4568602822089,-112.64727277922222A295.75,295.75,0,0,1,-267.203757623844,-126.76834940827311Q0,0,124.6868972042652,-268.18135685683484Z" id="ribbon7" fill="rgb(67, 143, 180)" style="stroke: rgb(47, 100, 126);"></path><path d="M138.5161737917198,-261.30696909593144A295.75,295.75,0,0,1,151.96774735044133,-253.7200549133482Q0,0,-164.54882493586055,-245.7473228994113A295.75,295.75,0,0,1,-151.49628121904593,-254.00184896334858Q0,0,138.5161737917198,-261.30696909593144Z" id="ribbon8" fill="rgb(94, 79, 162)" style="stroke: rgb(66, 55, 113);"></path><path d="M193.20064785089312,-223.92313897852358A295.75,295.75,0,0,1,204.62620043587395,-213.53262185244094Q0,0,291.75994994227034,-48.41687835542373A295.75,295.75,0,0,1,293.8895657992235,-33.12077315438014Q0,0,193.20064785089312,-223.92313897852358Z" id="ribbon9" fill="rgb(244, 125, 77)" style="stroke: rgb(171, 88, 54);"></path><path d="M204.62620043587395,-213.53262185244094A295.75,295.75,0,0,1,215.49378254313288,-202.55984840351002Q0,0,275.37631025485115,107.87006188198816A295.75,295.75,0,0,1,269.36996472705516,122.09784847795255Q0,0,204.62620043587395,-213.53262185244094Z" id="ribbon10" fill="rgb(253, 190, 112)" style="stroke: rgb(177, 133, 78);"></path><path d="M215.49378254313288,-202.55984840351002A295.75,295.75,0,0,1,225.7737606752627,-191.03473896270592Q0,0,138.03064058587955,261.56376805561536A295.75,295.75,0,0,1,124.18862086585152,268.41246049212725Q0,0,215.49378254313288,-202.55984840351002Z" id="ribbon11" fill="rgb(254, 237, 161)" style="stroke: rgb(178, 166, 113);"></path><path d="M225.7737606752627,-191.03473896270592A295.75,295.75,0,0,1,235.43810360118385,-178.98871995932652Q0,0,-15.438377817948757,295.346777518141A295.75,295.75,0,0,1,-30.83465858758128,294.1382095712614Q0,0,225.7737606752627,-191.03473896270592Z" id="ribbon12" fill="rgb(240, 248, 169)" style="stroke: rgb(168, 174, 118);"></path><path d="M235.43810360118385,-178.98871995932652A295.75,295.75,0,0,1,244.46045879112367,-166.45463822805698Q0,0,-177.152680330935,236.82269813420663A295.75,295.75,0,0,1,-189.27347947288155,227.2523101493771Q0,0,235.43810360118385,-178.98871995932652Z" id="ribbon13" fill="rgb(190, 229, 160)" style="stroke: rgb(133, 160, 112);"></path><path d="M244.46045879112367,-166.45463822805698A295.75,295.75,0,0,1,252.8162242741479,-153.46667144290234Q0,0,-295.48178582434673,12.59272591835853A295.75,295.75,0,0,1,-295.73627901610075,-2.8488197048920014Q0,0,244.46045879112367,-166.45463822805698Z" id="ribbon14" fill="rgb(119, 198, 167)" style="stroke: rgb(83, 139, 117);"></path><path d="M252.8162242741479,-153.46667144290234A295.75,295.75,0,0,1,260.4826157223047,-140.06023492221541Q0,0,-267.203757623844,-126.76834940827311A295.75,295.75,0,0,1,-260.22204930318924,-140.54375673237342Q0,0,252.8162242741479,-153.46667144290234Z" id="ribbon15" fill="rgb(67, 143, 180)" style="stroke: rgb(47, 100, 126);"></path><path d="M260.4826157223047,-140.06023492221541A295.75,295.75,0,0,1,267.43872857845685,-126.27188505894124Q0,0,-151.49628121904593,-254.00184896334858A295.75,295.75,0,0,1,-138.03064058587935,-261.56376805561547Q0,0,260.4826157223047,-140.06023492221541Z" id="ribbon16" fill="rgb(94, 79, 162)" style="stroke: rgb(66, 55, 113);"></path><path d="M293.8895657992235,-33.12077315438014A295.75,295.75,0,0,1,295.21780968583664,-17.73435491629582Q0,0,269.36996472705516,122.09784847795255A295.75,295.75,0,0,1,262.62910676838504,135.9927011939987Q0,0,293.8895657992235,-33.12077315438014Z" id="ribbon17" fill="rgb(253, 190, 112)" style="stroke: rgb(177, 133, 78);"></path><path d="M295.21780968583664,-17.73435491629582A295.75,295.75,0,0,1,295.7410597742385,-2.2995790071818085Q0,0,124.18862086585152,268.41246049212725A295.75,295.75,0,0,1,110.00796619113763,274.5292514004464Q0,0,295.21780968583664,-17.73435491629582Z" id="ribbon18" fill="rgb(254, 237, 161)" style="stroke: rgb(178, 166, 113);"></path><path d="M295.7410597742385,-2.2995790071818085A295.75,295.75,0,0,1,295.4578892769446,13.141467346256848Q0,0,-30.83465858758128,294.1382095712614A295.75,295.75,0,0,1,-46.14686004994105,292.1275916573632Q0,0,295.7410597742385,-2.2995790071818085Z" id="ribbon19" fill="rgb(240, 248, 169)" style="stroke: rgb(168, 174, 118);"></path><path d="M295.4578892769446,13.141467346256848A295.75,295.75,0,0,1,294.36907033739163,28.54667981919761Q0,0,-189.27347947288155,227.2523101493771A295.75,295.75,0,0,1,-200.87817161808667,217.06225528031015Q0,0,295.4578892769446,13.141467346256848Z" id="ribbon20" fill="rgb(190, 229, 160)" style="stroke: rgb(133, 160, 112);"></path><path d="M280.6317653734087,-93.34813743939442A295.75,295.75,0,0,1,288.83476910731036,-63.58096141713114Q0,0,-292.55854958212257,43.33079235837659A295.75,295.75,0,0,1,-295.48178582434673,12.59272591835853Q0,0,280.6317653734087,-93.34813743939442Z" id="ribbon21" fill="rgb(119, 198, 167)" style="stroke: rgb(83, 139, 117);"></path><path d="M294.36907033739163,28.54667981919761A295.75,295.75,0,0,1,292.4775719244729,43.87405179789979Q0,0,-260.22204930318924,-140.54375673237342A295.75,295.75,0,0,1,-252.5307728976353,-153.93593225664677Q0,0,294.36907033739163,28.54667981919761Z" id="ribbon22" fill="rgb(67, 143, 180)" style="stroke: rgb(47, 100, 126);"></path><path d="M292.4775719244729,43.87405179789979A295.75,295.75,0,0,1,289.7885517368155,59.08178892246734Q0,0,-138.03064058587935,-261.56376805561547A295.75,295.75,0,0,1,-124.18862086585143,-268.4124604921273Q0,0,292.4775719244729,43.87405179789979Z" id="ribbon23" fill="rgb(94, 79, 162)" style="stroke: rgb(66, 55, 113);"></path><path d="M262.62910676838504,135.9927011939987A295.75,295.75,0,0,1,255.1721172104618,149.51673183403366Q0,0,110.00796619113763,274.5292514004464A295.75,295.75,0,0,1,95.52734407668174,279.89746164203643Q0,0,262.62910676838504,135.9927011939987Z" id="ribbon24" fill="rgb(254, 237, 161)" style="stroke: rgb(178, 166, 113);"></path><path d="M255.1721172104618,149.51673183403366A295.75,295.75,0,0,1,247.01932961769288,162.63306335190762Q0,0,-46.14686004994105,292.1275916573632A295.75,295.75,0,0,1,-61.33322921178122,289.3204062876573Q0,0,255.1721172104618,149.51673183403366Z" id="ribbon25" fill="rgb(240, 248, 169)" style="stroke: rgb(168, 174, 118);"></path><path d="M247.01932961769288,162.63306335190762A295.75,295.75,0,0,1,238.19297484213044,175.30593040697795Q0,0,-200.87817161808667,217.06225528031015A295.75,295.75,0,0,1,-211.93511333278536,206.2803195571973Q0,0,247.01932961769288,162.63306335190762Z" id="ribbon26" fill="rgb(190, 229, 160)" style="stroke: rgb(133, 160, 112);"></path><path d="M238.19297484213044,175.30593040697795A295.75,295.75,0,0,1,228.71712040484553,187.50077688829822Q0,0,-295.73627901610075,-2.8488197048920014A295.75,295.75,0,0,1,-295.1843646582312,-18.282597225679133Q0,0,238.19297484213044,175.30593040697795Z" id="ribbon27" fill="rgb(119, 198, 167)" style="stroke: rgb(83, 139, 117);"></path><path d="M228.71712040484553,187.50077688829822A295.75,295.75,0,0,1,218.61760486911072,199.18435014150427Q0,0,-252.5307728976353,-153.93593225664677A295.75,295.75,0,0,1,-244.15090082010474,-166.9083584747372Q0,0,228.71712040484553,187.50077688829822Z" id="ribbon28" fill="rgb(67, 143, 180)" style="stroke: rgb(47, 100, 126);"></path><path d="M218.61760486911072,199.18435014150427A295.75,295.75,0,0,1,207.921967384342,210.3247916414625Q0,0,-124.18862086585143,-268.4124604921273A295.75,295.75,0,0,1,-110.00796619113765,-274.5292514004464Q0,0,218.61760486911072,199.18435014150427Z" id="ribbon29" fill="rgb(94, 79, 162)" style="stroke: rgb(66, 55, 113);"></path><path d="M95.52734407668174,279.89746164203643A295.75,295.75,0,0,1,80.7862399824186,284.50245329259127Q0,0,-61.33322921178122,289.3204062876573A295.75,295.75,0,0,1,-76.35235619676119,285.72430803696574Q0,0,95.52734407668174,279.89746164203643Z" id="ribbon30" fill="rgb(240, 248, 169)" style="stroke: rgb(168, 174, 118);"></path><path d="M80.7862399824186,284.50245329259127A295.75,295.75,0,0,1,65.824849645141,288.3316695564235Q0,0,-211.93511333278536,206.2803195571973A295.75,295.75,0,0,1,-222.41415477772168,194.93590293866254Q0,0,80.7862399824186,284.50245329259127Z" id="ribbon31" fill="rgb(190, 229, 160)" style="stroke: rgb(133, 160, 112);"></path><path d="M181.24827974791913,233.70306713524334A295.75,295.75,0,0,1,151.49628121904627,254.00184896334838Q0,0,-285.1219996167524,78.57167323243556A295.75,295.75,0,0,1,-292.55854958212257,43.33079235837659Q0,0,181.24827974791913,233.70306713524334Z" id="ribbon32" fill="rgb(119, 198, 167)" style="stroke: rgb(83, 139, 117);"></path><path d="M65.824849645141,288.3316695564235A295.75,295.75,0,0,1,50.683969473598594,291.3746690060742Q0,0,-244.15090082010474,-166.9083584747372A295.75,295.75,0,0,1,-235.10528313191122,-179.42566244398785Q0,0,65.824849645141,288.3316695564235Z" id="ribbon33" fill="rgb(67, 143, 180)" style="stroke: rgb(47, 100, 126);"></path><path d="M50.683969473598594,291.3746690060742A295.75,295.75,0,0,1,35.404885305697036,293.62315405378104Q0,0,-110.00796619113765,-274.5292514004464A295.75,295.75,0,0,1,-95.5273440766819,-279.8974616420364Q0,0,50.683969473598594,291.3746690060742Z" id="ribbon34" fill="rgb(94, 79, 162)" style="stroke: rgb(66, 55, 113);"></path><path d="M-76.35235619676119,285.72430803696574A295.75,295.75,0,0,1,-91.16328716103831,281.34910267138594Q0,0,-222.41415477772168,194.93590293866254A295.75,295.75,0,0,1,-232.28672192010495,183.05993914456502Q0,0,-76.35235619676119,285.72430803696574Z" id="ribbon35" fill="rgb(190, 229, 160)" style="stroke: rgb(133, 160, 112);"></path><path d="M-91.16328716103831,281.34910267138594A295.75,295.75,0,0,1,-105.72563596535942,276.206720410131Q0,0,-295.1843646582312,-18.282597225679133A295.75,295.75,0,0,1,-293.82754769935764,-33.66652213968239Q0,0,-91.16328716103831,281.34910267138594Z" id="ribbon36" fill="rgb(119, 198, 167)" style="stroke: rgb(83, 139, 117);"></path><path d="M-105.72563596535942,276.206720410131A295.75,295.75,0,0,1,-119.99969429914748,270.31118339445584Q0,0,-235.10528313191122,-179.42566244398785A295.75,295.75,0,0,1,-225.41858523568655,-191.45371223964688Q0,0,-105.72563596535942,276.206720410131Z" id="ribbon37" fill="rgb(67, 143, 180)" style="stroke: rgb(47, 100, 126);"></path><path d="M-119.99969429914748,270.31118339445584A295.75,295.75,0,0,1,-133.94653995629906,263.67856745237293Q0,0,-95.5273440766819,-279.8974616420364A295.75,295.75,0,0,1,-80.78623998241889,-284.50245329259116Q0,0,-119.99969429914748,270.31118339445584Z" id="ribbon38" fill="rgb(94, 79, 162)" style="stroke: rgb(66, 55, 113);"></path><path d="M-232.28672192010495,183.05993914456502A295.75,295.75,0,0,1,-241.52589444868923,170.68481130657358Q0,0,-293.82754769935764,-33.66652213968239A295.75,295.75,0,0,1,-291.6695278798121,-48.95864587963511Q0,0,-232.28672192010495,183.05993914456502Z" id="ribbon39" fill="rgb(119, 198, 167)" style="stroke: rgb(83, 139, 117);"></path><path d="M-241.52589444868923,170.68481130657358A295.75,295.75,0,0,1,-250.10647917952,157.84426366651513Q0,0,-225.41858523568655,-191.45371223964688A295.75,295.75,0,0,1,-215.11722061827257,-202.95971002509205Q0,0,-241.52589444868923,170.68481130657358Z" id="ribbon40" fill="rgb(67, 143, 180)" style="stroke: rgb(47, 100, 126);"></path><path d="M-250.10647917952,157.84426366651513A295.75,295.75,0,0,1,-258.0050787521849,144.57330956327615Q0,0,-80.78623998241889,-284.50245329259116A295.75,295.75,0,0,1,-65.82484964514141,-288.3316695564234Q0,0,-250.10647917952,157.84426366651513Z" id="ribbon41" fill="rgb(94, 79, 162)" style="stroke: rgb(66, 55, 113);"></path><path d="M-291.6695278798121,-48.95864587963511A295.75,295.75,0,0,1,-288.71618964326353,-64.11727019980734Q0,0,-215.11722061827257,-202.95971002509205A295.75,295.75,0,0,1,-204.22927882697323,-213.91228148429073Q0,0,-291.6695278798121,-48.95864587963511Z" id="ribbon42" fill="rgb(67, 143, 180)" style="stroke: rgb(47, 100, 126);"></path><path d="M-288.71618964326353,-64.11727019980734A295.75,295.75,0,0,1,-284.9755860911388,-79.10106087791709Q0,0,-65.82484964514141,-288.3316695564234A295.75,295.75,0,0,1,-50.68396947359914,-291.37466900607416Q0,0,-288.71618964326353,-64.11727019980734Z" id="ribbon43" fill="rgb(94, 79, 162)" style="stroke: rgb(66, 55, 113);"></path><path d="M-204.22927882697323,-213.91228148429073A295.75,295.75,0,0,1,-192.78444887555972,-224.28156137263423Q0,0,-50.68396947359914,-291.37466900607416A295.75,295.75,0,0,1,-35.404885305697725,-293.623154053781Q0,0,-204.22927882697323,-213.91228148429073Z" id="ribbon44" fill="rgb(94, 79, 162)" style="stroke: rgb(66, 55, 113);"></path></g></g></g></g></svg>